<svg xmlns="http://www.w3.org/2000/svg"><defs><font id="nb_akademie_probold" horiz-adv-x="1423"><font-face units-per-em="2048" ascent="1638" descent="-410"/><glyph unicode="ﬁ" horiz-adv-x="1269" d="M53 838v198h172v117q0 289 303 289h179v-230H567q-67 0-67-84v-92h616V0H842v838H500V0H225v838H53zm783 342v262h286v-262H836z"/><glyph unicode="ﬂ" horiz-adv-x="1257" d="M53 838v198h172v117q0 289 303 289h584V0H838v1212H567q-67 0-67-84v-92h174V838H500V0H225v838H53z"/><glyph horiz-adv-x="0"/><glyph horiz-adv-x="682"/><glyph horiz-adv-x="51"/><glyph horiz-adv-x="51"/><glyph horiz-adv-x="51"/><glyph horiz-adv-x="487"/><glyph horiz-adv-x="487"/><glyph horiz-adv-x="487"/><glyph unicode="!" horiz-adv-x="622" d="M156 0v305h309V0H156zm8 1036v406h293v-406l-35-594H197z"/><glyph unicode="&quot;" horiz-adv-x="768" d="M98 1133v309h236v-309l-35-302H135zm338 0v309h240v-309l-35-302H471z"/><glyph unicode="#" horiz-adv-x="1259" d="M37 438v187h272l37 192H102v184h277l76 420h211l-74-420h170l74 420h213l-74-420h239l3-184H940l-35-192h246l2-187H874L795 0H584l78 438H489L414 0H201l75 438H37zm487 187h168l35 192H559z"/><glyph unicode="$" horiz-adv-x="1335" d="m88 465 270 49q5-46 19-87.5t40-83.5 71.5-73.5T594 225v406q-465 76-465 403 0 97 39.5 175.5t107 128.5 148 79.5T594 1456v191h166v-193q185-23 312-135t151-295l-271-45q-26 192-192 233V852q64-10 115.5-23.5t110.5-35 102.5-53.5 80.5-75.5 56.5-104.5 19.5-136q0-181-131-301T760-16v-189H594v189Q488-6 402.5 27.5t-141.5 81T166.5 217 110 339 88 465zm326 569q0-110 180-153v336q-79-13-129.5-59.5T414 1034zm346-809q91 14 146 66t55 133q0 84-54 125t-147 59V225z"/><glyph unicode="%" horiz-adv-x="1753" d="M115 1022q0 132 33 227.5t109.5 153T449 1460q88 0 153-32.5t104-92 57.5-137.5 18.5-176q0-202-80.5-319T449 586q-115 0-191.5 57T148 795.5 115 1022zm231 0q0-254 103-254 53 0 76.5 63t23.5 191q0 129-23.5 192.5T449 1278q-103 0-103-256zM354 8l885 1514 158-90L512-80zm615 408q0 98 19 176t58 137.5 104 92 153 32.5q172 0 253.5-118t81.5-320q0-97-19-175t-58-137-104.5-91.5T1303-20q-116 0-192.5 57.5t-109 152.5T969 416zm235 0q0-128 22.5-190t76.5-62 77 62.5 23 189.5q0 132-23 195t-77 63-76.5-63-22.5-195z"/><glyph unicode="&amp;" horiz-adv-x="1323" d="M59 414q0 245 248 389-73 83-105 145.5T170 1096q0 167 119 266.5t289 99.5q184 0 297.5-109T989 1096q0-127-74.5-213T700 725l187-219q26 101 26 231l269-47q-8-124-27.5-221.5T1083 270L1317 0H999l-73 82Q793-20 584-20q-124 0-225 34.5t-165.5 94-99.5 138T59 414zm285 14q0-102 71-162.5T584 205q109 0 180 65L473 614q-129-70-129-186zm94 682q0-51 22-93t85-114q178 75 178 193 0 64-37.5 104.5T578 1241q-58 0-99-38.5t-41-92.5z"/><glyph unicode="'" horiz-adv-x="430" d="M98 1133v309h236v-309l-33-302H135z"/><glyph unicode="(" horiz-adv-x="677" d="M51 522q0 93 16 184.5T110 873t62 146 73.5 126.5 77.5 104 74 83.5 62 60 43 37l16 12 107-109q-7-6-20-17.5t-50-52.5-70.5-86.5-74.5-118T339.5 909 290 730t-20-208q0-107 19.5-209.5t51-182T410-20t76.5-120.5 70-86.5 51.5-55l19-17-107-107q-10 7-27 20.5T427.5-325t-93 99.5-98.5 136T143 82 77.5 286 51 522z"/><glyph unicode=")" horiz-adv-x="677" d="M51-299q7 6 20 18t50 53.5 71 87.5 75 119.5T337.5 131t50 181T408 522q0 106-19.5 207.5t-51 180T268 1058t-75.5 119-69 85-51.5 54l-19 17 107 109q10-7 26.5-20.5t65-60 93-98.5 98-134.5T535 959t65.5-202.5T627 522q0-120-26-235.5t-67-205-91-170-100.5-137T251-324t-67-62l-26-20z"/><glyph unicode="*" horiz-adv-x="864" d="m80 1133 47 145 133-45 111-51-15 135v125h154v-125l-14-135 110 51 135 45 45-145-137-43-125-27 90-96 80-109-129-88-73 100-58 105-59-103-74-102-127 88 80 109 90 96-125 27z"/><glyph unicode="+" horiz-adv-x="1271" d="M117 391v256h377v389h286V647h373V391H780V0H494v391H117z"/><glyph unicode="," horiz-adv-x="528" d="M109 0v305h309V0L244-330H109L248 0H109z"/><glyph unicode="-" horiz-adv-x="874" d="M70 397v254h731V397H70z"/><glyph unicode="." horiz-adv-x="522" d="M106 0v305h310V0H106z"/><glyph unicode="/" horiz-adv-x="847" d="m14 0 531 1442h258L272 0H14z"/><glyph unicode="0" horiz-adv-x="1372" d="M117 709q0 165 32 296t99 230.5 178 153 260 53.5 259.5-53.5 177.5-153 99.5-231T1255 709t-32.5-294-99.5-228.5T945.5 35 686-18 426 35 248 186.5 149 415t-32 294zm295 0q0-259 63-374.5T686 219q145 0 208.5 116T958 709q0 261-63.5 378T686 1204q-148 0-211-116.5T412 709z"/><glyph unicode="1" horiz-adv-x="913" d="M94 813v315l336 293h277V0H418v1094z"/><glyph unicode="2" horiz-adv-x="1210" d="M94 0v238l520 458q38 34 63.5 60t57 66 48 84 16.5 89q0 83-53.5 146T592 1204q-83 0-141-77.5T397 915l-286 52q0 115 40.5 208t109 150 153.5 87 178 30q216 0 360-129.5T1096 995q0-261-262-471L475 238h641V0H94z"/><glyph unicode="3" horiz-adv-x="1232" d="m94 418 285 51q0-124 63.5-188T602 217q95 0 158 52.5T823 410q0 92-64.5 147T602 612H473v236h129q82 0 138.5 49t56.5 129q0 77-51.5 127.5T604 1204q-97 0-155-60t-58-167l-276 49q0 185 137 300.5T604 1442q204 0 345-119t141-297q0-95-57-174.5T905 737q84-40 147.5-130.5T1116 410q0-128-69.5-227T861 32 604-20Q376-20 235 96.5T94 418z"/><glyph unicode="4" horiz-adv-x="1452" d="M94 272v230l721 919h279V510h272V272h-272V0H807v272H94zm314 238h399v510z"/><glyph unicode="5" horiz-adv-x="1290" d="m94 393 287 51q2-34 14.5-69.5t39-72.5 77-61T629 217q120 0 186 85.5T881 506q0 109-66.5 188.5T629 774q-49 0-87-11.5T477.5 727 438 686.5 406 639l-275 55 86 727h807v-237H455l-37-287q94 104 276 104 133 0 241-56.5T1109.5 774t66.5-268q0-124-44.5-225t-120-166-174-100T629-20 427 9 276.5 82t-100 101T116 292.5 94 393z"/><glyph unicode="6" horiz-adv-x="1308" d="M117 713q0 347 146.5 538T690 1442q106 0 201-35.5t170.5-112.5 109.5-186l-274-49q-39 78-87.5 110.5T690 1202q-73 0-129-29.5t-86-71-48.5-97.5-24-98.5T397 821q42 72 128 118t196 46q107 0 193-36.5t137-90 84.5-121 46-123.5 12.5-104q0-107-36-203t-101.5-169-164-115.5T676-20q-121 1-218 43T298.5 135 194 301t-59.5 198T117 713zm313-217q0-71 25.5-132t83-103T676 219q79 0 136.5 42T896 364t26 132q0 112-64.5 195T676 774q-118 0-182-82.5T430 496z"/><glyph unicode="7" horiz-adv-x="1128" d="M72 1184v237h985v-227L522 0H219l537 1184H72z"/><glyph unicode="8" horiz-adv-x="1280" d="M117 416q0 112 61.5 198T330 750q-80 43-128 116t-48 174q0 175 141 288.5T639 1442q204 0 343.5-113t139.5-289q0-98-47-171T954 750q91-49 150-134t59-200q0-187-152-311.5T639-20 268 104.5 117 416zm297 16q0-95 65-154t160-59 161 59.5T866 432q0 101-66 159t-161 58q-94 0-159.5-58T414 432zm28 600q0-79 57.5-128.5T639 854t140.5 49.5T838 1032q0 71-58 121.5T639 1204t-140-50.5-57-121.5z"/><glyph unicode="9" horiz-adv-x="1308" d="M117 911q0 106 36 202t101 169.5T417.5 1399t215.5 43q87 0 163-24.5t132-66 101.5-99 76-122.5 50.5-138 29-143.5 9-141.5q0-346-147.5-536.5T618-20q-165 0-298 85T137 311l275 51q39-78 87-110.5T618 219q53 0 97.5 16.5T790 278t52.5 62 35 71 20.5 73.5 10.5 65.5 2.5 50q-24-68-116.5-116T588 436q-77 0-143.5 19t-114 50-85 73-61 86-39.5 90.5-22 85-6 71.5zm270 15q0-112 64.5-195.5T633 647q118 0 183 83t65 196q0 70-26 131.5t-83.5 103T635 1202q-118 0-183-82.5T387 926z"/><glyph unicode=":" horiz-adv-x="528" d="M109 0v305h309V0H109zm0 731v305h309V731H109z"/><glyph unicode=";" horiz-adv-x="528" d="M106 729v307h312V729H106zm3-729v305h309V0L244-330H109L248 0H109z"/><glyph unicode="&lt;" horiz-adv-x="1271" d="M117 389v254l1036 393V780L471 518l682-264V0z"/><glyph unicode="=" horiz-adv-x="1271" d="M117 176v256h1036V176H117zm0 445v256h1036V621H117z"/><glyph unicode="&gt;" horiz-adv-x="1271" d="M117 0v254l682 264-682 262v256l1036-393V389z"/><glyph unicode="?" horiz-adv-x="1085" d="M70 1016q11 213 129 328.5T532 1460q226 0 354-113t128-313q0-66-19-120.5t-56.5-98-74.5-73-92-64.5q-95-61-102-143v-97H393v140q0 129 148 229 104 73 141 120.5t37 106.5q0 85-49 137t-138 52q-85 0-132.5-74T352 965zM377 0v305h311V0H377z"/><glyph unicode="@" horiz-adv-x="2017" d="M92 504q0 168 50 319t139 266.5 207.5 200T748 1418t290 44q107 0 212.5-24t205-71.5 184.5-123 149-171.5 100-225.5 36-277.5q0-131-23-235t-59.5-169T1756 57 1655.5-3 1552-20q-92 0-157.5 48T1303 152q-47-81-135-126.5T975-20q-202 0-333.5 145.5T510 518q0 122 38.5 225t103 171 148 105.5T975 1057q97 0 178.5-38.5T1276 920l14 116h183V334q0-172 104-172 69 0 122.5 102t53.5 305q0 169-59 311.5t-156.5 235-221.5 144-257 51.5q-157 0-300.5-58T505 1092.5t-175.5-256T264 504q0-155 58.5-296.5T482-40t246.5-169 309.5-63q114 0 250.5 46T1540-111l74-129q-132-87-285.5-136.5T1028-426q-184 0-354.5 68t-299 188T169 125.5 92 504zm635 14q0-170 78-256t201-86q121 0 190.5 89.5T1266 518q0 160-69.5 251T1006 860q-122 0-200.5-88T727 518z"/><glyph unicode="A" horiz-adv-x="1388" d="m37 0 524 1442h268L1352 0h-297l-94 272H428L338 0H37zm469 510h377l-187 555z"/><glyph unicode="B" horiz-adv-x="1366" d="M150 0v1442h651q199 0 310.5-111t111.5-305q0-97-56.5-177T1049 750q85-28 156-118t71-208q0-201-119-312.5T827 0H150zm288 238h373q80 0 130 54.5T991 424q0 79-47.5 138T815 621H438V238zm0 620h355q61 2 109 48.5t48 111.5q0 78-44 132t-115 54H438V858z"/><glyph unicode="C" horiz-adv-x="1380" d="M88 721q0 163 41.5 298.5t119.5 234T446.5 1407t268.5 55q104 0 192-25.5t150.5-68.5 111.5-103.5 78.5-125.5 48.5-140l-280-55q-31 126-108.5 203.5T715 1225q-162 0-247-132t-85-372q0-241 85-372.5T715 217q117 0 194.5 75.5T1016 494l280-52q-17-90-61.5-171T1120 124 945.5 19 715-20q-199 0-342 95.5t-214 261T88 721z"/><glyph unicode="D" horiz-adv-x="1447" d="M150 0v1442h563q151 0 269-52.5t193.5-148.5 114.5-228 39-294q0-337-151.5-528T727 0H150zm288 238h275q151 0 237 125t86 356q0 236-85.5 360.5T713 1204H438V238z"/><glyph unicode="E" horiz-adv-x="1292" d="M150 0v1442h1038v-238H438V858h645V621H438V238h750V0H150z"/><glyph unicode="F" horiz-adv-x="1230" d="M150 0v1442h995v-238H434V858h608V621H434V0H150z"/><glyph unicode="G" horiz-adv-x="1474" d="M88 721q0 179 50 321t139 233 209 139 262 48q235 0 378.5-109t202.5-300q-92-16-276-52-39 110-124 166t-181 56q-363 0-363-502 0-504 363-504 81 0 145 31.5T994.5 332t57 114 19.5 129v27H748v236h595V0h-251l-21 158q-42-65-144-121.5T700-20q-291 0-451.5 201T88 721z"/><glyph unicode="H" horiz-adv-x="1429" d="M150 0v1442h288V858h555v584h285V0H993v621H438V0H150z"/><glyph unicode="I" horiz-adv-x="591" d="M152 0v1442h288V0H152z"/><glyph unicode="J" horiz-adv-x="1032" d="m37 463 287 51q0-150 12-198 20-85 94-97 15-2 31-2 139 0 139 186v1039h287V420q0-78-10.5-140T837 160t-76-96T637.5 3 459-20Q37-20 37 463z"/><glyph unicode="K" horiz-adv-x="1433" d="M150 0v1442h288V877l592 565h367L741 817q464-570 662-817h-328Q903 213 555 639L438 526V0H150z"/><glyph unicode="L" horiz-adv-x="1126" d="M150 0v1442h290V238h645V0H150z"/><glyph unicode="M" horiz-adv-x="1716" d="M150 0v1442h368L858 352l336 1090h371V0h-289v911L993 0H721L438 911V0H150z"/><glyph unicode="N" horiz-adv-x="1454" d="M150 0v1442h278l608-944v944h287V0h-281L438 944V0H150z"/><glyph unicode="O" horiz-adv-x="1433" d="M92 721q0 218 70 383.5T375 1366t342 96q200 0 342.5-96t212-261 69.5-384q0-220-69.5-385t-212-260.5T717-20q-199 0-342 95.5t-213 261T92 721zm297 0q0-243 81.5-373.5T717 217q164 0 245.5 130.5T1044 721q0 242-81.5 373T717 1225q-165 0-246.5-131T389 721z"/><glyph unicode="P" horiz-adv-x="1300" d="M150 0v1442h626q199 0 325-128t126-321q0-195-125.5-321.5T776 545H438V0H150zm288 782h322q70 0 124 62.5T938 993t-54 148.5-124 62.5H438V782z"/><glyph unicode="Q" d="M88 721q0 218 70.5 383.5T372 1366t341 96q201 0 343.5-96t211.5-261 69-384q0-329-151-526l157-154-141-137-162 159Q905-20 713-20q-199 0-341.5 95.5t-213 261T88 721zm297 0q0-243 82-373.5T713 217q79 0 135 33-17 17-76.5 75T694 401l144 138 145-146q61 119 61 328 0 241-83 372.5T713 1225q-164 0-246-131.5T385 721z"/><glyph unicode="R" horiz-adv-x="1363" d="M150 0v1442h626q199 0 325-128t126-321q0-164-97-284T870 557q38-47 201-248.5T1323 0H993q-60 73-209.5 258.5T551 545H438V0H150zm288 782h324q69 0 123.5 62.5T940 993t-54.5 148.5T762 1204H438V782z"/><glyph unicode="S" horiz-adv-x="1335" d="m88 465 270 49q5-42 16.5-81t36-79 59-69.5 89-48.5T680 217q126 0 203.5 55.5T961 424q0 44-17 77.5t-41.5 53-65 33.5-74.5 19.5-83 10.5q-83 10-152.5 25T381 689.5 251 764t-87.5 112.5T129 1034q0 87 32 159.5t85.5 121.5 124.5 83 146 49 153 15q141 0 258.5-49.5t197-150T1223 1024l-271-45q-36 246-282 246-67 0-122.5-18t-94.5-62.5-39-110.5q0-137 284-174 60-8 106.5-16.5t106-24.5 104-37 90-54.5 74.5-75 47.5-100T1245 424q0-197-153.5-320.5T680-20Q556-20 455 9.5T288.5 87 178 199.5t-65.5 130T88 465z"/><glyph unicode="T" horiz-adv-x="1126" d="M57 1206v236h1014v-236H709V0H422v1206H57z"/><glyph unicode="U" d="M150 492v950h288V492q0-120 78.5-197.5T715 217q119 0 196.5 77.5T989 492v950h287V492q0-122-45-221t-122.5-161.5-178.5-96T715-20 499.5 13.5t-180 96-124 161.5T150 492z"/><glyph unicode="V" horiz-adv-x="1394" d="M47 1442h299L696 414l353 1028h305L831 0H561z"/><glyph unicode="W" horiz-adv-x="1916" d="M45 1442h299q70-428 168-996 36 148 120 482t128 514h358l250-1002 211 1002h295L1548 0h-334L938 1034 666 0H328z"/><glyph unicode="X" horiz-adv-x="1314" d="M55 0q391 631 447 723-82 128-231.5 371T55 1442h322l280-469q19 31 283 469h320q-53-87-207-335T817 723Q1200 99 1262 0H940L657 469q-28-47-87-147.5T465.5 145 377 0H55z"/><glyph unicode="Y" horiz-adv-x="1288" d="M31 1442h315l287-484q33 56 91 153t106 178 90 153h335L776 692V0H489v692z"/><glyph unicode="Z" horiz-adv-x="1220" d="M88 0v238l713 966H106v238h1027v-238L422 238h713V0H88z"/><glyph unicode="[" horiz-adv-x="667" d="M80-385v1827h512v-150H295V-233h297v-152H80z"/><glyph unicode="\" horiz-adv-x="847" d="M14 1442h258L803 0H545z"/><glyph unicode="]" horiz-adv-x="667" d="M80-233h299v1525H80v150h512V-385H80v152z"/><glyph unicode="^" horiz-adv-x="1021" d="m68 659 344 783h194l342-783H727l-217 515-219-515H68z"/><glyph unicode="_" horiz-adv-x="1271" d="M117 0v254h1036V0H117z"/><glyph unicode="`" horiz-adv-x="509" d="M61 1442h252l136-297H254z"/><glyph unicode="a" horiz-adv-x="1187" d="M90 317q0 131 122.5 219.5T547 625h209v49q0 59-44 106t-143 47q-60 0-112.5-44T397 674l-274 53q24 163 148 246.5t298 83.5q461 0 461-383V285q0-72 47-72 35 0 51 8V4q-82-20-157-20-73 0-121 36t-68 95q-39-49-123-90.5T475-20q-177 0-281 92.5T90 317zm279 0q0-108 155-108 102 0 167 55.5T756 393v33H541q-95 0-133.5-31.5T369 317z"/><glyph unicode="b" horiz-adv-x="1243" d="M150 0v1442h278V930q34 51 118 89t163 38q208 0 328-148t120-391q0-237-126-387.5T709-20q-88 0-169 41t-112 92L408 0H150zm278 518q0-154 60-232.5T653 207q103 0 165.5 79T881 518q0 151-62.5 230T653 827q-104 0-164.5-78T428 518z"/><glyph unicode="c" horiz-adv-x="1155" d="M88 518q0 241 137.5 390T592 1057q190 0 308-95.5T1057 711q-156-31-273-52-22 84-74.5 126T594 827q-112 0-170.5-83.5T365 518q0-144 58.5-228.5T594 205q71 0 123.5 43.5T793 375l272-51q-33-148-157-246T592-20q-229 0-366.5 147.5T88 518z"/><glyph unicode="d" horiz-adv-x="1241" d="M88 518q0 243 121 391t330 148q79 0 161.5-38T817 930v512h279V0H840l-23 113q-31-51-111.5-92T539-20q-197 0-324 150.5T88 518zm279 0q0-153 62-232t165-79q104 0 163.5 78.5T817 518q0 153-59.5 231T594 827q-103 0-165-79t-62-230z"/><glyph unicode="e" horiz-adv-x="1171" d="M88 518q0 240 134 389.5T575 1057q225 0 353.5-140.5T1057 541q0-64-6-101H367q3-99 69.5-167T596 205q167 0 238 166l251-80q-24-62-63-114.5t-97-98-142.5-72T596-20q-222 0-365 150T88 518zm295 121h383q-6 88-55.5 138T575 827q-80 0-133-55t-59-133z"/><glyph unicode="f" horiz-adv-x="745" d="M41 838v198h172v117q0 289 303 289h178v-230H555q-68 0-68-84v-92h175V838H487V0H213v838H41z"/><glyph unicode="g" horiz-adv-x="1241" d="M88 518q0 238 129.5 388.5T551 1057q84 0 161-40.5T815 926l12 57 11 53h256V49q0-149-67.5-258.5t-180-163T592-426q-175 0-299.5 69.5T119-156l270 78q19-58 77.5-89.5T592-199q223 0 223 248v47q-28-50-108.5-83T551-20q-198 0-330.5 151T88 518zm277 0q0-155 62-234t167-79q102 0 161.5 79T815 518q0 152-59.5 230.5T594 827q-105 0-167-78.5T365 518z"/><glyph unicode="h" horiz-adv-x="1208" d="M150 0v1442h276V944q34 45 104 79t148 34q219 0 319.5-118.5T1098 569V0H821v569q0 138-47.5 199T623 829q-197 0-197-260V0H150z"/><glyph unicode="i" horiz-adv-x="593" d="M154 1180v262h286v-262H154zM160 0v1036h274V0H160z"/><glyph unicode="j" horiz-adv-x="600" d="M-39-178H98q68 0 68 84v1130h274V-119q0-140-71.5-213.5T139-406H-39v228zm199 1358v262h286v-262H160z"/><glyph unicode="k" horiz-adv-x="1226" d="M150 0v1442h278V670l381 366h369L721 596 1202 0H872L535 416 428 315V0H150z"/><glyph unicode="l" horiz-adv-x="579" d="M152 0v1442h276V0H152z"/><glyph unicode="m" horiz-adv-x="1785" d="M150 0v1036h256l20-100q26 42 110 81.5t162 39.5q108 0 175-43t100-101q37 57 131 100.5t178 43.5q109 0 183-31t116.5-95 60-149.5T1659 575V0h-273v575q0 254-172 254-66 0-105.5-35t-53-88-13.5-131V0H768v575q0 57-7.5 99.5t-26 78.5-53.5 55-85 19q-170 0-170-252V0H150z"/><glyph unicode="n" horiz-adv-x="1222" d="M150 0v1036h256l20-100q24 46 100 83.5t152 37.5q226 0 323-118t97-372V0H821v567q0 137-49 198.5T623 827q-197 0-197-260V0H150z"/><glyph unicode="o" horiz-adv-x="1171" d="M92 518q0 242 133 390.5T586 1057q226 0 359.5-149T1079 518 945.5 128.5 586-20q-227 0-360.5 148.5T92 518zm268 0q0-153 61-232t165-79q103 0 165 79t62 232q0 151-62 230t-165 79q-104 0-165-78.5T360 518z"/><glyph unicode="p" horiz-adv-x="1251" d="M150-406v1442h258l20-112q32 50 113 91.5t168 41.5q195 0 320.5-151T1155 518q0-243-119-390.5T709-20q-80 0-163.5 36.5T428 104v-510H150zm276 924q0-154 60-232.5T651 207q102 0 164 79t62 232q0 151-62 230t-164 79q-104 0-164.5-78T426 518z"/><glyph unicode="q" horiz-adv-x="1255" d="M98 518q0 237 126.5 388T547 1057q86 0 167-41.5T827 924l21 112h256V-406H827v510q-34-51-117-87.5T547-20q-209 0-329 147.5T98 518zm279 0q0-153 62-232t165-79q105 0 165 78.5T829 518q0 153-60.5 231T604 827q-103 0-165-79t-62-230z"/><glyph unicode="r" horiz-adv-x="808" d="M150 0v1036h256l20-100q37 57 86 89t131 32q41 0 111-4V823H608q-93 0-137.5-67T426 553V0H150z"/><glyph unicode="s" horiz-adv-x="1089" d="m88 295 270 51q42-141 193-141 20 0 45 4t58 15 55 36.5 22 61.5q0 48-47 68.5T545 422q-150 19-201 33-169 45-210 175-15 47-15 105 0 136 121.5 229t294.5 93q85 0 157.5-16.5T827 988t104.5-97.5T991 745l-268-51q-14 74-59.5 103.5T541 827q-63 0-104.5-27.5T395 735q0-63 127-80 52-7 83-11.5t78-13.5 76-17.5 67-23 61-31 48.5-40 39-51.5 22.5-65 9-80q0-84-36-150.5T871 64 727 1.5 551-20q-187 0-309 82.5T88 295z"/><glyph unicode="t" horiz-adv-x="804" d="M66 838v198h172v289h276v-289h205V838H514V295q0-80 47-80h125V0L494-14q-14-1-28-1-109-1-165 71-63 80-63 220v562H66z"/><glyph unicode="u" horiz-adv-x="1216" d="M125 469v567h274V469q0-136 50-198t151-62q195 0 195 260v567h276V0H817l-22 100q-25-45-102.5-82.5T528-20Q312-20 218.5 97.5T125 469z"/><glyph unicode="v" horiz-adv-x="1138" d="M43 1036h289l239-712 236 712h289L705 0H436z"/><glyph unicode="w" horiz-adv-x="1673" d="M49 1036h289l129-684q30 98 102.5 329T680 1036h293q36-114 109.5-342.5T1192 350q23 114 72.5 342.5T1337 1036h289L1368 0h-321L827 694 612 0H291Q190 426 49 1036z"/><glyph unicode="x" horiz-adv-x="1071" d="m37 0 344 514-344 522h309l191-299q21 32 97 150t97 149h307L694 514 1038 0H723L539 289q-21-35-96.5-151.5T354 0H37z"/><glyph unicode="y" horiz-adv-x="1134" d="M41 1036h287q46-133 127-376.5T567 324q44 131 125 374t113 338h287L702 0h-2L547-406H285L432 0z"/><glyph unicode="z" horiz-adv-x="1050" d="M98 0v227l488 580H119v229h815V807L446 227h508V0H98z"/><glyph unicode="{" horiz-adv-x="765" d="M104 449v155q121 0 121 92v490q0 52 13 95.5t41.5 81 81 58.5 124.5 21h154v-150H504q-32 0-50-21t-18-54V745q0-170-114-221 114-47 114-215v-481q0-32 18.5-53t49.5-21h135v-151H485q-141 0-200.5 68T225-141v501q0 43-31.5 66T104 449z"/><glyph unicode="|" horiz-adv-x="520" d="M152-397v1839h217V-397H152z"/><glyph unicode="}" horiz-adv-x="765" d="M104-246h138q30 0 47.5 21t17.5 53v481q0 176 119 213-119 47-119 223v472q0 33-17.5 54t-47.5 21H104v150h154q72 0 125-21t82-58.5 42-81 13-95.5V696q0-92 119-92V449q-119 0-119-89v-501q0-256-262-256H104v151z"/><glyph unicode="~" horiz-adv-x="1165" d="M102 539q7 7 33.5 37.5t33.5 38 30 32 32.5 31 30 24T295 724t32.5 14 38.5 11.5 40 2.5q46 0 103-22t101.5-48 93-48 80.5-22q28 0 54.5 22t89.5 91l135-125q-9-10-33.5-38t-33-37-29.5-31.5-31-30.5-29-23.5-33-21.5-33-14-37.5-10.5T764 391q-47 0-104.5 21.5t-101 48-92.5 48-81 21.5q-28 0-54-21.5T242 418z"/><glyph horiz-adv-x="542"/><glyph unicode="¡" horiz-adv-x="622" d="M156 731v305h309V731H156zM166 0l33 594h221L455 0v-406H166V0z"/><glyph unicode="¢" horiz-adv-x="1155" d="M88 518q0 216 110.5 358.5T500 1047v190h168v-186q157-19 255-111t134-229q-156-31-273-52-35 115-116 146V223q95 38 123 152l274-51q-31-133-134.5-227.5T668-14v-185H500v187Q309 16 198.5 158.5T88 518zm274 0q0-107 36-182.5T500 231v570q-66-29-102-103.5T362 518z"/><glyph unicode="£" horiz-adv-x="1280" d="M63 0v238h68q111 0 111 122v265H63v239h179v164q0 189 112 310.5T666 1460q96 0 174-24t138-73 93-131 33-192l-287-47q0 132-37.5 181T666 1223q-138 0-138-195V864h220V625H528V360q0-82-34-122h323v264h287V0H63z"/><glyph unicode="¤" horiz-adv-x="1140" d="m0 70 147 145Q78 344 78 518q0 172 69 301L0 967l117 116 137-137q127 111 319 111 186 0 316-111l141 137 117-116-152-148q72-134 72-301 0-171-72-303l152-145-117-115L891 86Q760-20 573-20 381-20 254 88L117-45zm342 448q0-154 62.5-232.5T573 207q103 0 165.5 78.5T801 518q0 151-62.5 230T573 827q-105 0-168-78.5T342 518z"/><glyph unicode="¥" horiz-adv-x="1259" d="M31 1442h315l287-484 287 484h315L870 846h211V651H776V549h305V354H776V0H487v354H186v195h301v102H186v195h207z"/><glyph unicode="¦" horiz-adv-x="520" d="M152-408v844h217v-844H152zm0 1006v844h217V598H152z"/><glyph unicode="§" horiz-adv-x="1247" d="M98 578q0 101 47 174t125 137q-51 90-51 186 0 99 49 186.5t143 143 212 55.5q55 0 108.5-10.5t110.5-39 100-71.5 72.5-114 32.5-162l-265-45q0 205-145 205-65 0-98-47.5T506 1075q0-75 48-129.5T694 870q65-16 113.5-32T912 797t95.5-58 73.5-77 51-104 17-134q0-178-166-291 47-81 47-184 0-73-29-141t-81-120.5-129.5-84T623-428q-84 0-156 23t-131.5 71-96 131.5T199-6l268 45q0-124 36.5-178T614-193q60 0 93.5 46T741-51q0 90-47 140.5T541 170q-173 47-245 84-160 81-190 238-8 40-8 86zm279 14q0-34 18.5-63.5T437 481t63.5-36 65.5-26 67-20q10-3 14-4 110-30 174-69 49 49 49 112 0 25-10.5 48t-24 39.5-40 33.5-45 27-52 22.5-48 17.5-46.5 15q-115 28-178 72-49-53-49-121z"/><glyph unicode="¨" horiz-adv-x="942" d="M117 1180v262h254v-262H117zm456 0v262h254v-262H573z"/><glyph unicode="©" horiz-adv-x="1593" d="M47 721q0 151 59.5 288.5t160 236.5 240 157.5T799 1462q205 0 378-99t274-269.5T1552 721t-101-372.5T1177 79 799-20q-153 0-292.5 58.5T266.5 196t-160 236.5T47 721zm105 0q0-173 87-320.5t235.5-233T797 82t323 85.5 236.5 233T1444 721q0 172-87.5 319T1120 1272.5 797 1358t-322.5-85.5T239 1040t-87-319zm247 2q0 209 105.5 337T799 1188q158 0 250-83t127-220l-195-35q-18 80-65 131t-117 51q-96 0-147.5-81T600 723q0-150 51.5-232.5T799 408q68 0 115.5 52.5T981 592l195-35q-14-64-43-117.5t-74-96.5-111.5-67T799 252q-189 0-294.5 130T399 723z"/><glyph unicode="ª" horiz-adv-x="722" d="M74 1053q0 72 67.5 122t184.5 50h114v35q0 29-25 51t-75 22q-30 0-62.5-23.5T242 1249l-152 31q13 91 82 136.5t168 45.5q120 0 188-59t68-168v-201q0-39 27-39 5 0 15 1t11 1V879q-49-13-88-13-40 0-67.5 20.5T457 940q-22-29-68.5-52.5T287 864q-99 0-156 51.5T74 1053zm153 0q0-25 19-43.5t61-18.5q58 0 95.5 31.5T440 1094v20H334q-107 0-107-61z"/><glyph unicode="«" horiz-adv-x="1136" d="m74 516 252 315h254L324 516l239-291H307zm399 0q43 52 127 157.5T727 831h254L723 516q128-157 242-291H709q-11 14-100 124T473 516z"/><glyph unicode="¬" horiz-adv-x="1255" d="M59 393v254h1022V0H797v393H59z"/><glyph unicode="­" horiz-adv-x="874" d="M70 393v256h731V393H70z"/><glyph unicode="®" horiz-adv-x="1593" d="M47 721q0 151 59.5 288.5t160 236.5 240 157.5T799 1462q205 0 378-99t274-269.5T1552 721t-101-372.5T1177 79 799-20q-153 0-292.5 58.5T266.5 196t-160 236.5T47 721zm105 0q0-173 87-320.5t235.5-233T797 82t323 85.5 236.5 233T1444 721q0 172-87.5 319T1120 1272.5 797 1358t-322.5-85.5T239 1040t-87-319zm288-455v910h400q128 0 208-81t80-204q0-117-69.5-193.5T905 621q250-311 287-355H965L688 606h-51V266H440zm197 496h186q46 0 79.5 40t33.5 89-33.5 89-79.5 40H637V762z"/><glyph unicode="¯" horiz-adv-x="854" d="M61 1145v178h732v-178H61z"/><glyph unicode="°" horiz-adv-x="825" d="M72 1124q0 140 100 238t242 98q141 0 240.5-98.5T754 1124q0-140-99.5-239T414 786q-142 0-242 99T72 1124zm164 0q0-73 52-124.5T414 948t126 51.5 52 124.5q0 72-52 123t-126 51-126-51-52-123z"/><glyph unicode="±" horiz-adv-x="1273" d="M117 2v256h1036V2H117zm2 797v256h377v389h286v-389h373V799H782V408H496v391H119z"/><glyph unicode="²" horiz-adv-x="749" d="M78 643v148l301 274q80 75 80 139 0 40-26 70.5t-71 30.5q-35 0-63-43t-27-113l-186 31q0 130 81.5 203t194.5 73q124 0 206.5-73t82.5-179q0-77-46-148t-99-114L324 791h346V643H78z"/><glyph unicode="³" horiz-adv-x="798" d="m94 887 187 33q0-69 30-105.5t76-36.5q42 0 71 26.5t29 69.5q0 44-29.5 71.5T387 973H283v147h104q36 0 62 25.5t26 64.5q0 36-26 65.5t-62 29.5q-35 0-59.5-33.5T303 1180l-188 30q0 107 79.5 176.5T387 1456q115 0 197-73t82-173q0-47-25.5-89t-65.5-70q46-26 76.5-74.5T682 874q0-110-85-176.5T387 631q-130 0-211.5 68.5T94 887z"/><glyph unicode="´" horiz-adv-x="509" d="m61 1145 136 297h252l-191-297H61z"/><glyph unicode="µ" horiz-adv-x="1286" d="M150-406v1442h274V449q0-38 12-62 10-93 64.5-136.5T639 207q93 0 153 66.5T852 467v569h274V270q2-32 13.5-44.5T1180 213q40 5 43 8V4q-82-20-156-20-133 0-186 112-49-56-103-86T641-20q-81 0-136 33t-81 77v-496H150z"/><glyph unicode="¶" d="M35 993q0 192 130 320.5T496 1442h708v-195h-94V-406H885v1653h-97V-406H561v951h-65q-202 0-331.5 127T35 993z"/><glyph unicode="·" horiz-adv-x="528" d="M109 580v305h309V580H109z"/><glyph unicode="¸" horiz-adv-x="575" d="m61-248 121 21q0-39 27-59.5t65-20.5q33 0 56.5 22t23.5 54q0 38-24.5 62T274-145q-26 0-55-23l-69 70L297 37h115V14l-80-73q63-8 111.5-54T492-231q0-85-57-140t-161-55q-95 0-153 52T61-248z"/><glyph unicode="¹" horiz-adv-x="651" d="M92 1042v203l191 197h172V643H268v557z"/><glyph unicode="º" horiz-adv-x="759" d="M70 1165q0 134 76 216.5t206 82.5q127 0 203-83.5t76-215.5q0-135-75.5-217T352 866q-131 0-206.5 82T70 1165zm174 0q0-72 30.5-118t77.5-46q49 0 78 45.5t29 118.5q0 70-29 116t-78 46q-47 0-77.5-46.5T244 1165z"/><glyph unicode="»" horiz-adv-x="1136" d="M129 831h254q43-52 127-157.5T637 516q-47-57-136-167T401 225H145q114 134 242 291zm401 0h254l252-315-233-291H547l239 291z"/><glyph unicode="¼" horiz-adv-x="1673" d="M102 1042v203l189 197h174V643H279v557zM266 8l887 1514 156-90L426-80zm576 162v133l383 496h174V319h172V170h-172V0h-187v170H842zm217 149h153v203z"/><glyph unicode="½" horiz-adv-x="1605" d="M102 1042v203l189 197h174V643H279v557zM238 8l884 1514 158-90L395-80zm673-8v147l301 275q80 75 80 139 0 40-25.5 70.5T1196 662q-35 0-63-43t-27-113l-186 31q0 130 81.5 203t194.5 73q124 0 206.5-73t82.5-179q0-77-46.5-148T1339 299l-182-152h346V0H911z"/><glyph unicode="¾" horiz-adv-x="1751" d="m102 883 187 32q0-69 30-105t76-36q44 0 73.5 26.5T498 870q0 44-30.5 71.5T395 969H291v147h104q37 0 62.5 25.5T483 1206q0 36-26 65t-62 29q-34 0-59-33.5t-25-90.5l-188 30q0 107 79.5 176.5T395 1452q116 0 197.5-72.5T674 1206q0-47-25.5-89t-64.5-70q46-26 76-74.5T690 870q0-110-85-176.5T395 627q-130 0-211.5 68.5T102 883zM371 8l886 1514 160-90L530-80zm549 162v133l383 496h176V319h170V170h-170V0h-187v170H920zm217 149h155v203z"/><glyph unicode="¿" horiz-adv-x="1085" d="M70 2q0 107 48.5 179.5T256 317q9 7 42 28.5t53 37.5 41 48.5 24 70.5v-2 96h274V457q0-126-147-228-102-70-140-120T365 2q0-86 49.5-137T553-186q84 0 131 73.5T731 70l283-52q-11-211-129.5-326.5T553-424q-227 0-355 113T70 2zm327 727v307h310V729H397z"/><glyph unicode="À" horiz-adv-x="1388" d="m37 0 524 1442h268L1352 0h-297l-94 272H428L338 0H37zm362 1847h252l135-297H592zM506 510h377l-187 555z"/><glyph unicode="Á" horiz-adv-x="1388" d="m37 0 524 1442h268L1352 0h-297l-94 272H428L338 0H37zm469 510h377l-187 555zm90 1040 135 297h252l-190-297H596z"/><glyph unicode="Â" horiz-adv-x="1388" d="m37 0 524 1442h268L1352 0h-297l-94 272H428L338 0H37zm366 1550 136 297h313l135-297H793l-99 158-94-158H403zM506 510h377l-187 555z"/><glyph unicode="Ã" horiz-adv-x="1388" d="m37 0 524 1442h268L1352 0h-297l-94 272H428L338 0H37zm305 1550v23q0 104 55.5 178t157.5 74q54 0 110-23.5t99-47 67-23.5q35 0 59.5 21.5T915 1825h132v-25q0-101-57.5-175.5T831 1550q-57 0-114.5 23t-100 46-61.5 23q-34 0-58-22t-24-70H342zM506 510h377l-187 555z"/><glyph unicode="Ä" horiz-adv-x="1388" d="m37 0 524 1442h268L1352 0h-297l-94 272H428L338 0H37zm299 1548v262h254v-262H336zM506 510h377l-187 555zm287 1038v262h254v-262H793z"/><glyph unicode="Å" horiz-adv-x="1388" d="m37 0 524 1442h268L1352 0h-297l-94 272H428L338 0H37zm457 1743q0 78 59 135t139 57q83 0 141-56.5t58-135.5q0-83-57.5-138T692 1550q-81 0-139.5 55.5T494 1743zm12-1233h377l-187 555zm110 1233q0-32 22.5-54t53.5-22q32 0 54 22t22 54q0 31-22 52.5t-54 21.5q-31 0-53.5-21.5T616 1743z"/><glyph unicode="Æ" horiz-adv-x="2121" d="m37 0 790 1442h1192v-240h-737V858h664V621h-664V238h737V0H993v270H481L334 0H37zm575 510h381v692z"/><glyph unicode="Ç" horiz-adv-x="1380" d="M88 721q0 163 41.5 298.5t119.5 234T446.5 1407t268.5 55q104 0 192-25.5t150.5-68.5 111.5-103.5 78.5-125.5 48.5-140l-280-55q-31 126-108.5 203.5T715 1225q-162 0-247-132t-85-372q0-241 85-372.5T715 217q117 0 194.5 75.5T1016 494l280-52q-17-90-61.5-171T1120 124 945.5 19 715-20q-199 0-342 95.5t-214 261T88 721zm391-969 121 21q0-39 27-59.5t65-20.5q33 0 56.5 22t23.5 54q0 38-24.5 62T692-145q-26 0-55-23l-70 70L715 37h114V14l-79-73q62-8 110.5-54T909-231q0-85-57-140t-160-55q-95 0-153 52t-60 126z"/><glyph unicode="È" horiz-adv-x="1292" d="M150 0v1442h1038v-238H438V858h645V621H438V238h750V0H150zm239 1847h252l135-297H582z"/><glyph unicode="É" horiz-adv-x="1292" d="M150 0v1442h1038v-238H438V858h645V621H438V238h750V0H150zm403 1550 135 297h252l-190-297H553z"/><glyph unicode="Ê" horiz-adv-x="1292" d="M150 0v1442h1038v-238H438V858h645V621H438V238h750V0H150zm229 1550 135 297h313l136-297H768l-98 158-95-158H379z"/><glyph unicode="Ë" horiz-adv-x="1292" d="M150 0v1442h1038v-238H438V858h645V621H438V238h750V0H150zm157 1548v262h254v-262H307zm457 0v262h254v-262H764z"/><glyph unicode="Ì" horiz-adv-x="583" d="M-2 1847h252l135-297H190zM145 0v1442h289V0H145z"/><glyph unicode="Í" horiz-adv-x="604" d="M152 0v1442h288V0H152zm32 1550 135 297h252l-190-297H184z"/><glyph unicode="Î" horiz-adv-x="591" d="m4 1550 135 297h314l135-297H393l-98 158-94-158H4zM152 0v1442h288V0H152z"/><glyph unicode="Ï" horiz-adv-x="591" d="M-59 1548v262h254v-262H-59zM152 0v1442h288V0H152zm245 1548v262h254v-262H397z"/><glyph unicode="Ð" horiz-adv-x="1513" d="M31 659v148h223v635h547q201-2 342-95t208.5-254 67.5-378q0-220-68-379T1143 88.5 801 0H254v659H31zm510-421h260q151 0 237 123.5t86 353.5q0 236-86 362.5T801 1204H541V807h219V659H541V238z"/><glyph unicode="Ñ" horiz-adv-x="1501" d="M162 0v1442h278l609-944v944h286V0h-280L451 944V0H162zm244 1550v23q0 104 55 178t157 74q54 0 110-23.5t99.5-47T895 1731q35 0 59.5 21.5T979 1825h131v-25q0-101-57-175.5T895 1550q-57 0-115 23t-100.5 46-61.5 23q-34 0-57.5-22t-23.5-70H406z"/><glyph unicode="Ò" horiz-adv-x="1427" d="M90 721q0 218 70 383.5T373 1366t342 96q200 0 342.5-96t212-261 69.5-384q0-220-69.5-385t-212-260.5T715-20q-199 0-342 95.5t-213 261T90 721zm297 0q0-243 81.5-373.5T715 217q164 0 245.5 130.5T1042 721q0 242-81.5 373T715 1225q-165 0-246.5-131T387 721zm41 1126h252l135-297H621z"/><glyph unicode="Ó" horiz-adv-x="1427" d="M90 721q0 218 70 383.5T373 1366t342 96q200 0 342.5-96t212-261 69.5-384q0-220-69.5-385t-212-260.5T715-20q-199 0-342 95.5t-213 261T90 721zm297 0q0-243 81.5-373.5T715 217q164 0 245.5 130.5T1042 721q0 242-81.5 373T715 1225q-165 0-246.5-131T387 721zm234 829 135 297h252l-191-297H621z"/><glyph unicode="Ô" horiz-adv-x="1427" d="M90 721q0 218 70 383.5T373 1366t342 96q200 0 342.5-96t212-261 69.5-384q0-220-69.5-385t-212-260.5T715-20q-199 0-342 95.5t-213 261T90 721zm297 0q0-243 81.5-373.5T715 217q164 0 245.5 130.5T1042 721q0 242-81.5 373T715 1225q-165 0-246.5-131T387 721zm29 829 135 297h313l135-297H805l-98 158-95-158H416z"/><glyph unicode="Õ" horiz-adv-x="1427" d="M90 721q0 218 70 383.5T373 1366t342 96q200 0 342.5-96t212-261 69.5-384q0-220-69.5-385t-212-260.5T715-20q-199 0-342 95.5t-213 261T90 721zm268 829v23q0 104 55.5 178t157.5 74q54 0 110-23.5t99.5-47T848 1731q35 0 59.5 21.5T932 1825h131v-25q0-101-57-175.5T848 1550q-57 0-115 23t-100.5 46-61.5 23q-34 0-58-22t-24-70H358zm29-829q0-243 81.5-373.5T715 217q164 0 245.5 130.5T1042 721q0 242-81.5 373T715 1225q-165 0-246.5-131T387 721z"/><glyph unicode="Ö" horiz-adv-x="1427" d="M90 721q0 218 70 383.5T373 1366t342 96q200 0 342.5-96t212-261 69.5-384q0-220-69.5-385t-212-260.5T715-20q-199 0-342 95.5t-213 261T90 721zm266 827v262h254v-262H356zm31-827q0-243 81.5-373.5T715 217q164 0 245.5 130.5T1042 721q0 242-81.5 373T715 1225q-165 0-246.5-131T387 721zm426 827v262h254v-262H813z"/><glyph unicode="×" horiz-adv-x="1183" d="m55 168 357 352L61 866l187 185 346-346 350 348 182-185-352-346 354-352L944-16 592 340 238-16z"/><glyph unicode="Ø" horiz-adv-x="1445" d="M100 721q0 218 70 383.5T383 1366t342 96q169 0 303-73l86 147 117-70q-49-90-90-157 102-99 155.5-250t53.5-338q0-219-69.5-384.5T1068 75.5 725-20q-175 0-309 73L330-96 207-23l98 158q-101 98-153 248.5T100 721zm297 0q0-204 58-326l446 774q-73 54-176 54-165 0-246.5-130T397 721zm146-449q70-55 182-55 166 0 249 131t83 373q0 207-64 332-76-130-225-390.5T543 272z"/><glyph unicode="Ù" d="M150 492v950h288V492q0-120 78.5-197.5T715 217q119 0 196.5 77.5T989 492v950h287V492q0-122-45-221t-122.5-161.5-178.5-96T715-20 499.5 13.5t-180 96-124 161.5T150 492zm274 1355h252l135-297H616z"/><glyph unicode="Ú" d="M150 492v950h288V492q0-120 78.5-197.5T715 217q119 0 196.5 77.5T989 492v950h287V492q0-122-45-221t-122.5-161.5-178.5-96T715-20 499.5 13.5t-180 96-124 161.5T150 492zm471 1058 135 297h252l-191-297H621z"/><glyph unicode="Û" d="M150 492v950h288V492q0-120 78.5-197.5T715 217q119 0 196.5 77.5T989 492v950h287V492q0-122-45-221t-122.5-161.5-178.5-96T715-20 499.5 13.5t-180 96-124 161.5T150 492zm268 1058 135 297h313l135-297H807l-98 158-95-158H418z"/><glyph unicode="Ü" d="M150 492v950h288V492q0-120 78.5-197.5T715 217q119 0 196.5 77.5T989 492v950h287V492q0-122-45-221t-122.5-161.5-178.5-96T715-20 499.5 13.5t-180 96-124 161.5T150 492zm204 1056v262h254v-262H354zm457 0v262h254v-262H811z"/><glyph unicode="Ý" horiz-adv-x="1300" d="M37 1442h315l287-484q33 56 91 153t106 178 90 153h336L782 692V0H496v692zm524 108 135 297h252l-190-297H561z"/><glyph unicode="Þ" horiz-adv-x="1216" d="M88 0v1442h289v-275h340q198 0 323-127t125-321q0-195-125-322T717 270H377V0H88zm289 510h340q64 0 112 65t48 144q0 80-48 145.5T717 930H377V510z"/><glyph unicode="ß" horiz-adv-x="1374" d="M152 0v958q0 243 145 373.5T692 1462q124 0 220.5-33t151.5-85.5 82.5-112T1174 1112q0-66-18.5-116.5t-48-79-65-49-71-33-65-24.5-48-29-18.5-42q0-64 114-77 78-11 141.5-34t116-62.5 82-101.5 29.5-142q0-145-108-243.5T938-20q-357 0-418 323l254 51q15-147 150-147 25 0 53.5 8t57 36 28.5 71q0 53-41.5 82T922 440q-62 9-108 19.5T716.5 492t-84 52.5-54 80.5T557 739q0 195 266 275 39 12 60.5 38t21.5 60q0 57-59 85t-154 28q-124 0-191-71t-67-196V0H152z"/><glyph unicode="à" horiz-adv-x="1187" d="M90 317q0 131 122.5 219.5T547 625h209v49q0 59-44 106t-143 47q-60 0-112.5-44T397 674l-274 53q24 163 148 246.5t298 83.5q461 0 461-383V285q0-72 47-72 35 0 51 8V4q-82-20-157-20-73 0-121 36t-68 95q-39-49-123-90.5T475-20q-177 0-281 92.5T90 317zm193 1125h252l135-297H475zm86-1125q0-108 155-108 102 0 167 55.5T756 393v33H541q-95 0-133.5-31.5T369 317z"/><glyph unicode="á" horiz-adv-x="1187" d="M90 317q0 131 122.5 219.5T547 625h209v49q0 59-44 106t-143 47q-60 0-112.5-44T397 674l-274 53q24 163 148 246.5t298 83.5q461 0 461-383V285q0-72 47-72 35 0 51 8V4q-82-20-157-20-73 0-121 36t-68 95q-39-49-123-90.5T475-20q-177 0-281 92.5T90 317zm279 0q0-108 155-108 102 0 167 55.5T756 393v33H541q-95 0-133.5-31.5T369 317zm108 828 135 297h252l-190-297H477z"/><glyph unicode="â" horiz-adv-x="1187" d="M90 317q0 131 122.5 219.5T547 625h209v49q0 59-44 106t-143 47q-60 0-112.5-44T397 674l-274 53q24 163 148 246.5t298 83.5q461 0 461-383V285q0-72 47-72 35 0 51 8V4q-82-20-157-20-73 0-121 36t-68 95q-39-49-123-90.5T475-20q-177 0-281 92.5T90 317zm201 828 135 297h313l135-297H680l-98 158-95-158H291zm78-828q0-108 155-108 102 0 167 55.5T756 393v33H541q-95 0-133.5-31.5T369 317z"/><glyph unicode="ã" horiz-adv-x="1187" d="M90 317q0 131 122.5 219.5T547 625h209v49q0 59-44 106t-143 47q-60 0-112.5-44T397 674l-274 53q24 163 148 246.5t298 83.5q461 0 461-383V285q0-72 47-72 35 0 51 8V4q-82-20-157-20-73 0-121 36t-68 95q-39-49-123-90.5T475-20q-177 0-281 92.5T90 317zm135 828v22q0 104 55.5 178t157.5 74q54 0 110-23.5t99.5-47T715 1325q35 0 59.5 21.5T799 1419h131v-24q0-101-57-175.5T715 1145q-57 0-115 23t-100.5 46-61.5 23q-34 0-58-22t-24-70H225zm144-828q0-108 155-108 102 0 167 55.5T756 393v33H541q-95 0-133.5-31.5T369 317z"/><glyph unicode="ä" horiz-adv-x="1187" d="M90 317q0 131 122.5 219.5T547 625h209v49q0 59-44 106t-143 47q-60 0-112.5-44T397 674l-274 53q24 163 148 246.5t298 83.5q461 0 461-383V285q0-72 47-72 35 0 51 8V4q-82-20-157-20-73 0-121 36t-68 95q-39-49-123-90.5T475-20q-177 0-281 92.5T90 317zm131 863v262h254v-262H221zm148-863q0-108 155-108 102 0 167 55.5T756 393v33H541q-95 0-133.5-31.5T369 317zm309 863v262h254v-262H678z"/><glyph unicode="å" horiz-adv-x="1187" d="M90 317q0 131 122.5 219.5T547 625h209v49q0 59-44 106t-143 47q-60 0-112.5-44T397 674l-274 53q24 163 148 246.5t298 83.5q461 0 461-383V285q0-72 47-72 35 0 51 8V4q-82-20-157-20-73 0-121 36t-68 95q-39-49-123-90.5T475-20q-177 0-281 92.5T90 317zm279 0q0-108 155-108 102 0 167 55.5T756 393v33H541q-95 0-133.5-31.5T369 317zm14 1020q0 78 59.5 135.5T582 1530q83 0 140.5-57t57.5-136q0-83-57-137.5T582 1145q-81 0-140 55t-59 137zm123 0q0-32 22.5-53.5T582 1262q32 0 53.5 21.5T657 1337q0 31-21.5 52.5T582 1411q-31 0-53.5-21.5T506 1337z"/><glyph unicode="æ" horiz-adv-x="1832" d="M88 317q0 135 118 221.5T539 625h211v49q0 26-8.5 50T714 772.5 656.5 812 565 827q-66 0-117.5-40T393 674l-274 53q24 164 147.5 247t298.5 83q234 0 353-125 122 125 321 125 213 0 343-130t136-349q0-85-8-138h-682q3-99 68.5-166t158.5-67q26 0 53.5 6.5t61 23 65.5 51 54 83.5l254-80q-20-49-47.5-92t-70-84-94.5-70-123-47-153-18q-117 0-219 52T877 166Q805 71 712 25.5T489-20q-180 0-290.5 93T88 317zm277 5q0-45 38.5-80T518 207q115 0 173.5 54T750 393v47H537q-51 0-87.5-13T396 394t-24-37.5-7-34.5zm679 303h386q-4 98-54 150t-137 52q-84 0-138-56.5T1044 625z"/><glyph unicode="ç" horiz-adv-x="1155" d="M88 518q0 241 137.5 390T592 1057q190 0 308-95.5T1057 711q-156-31-273-52-22 84-74.5 126T594 827q-112 0-170.5-83.5T365 518q0-144 58.5-228.5T594 205q71 0 123.5 43.5T793 375l272-51q-33-148-157-246T592-20q-229 0-366.5 147.5T88 518zm274-766 121 21q0-39 27-59.5t65-20.5q33 0 56.5 22t23.5 54q0 38-24.5 62T575-145q-26 0-55-23l-69 70L598 37h115V14l-80-73q63-8 111.5-54T793-231q0-85-57-140t-161-55q-95 0-153 52t-60 126z"/><glyph unicode="è" horiz-adv-x="1177" d="M88 518q0 240 134 389.5T575 1057q225 0 353.5-140.5T1057 541q0-64-6-101H367q3-99 69.5-167T596 205q167 0 238 166l251-80q-24-62-63-114.5t-97-98-142.5-72T596-20q-222 0-365 150T88 518zm205 924h252l135-297H485zm90-803h383q-6 88-55.5 138T575 827q-80 0-133-55t-59-133z"/><glyph unicode="é" horiz-adv-x="1177" d="M88 518q0 240 134 389.5T575 1057q225 0 353.5-140.5T1057 541q0-64-6-101H367q3-99 69.5-167T596 205q167 0 238 166l251-80q-24-62-63-114.5t-97-98-142.5-72T596-20q-222 0-365 150T88 518zm295 121h383q-6 88-55.5 138T575 827q-80 0-133-55t-59-133zm109 506 135 297h252l-191-297H492z"/><glyph unicode="ê" horiz-adv-x="1177" d="M88 518q0 240 134 389.5T575 1057q225 0 353.5-140.5T1057 541q0-64-6-101H367q3-99 69.5-167T596 205q167 0 238 166l251-80q-24-62-63-114.5t-97-98-142.5-72T596-20q-222 0-365 150T88 518zm207 627 135 297h313l136-297H684l-98 158-94-158H295zm88-506h383q-6 88-55.5 138T575 827q-80 0-133-55t-59-133z"/><glyph unicode="ë" horiz-adv-x="1177" d="M88 518q0 240 134 389.5T575 1057q225 0 353.5-140.5T1057 541q0-64-6-101H367q3-99 69.5-167T596 205q167 0 238 166l251-80q-24-62-63-114.5t-97-98-142.5-72T596-20q-222 0-365 150T88 518zm141 662v262h254v-262H229zm154-541h383q-6 88-55.5 138T575 827q-80 0-133-55t-59-133zm303 541v262h254v-262H686z"/><glyph unicode="ì" horiz-adv-x="593" d="M8 1442h252l135-297H201zM158 0v1036h276V0H158z"/><glyph unicode="í" horiz-adv-x="593" d="M158 0v1036h276V0H158zm49 1145 135 297h252l-191-297H207z"/><glyph unicode="î" horiz-adv-x="593" d="m6 1145 135 297h314l135-297H395l-98 158-94-158H6zM158 0v1036h276V0H158z"/><glyph unicode="ï" horiz-adv-x="593" d="M-57 1180v262h254v-262H-57zM156 0v1036h276V0H156zm243 1180v262h254v-262H399z"/><glyph unicode="ð" horiz-adv-x="1161" d="M88 518q0 238 126 388.5T537 1057q85 0 139-33-61 106-98 152l-273-78-41 141 217 66q-37 47-123 137l211 55q67-70 121-135l277 80 41-144-222-63q129-179 210-367t81-350q0-240-134-389T584-20q-229 0-362.5 148.5T88 518zm268 0q0-153 61.5-232T584 207q102 0 163.5 79T809 518q0 152-61.5 230.5T584 827q-105 0-166.5-78.5T356 518z"/><glyph unicode="ñ" horiz-adv-x="1222" d="M150 0v1036h256l20-100q24 46 100 83.5t152 37.5q226 0 323-118t97-372V0H821v567q0 137-49 198.5T623 827q-197 0-197-260V0H150zm122 1145v22q0 104 55.5 178t157.5 74q54 0 110-23.5t99.5-47T762 1325q35 0 59.5 21.5T846 1419h131v-24q0-101-57-175.5T762 1145q-57 0-115 23t-100.5 46-61.5 23q-34 0-58-22t-24-70H272z"/><glyph unicode="ò" horiz-adv-x="1161" d="M90 518q0 242 133 390.5T584 1057q226 0 359.5-149T1077 518 943.5 128.5 584-20q-227 0-360.5 148.5T90 518zm205 924h252l135-297H487zm63-924q0-153 61-232t165-79q103 0 165 79t62 232q0 151-62 230t-165 79q-104 0-165-78.5T358 518z"/><glyph unicode="ó" horiz-adv-x="1161" d="M90 518q0 242 133 390.5T584 1057q226 0 359.5-149T1077 518 943.5 128.5 584-20q-227 0-360.5 148.5T90 518zm268 0q0-153 61-232t165-79q103 0 165 79t62 232q0 151-62 230t-165 79q-104 0-165-78.5T358 518zm121 627 135 297h252l-190-297H479z"/><glyph unicode="ô" horiz-adv-x="1161" d="M90 518q0 242 133 390.5T584 1057q226 0 359.5-149T1077 518 943.5 128.5 584-20q-227 0-360.5 148.5T90 518zm197 627 135 297h313l135-297H676l-98 158-95-158H287zm71-627q0-153 61-232t165-79q103 0 165 79t62 232q0 151-62 230t-165 79q-104 0-165-78.5T358 518z"/><glyph unicode="õ" horiz-adv-x="1161" d="M90 518q0 242 133 390.5T584 1057q226 0 359.5-149T1077 518 943.5 128.5 584-20q-227 0-360.5 148.5T90 518zm135 627v22q0 104 55.5 178t157.5 74q54 0 110-23.5t99.5-47T715 1325q35 0 59.5 21.5T799 1419h131v-24q0-101-57-175.5T715 1145q-57 0-115 23t-100.5 46-61.5 23q-34 0-58-22t-24-70H225zm133-627q0-153 61-232t165-79q103 0 165 79t62 232q0 151-62 230t-165 79q-104 0-165-78.5T358 518z"/><glyph unicode="ö" horiz-adv-x="1161" d="M90 518q0 242 133 390.5T584 1057q226 0 359.5-149T1077 518 943.5 128.5 584-20q-227 0-360.5 148.5T90 518zm133 662v262h254v-262H223zm135-662q0-153 61-232t165-79q103 0 165 79t62 232q0 151-62 230t-165 79q-104 0-165-78.5T358 518zm322 662v262h254v-262H680z"/><glyph unicode="÷" horiz-adv-x="1308" d="M133 416v209h1036V416H133zM500 0v305h309V0H500zm0 731v305h309V731H500z"/><glyph unicode="ø" horiz-adv-x="1167" d="M88 518q0 242 133 390.5T582 1057q111 0 211-43 46 82 71 123 16-10 56-33t61-37l-74-127q82-71 126-180t44-242q0-242-134-390T582-20q-106 0-207 38-8-15-32.5-56.5T305-104q-22 14-62 35.5T186-37q6 11 32.5 56.5T258 90Q88 234 88 518zm268 0q0-121 39-192 180 311 277 481-42 20-90 20-103 0-164.5-80.5T356 518zm138-295q36-16 88-16 104 0 165.5 78.5T809 518q0 114-39 187z"/><glyph unicode="ù" horiz-adv-x="1216" d="M125 469v567h274V469q0-136 50-198t151-62q195 0 195 260v567h276V0H817l-22 100q-25-45-102.5-82.5T528-20Q312-20 218.5 97.5T125 469zm188 973h252l135-297H506z"/><glyph unicode="ú" horiz-adv-x="1216" d="M125 469v567h274V469q0-136 50-198t151-62q195 0 195 260v567h276V0H817l-22 100q-25-45-102.5-82.5T528-20Q312-20 218.5 97.5T125 469zm362 676 136 297h251l-190-297H487z"/><glyph unicode="û" horiz-adv-x="1216" d="M125 469v567h274V469q0-136 50-198t151-62q195 0 195 260v567h276V0H817l-22 100q-25-45-102.5-82.5T528-20Q312-20 218.5 97.5T125 469zm186 676 135 297h314l135-297H700l-98 158-94-158H311z"/><glyph unicode="ü" horiz-adv-x="1216" d="M125 469v567h274V469q0-136 50-198t151-62q195 0 195 260v567h276V0H817l-22 100q-25-45-102.5-82.5T528-20Q312-20 218.5 97.5T125 469zm115 711v262h254v-262H240zm456 0v262h254v-262H696z"/><glyph unicode="ý" horiz-adv-x="1134" d="M41 1036h287q46-133 127-376.5T567 324q44 131 125 374t113 338h287L702 0h-2L547-406H285L432 0zm418 109 135 297h252l-191-297H459z"/><glyph unicode="þ" horiz-adv-x="1218" d="M109-406v1848h278V954q37 40 103.5 71.5T629 1057q220 0 345.5-148T1100 518q0-237-132-387.5T629-20q-73 0-140 31T387 84v-490H109zm278 924q0-143 52-226t157-83q110 0 168.5 84T823 518q0 140-58.5 223.5T596 825q-105 0-157-82.5T387 518z"/><glyph unicode="ÿ" horiz-adv-x="1138" d="M45 1036h287q46-133 127-376.5T571 324q44 131 125 374t113 338h287L707 0h-2L551-406H289L436 0zm174 144v262h254v-262H219zm457 0v262h254v-262H676z"/><glyph unicode="Ā" horiz-adv-x="1388" d="m37 0 524 1442h268L1352 0h-297l-94 272H428L338 0H37zm291 1550v179h731v-179H328zM506 510h377l-187 555z"/><glyph unicode="ā" horiz-adv-x="1187" d="M90 317q0 131 122.5 219.5T547 625h209v49q0 59-44 106t-143 47q-60 0-112.5-44T397 674l-274 53q24 163 148 246.5t298 83.5q461 0 461-383V285q0-72 47-72 35 0 51 8V4q-82-20-157-20-73 0-121 36t-68 95q-39-49-123-90.5T475-20q-177 0-281 92.5T90 317zm127 828v178h731v-178H217zm152-828q0-108 155-108 102 0 167 55.5T756 393v33H541q-95 0-133.5-31.5T369 317z"/><glyph unicode="Ă" horiz-adv-x="1384" d="m37 0 524 1442h268L1352 0h-297l-94 272H428L338 0H37zm358 1847h185q0-59 27.5-97t84.5-38q59 0 87 38t28 97h188q0-78-24.5-136.5t-68-93-96-51T692 1550q-60 0-111.5 16.5t-94 50.5-67 93-24.5 137zM506 510h377l-187 555z"/><glyph unicode="ă" horiz-adv-x="1187" d="M90 317q0 131 122.5 219.5T547 625h209v49q0 59-44 106t-143 47q-60 0-112.5-44T397 674l-274 53q24 163 148 246.5t298 83.5q461 0 461-383V285q0-72 47-72 35 0 51 8V4q-82-20-157-20-73 0-121 36t-68 95q-39-49-123-90.5T475-20q-177 0-281 92.5T90 317zm203 1125h184q0-59 28-97t85-38q59 0 87 38t28 97h188q0-78-24.5-136.5t-68-93-96-51T590 1145q-60 0-111.5 16.5t-94 50.5-67 93-24.5 137zm76-1125q0-108 155-108 102 0 167 55.5T756 393v33H541q-95 0-133.5-31.5T369 317z"/><glyph unicode="Ą" horiz-adv-x="1388" d="m37 0 524 1442h268L1352 0h-297l-94 272H428L338 0H37zm469 510h377l-187 555zm522-711q0 102 71.5 168T1296 33V0q-49-3-80.5-43.5T1184-143q0-64 33.5-100t87.5-36h47v-127h-66q-112 0-182 57t-76 148z"/><glyph unicode="ą" horiz-adv-x="1187" d="M90 317q0 131 122.5 219.5T547 625h209v49q0 59-44 106t-143 47q-60 0-112.5-44T397 674l-274 53q24 163 148 246.5t298 83.5q461 0 461-383V285q0-72 47-72 35 0 51 8V4q-82-20-157-20-73 0-121 36t-68 95q-39-49-123-90.5T475-20q-177 0-281 92.5T90 317zm279 0q0-108 155-108 102 0 167 55.5T756 393v33H541q-95 0-133.5-31.5T369 317zm436-518q0 102 71.5 168T1073 33V0q-49-3-80.5-43.5T961-143q0-64 33-100t87-36h47v-127h-65q-112 0-182 57t-76 148z"/><glyph unicode="Ć" horiz-adv-x="1380" d="M88 721q0 163 41.5 298.5t119.5 234T446.5 1407t268.5 55q104 0 192-25.5t150.5-68.5 111.5-103.5 78.5-125.5 48.5-140l-280-55q-31 126-108.5 203.5T715 1225q-162 0-247-132t-85-372q0-241 85-372.5T715 217q117 0 194.5 75.5T1016 494l280-52q-17-90-61.5-171T1120 124 945.5 19 715-20q-199 0-342 95.5t-214 261T88 721zm524 829 136 297h251l-190-297H612z"/><glyph unicode="ć" horiz-adv-x="1155" d="M88 518q0 241 137.5 390T592 1057q190 0 308-95.5T1057 711q-156-31-273-52-22 84-74.5 126T594 827q-112 0-170.5-83.5T365 518q0-144 58.5-228.5T594 205q71 0 123.5 43.5T793 375l272-51q-33-148-157-246T592-20q-229 0-366.5 147.5T88 518zm406 627 135 297h252l-191-297H494z"/><glyph unicode="Ĉ" horiz-adv-x="1380" d="M88 721q0 163 41.5 298.5t119.5 234T446.5 1407t268.5 55q104 0 192-25.5t150.5-68.5 111.5-103.5 78.5-125.5 48.5-140l-280-55q-31 126-108.5 203.5T715 1225q-162 0-247-132t-85-372q0-241 85-372.5T715 217q117 0 194.5 75.5T1016 494l280-52q-17-90-61.5-171T1120 124 945.5 19 715-20q-199 0-342 95.5t-214 261T88 721zm326 829 135 297h313l135-297H803l-98 158-95-158H414z"/><glyph unicode="ĉ" horiz-adv-x="1155" d="M88 518q0 241 137.5 390T592 1057q190 0 308-95.5T1057 711q-156-31-273-52-22 84-74.5 126T594 827q-112 0-170.5-83.5T365 518q0-144 58.5-228.5T594 205q71 0 123.5 43.5T793 375l272-51q-33-148-157-246T592-20q-229 0-366.5 147.5T88 518zm203 627 135 297h313l135-297H680l-98 158-95-158H291z"/><glyph unicode="Ċ" horiz-adv-x="1380" d="M88 721q0 163 41.5 298.5t119.5 234T446.5 1407t268.5 55q104 0 192-25.5t150.5-68.5 111.5-103.5 78.5-125.5 48.5-140l-280-55q-31 126-108.5 203.5T715 1225q-162 0-247-132t-85-372q0-241 85-372.5T715 217q117 0 194.5 75.5T1016 494l280-52q-17-90-61.5-171T1120 124 945.5 19 715-20q-199 0-342 95.5t-214 261T88 721zm457 864v262h286v-262H545z"/><glyph unicode="ċ" horiz-adv-x="1155" d="M88 518q0 241 137.5 390T592 1057q190 0 308-95.5T1057 711q-156-31-273-52-22 84-74.5 126T594 827q-112 0-170.5-83.5T365 518q0-144 58.5-228.5T594 205q71 0 123.5 43.5T793 375l272-51q-33-148-157-246T592-20q-229 0-366.5 147.5T88 518zm344 662v262h287v-262H432z"/><glyph unicode="Č" horiz-adv-x="1380" d="M88 721q0 163 41.5 298.5t119.5 234T446.5 1407t268.5 55q104 0 192-25.5t150.5-68.5 111.5-103.5 78.5-125.5 48.5-140l-280-55q-31 126-108.5 203.5T715 1225q-162 0-247-132t-85-372q0-241 85-372.5T715 217q117 0 194.5 75.5T1016 494l280-52q-17-90-61.5-171T1120 124 945.5 19 715-20q-199 0-342 95.5t-214 261T88 721zm307 1126h197l94-157 98 157h195l-135-297H530z"/><glyph unicode="č" horiz-adv-x="1155" d="M88 518q0 241 137.5 390T592 1057q190 0 308-95.5T1057 711q-156-31-273-52-22 84-74.5 126T594 827q-112 0-170.5-83.5T365 518q0-144 58.5-228.5T594 205q71 0 123.5 43.5T793 375l272-51q-33-148-157-246T592-20q-229 0-366.5 147.5T88 518zm195 924h196l94-158 99 158h194l-135-297H418z"/><glyph unicode="Ď" horiz-adv-x="1447" d="M150 0v1442h563q151 0 269-52.5t193.5-148.5 114.5-228 39-294q0-337-151.5-528T727 0H150zm245 1847h197l94-157 98 157h195l-135-297H530zm43-1609h275q151 0 237 125t86 356q0 236-85.5 360.5T713 1204H438V238z"/><glyph unicode="ď" horiz-adv-x="1241" d="M88 518q0 243 121 391t330 148q79 0 161.5-38T817 930v512h279V0H840l-23 113q-31-51-111.5-92T539-20q-197 0-324 150.5T88 518zm279 0q0-153 62-232t165-79q104 0 163.5 78.5T817 518q0 153-59.5 231T594 827q-103 0-165-79t-62-230zm790 598 76 164h-76v162h164v-162l-92-164h-72z"/><glyph unicode="Đ" horiz-adv-x="1513" d="M31 659v148h223v635h547q201-2 342-95t208.5-254 67.5-378q0-220-68-379T1143 88.5 801 0H254v659H31zm510-421h260q151 0 237 123.5t86 353.5q0 236-86 362.5T801 1204H541V807h219V659H541V238z"/><glyph unicode="đ" horiz-adv-x="1353" d="M88 518q0 243 121 391t330 148q79 0 161.5-38T817 930v223H590v147h227v142h279v-142h225v-147h-225V0H840l-23 113q-31-51-111.5-92T539-20q-197 0-324 150.5T88 518zm279 0q0-153 62-232t165-79q104 0 163.5 78.5T817 518q0 153-59.5 231T594 827q-103 0-165-79t-62-230z"/><glyph unicode="Ē" horiz-adv-x="1292" d="M150 0v1442h1038v-238H438V858h645V621H438V238h750V0H150zm129 1550v179h731v-179H279z"/><glyph unicode="ē" horiz-adv-x="1171" d="M88 518q0 240 134 389.5T575 1057q225 0 353.5-140.5T1057 541q0-64-6-101H367q3-99 69.5-167T596 205q167 0 238 166l251-80q-24-62-63-114.5t-97-98-142.5-72T596-20q-222 0-365 150T88 518zm131 627v178h731v-178H219zm164-506h383q-6 88-55.5 138T575 827q-80 0-133-55t-59-133z"/><glyph unicode="Ĕ" horiz-adv-x="1292" d="M150 0v1442h1038v-238H438V858h645V621H438V238h750V0H150zm194 1847h184q0-59 28-97t85-38q59 0 87 38t28 97h188q0-78-24.5-136.5t-68-93-96-51T641 1550q-60 0-111.5 16.5t-94 50.5-67 93-24.5 137z"/><glyph unicode="ĕ" horiz-adv-x="1171" d="M88 518q0 240 134 389.5T575 1057q225 0 353.5-140.5T1057 541q0-64-6-101H367q3-99 69.5-167T596 205q167 0 238 166l251-80q-24-62-63-114.5t-97-98-142.5-72T596-20q-222 0-365 150T88 518zm199 924h184q0-59 28-97t85-38q59 0 86.5 38t27.5 97h189q0-78-24.5-136.5t-68-93-96-51T584 1145q-60 0-111.5 16.5t-94 50.5-67 93-24.5 137zm96-803h383q-6 88-55.5 138T575 827q-80 0-133-55t-59-133z"/><glyph unicode="Ė" horiz-adv-x="1292" d="M150 0v1442h1038v-238H438V858h645V621H438V238h750V0H150zm362 1548v262h287v-262H512z"/><glyph unicode="ė" horiz-adv-x="1171" d="M88 518q0 240 134 389.5T575 1057q225 0 353.5-140.5T1057 541q0-64-6-101H367q3-99 69.5-167T596 205q167 0 238 166l251-80q-24-62-63-114.5t-97-98-142.5-72T596-20q-222 0-365 150T88 518zm295 121h383q-6 88-55.5 138T575 827q-80 0-133-55t-59-133zm57 541v262h287v-262H440z"/><glyph unicode="Ę" horiz-adv-x="1292" d="M150 0v1442h1038v-238H438V858h645V621H438V238h750V0H150zm714-201q0 102 72 168t197 66V0q-49-3-81-43.5t-32-99.5q0-64 33.5-100t87.5-36h47v-127h-66q-112 0-182 57t-76 148z"/><glyph unicode="ę" horiz-adv-x="1171" d="M88 518q0 240 134 389.5T575 1057q225 0 353.5-140.5T1057 541q0-64-6-101H367q3-99 69.5-167T596 205q167 0 238 166l251-80q-24-62-63-114.5t-97-98-142.5-72T596-20q-222 0-365 150T88 518zm295 121h383q-6 88-55.5 138T575 827q-80 0-133-55t-59-133zm59-840q0 102 72 168t197 66V0q-49-3-81-43.5T598-143q0-64 33.5-100t87.5-36h47v-127h-66q-112 0-182 57t-76 148z"/><glyph unicode="Ě" horiz-adv-x="1292" d="M150 0v1442h1038v-238H438V858h645V621H438V238h750V0H150zm202 1847h197l94-157 98 157h195l-135-297H487z"/><glyph unicode="ě" horiz-adv-x="1171" d="M88 518q0 240 134 389.5T575 1057q225 0 353.5-140.5T1057 541q0-64-6-101H367q3-99 69.5-167T596 205q167 0 238 166l251-80q-24-62-63-114.5t-97-98-142.5-72T596-20q-222 0-365 150T88 518zm205 924h196l95-158 98 158h195l-136-297H428zm90-803h383q-6 88-55.5 138T575 827q-80 0-133-55t-59-133z"/><glyph unicode="Ĝ" horiz-adv-x="1474" d="M88 721q0 179 50 321t139 233 209 139 262 48q235 0 378.5-109t202.5-300q-92-16-276-52-39 110-124 166t-181 56q-363 0-363-502 0-504 363-504 81 0 145 31.5T994.5 332t57 114 19.5 129v27H748v236h595V0h-251l-21 158q-42-65-144-121.5T700-20q-291 0-451.5 201T88 721zm356 829 136 297h313l135-297H834l-99 158-94-158H444z"/><glyph unicode="ĝ" horiz-adv-x="1241" d="M88 518q0 238 129.5 388.5T551 1057q84 0 161-40.5T815 926l12 57 11 53h256V49q0-149-67.5-258.5t-180-163T592-426q-175 0-299.5 69.5T119-156l270 78q19-58 77.5-89.5T592-199q223 0 223 248v47q-28-50-108.5-83T551-20q-198 0-330.5 151T88 518zm238 627 135 297h313l135-297H715l-99 158-94-158H326zm39-627q0-155 62-234t167-79q102 0 161.5 79T815 518q0 152-59.5 230.5T594 827q-105 0-167-78.5T365 518z"/><glyph unicode="Ğ" horiz-adv-x="1474" d="M88 721q0 179 50 321t139 233 209 139 262 48q235 0 378.5-109t202.5-300q-92-16-276-52-39 110-124 166t-181 56q-363 0-363-502 0-504 363-504 81 0 145 31.5T994.5 332t57 114 19.5 129v27H748v236h595V0h-251l-21 158q-42-65-144-121.5T700-20q-291 0-451.5 201T88 721zm348 1126h185q0-59 27.5-97t84.5-38q59 0 87 38t28 97h188q0-78-24.5-136.5t-68-93-96-51T733 1550q-60 0-111.5 16.5t-94 50.5-67 93-24.5 137z"/><glyph unicode="ğ" horiz-adv-x="1241" d="M88 518q0 238 129.5 388.5T551 1057q84 0 161-40.5T815 926l12 57 11 53h256V49q0-149-67.5-258.5t-180-163T592-426q-175 0-299.5 69.5T119-156l270 78q19-58 77.5-89.5T592-199q223 0 223 248v47q-28-50-108.5-83T551-20q-198 0-330.5 151T88 518zm231 924h185q0-59 27.5-97t84.5-38q59 0 87 38t28 97h189q0-78-25-136.5t-68-93-96-51-115-16.5q-60 0-111.5 16.5t-94 50.5-67 93-24.5 137zm46-924q0-155 62-234t167-79q102 0 161.5 79T815 518q0 152-59.5 230.5T594 827q-105 0-167-78.5T365 518z"/><glyph unicode="Ġ" horiz-adv-x="1474" d="M88 721q0 179 50 321t139 233 209 139 262 48q235 0 378.5-109t202.5-300q-92-16-276-52-39 110-124 166t-181 56q-363 0-363-502 0-504 363-504 81 0 145 31.5T994.5 332t57 114 19.5 129v27H748v236h595V0h-251l-21 158q-42-65-144-121.5T700-20q-291 0-451.5 201T88 721zm506 864v262h287v-262H594z"/><glyph unicode="ġ" horiz-adv-x="1241" d="M88 518q0 238 129.5 388.5T551 1057q84 0 161-40.5T815 926l12 57 11 53h256V49q0-149-67.5-258.5t-180-163T592-426q-175 0-299.5 69.5T119-156l270 78q19-58 77.5-89.5T592-199q223 0 223 248v47q-28-50-108.5-83T551-20q-198 0-330.5 151T88 518zm277 0q0-155 62-234t167-79q102 0 161.5 79T815 518q0 152-59.5 230.5T594 827q-105 0-167-78.5T365 518zm110 662v262h287v-262H475z"/><glyph unicode="Ģ" horiz-adv-x="1474" d="M88 721q0 179 50 321t139 233 209 139 262 48q235 0 378.5-109t202.5-300q-92-16-276-52-39 110-124 166t-181 56q-363 0-363-502 0-504 363-504 81 0 145 31.5T994.5 332t57 114 19.5 129v27H748v236h595V0h-251l-21 158q-42-65-144-121.5T700-20q-291 0-451.5 201T88 721zM623-80h163v-162l-92-164h-71l75 164h-75v162z"/><glyph unicode="ģ" horiz-adv-x="1241" d="M88 518q0 238 129.5 388.5T551 1057q84 0 161-40.5T815 926l12 57 11 53h256V49q0-149-67.5-258.5t-180-163T592-426q-175 0-299.5 69.5T119-156l270 78q19-58 77.5-89.5T592-199q223 0 223 248v47q-28-50-108.5-83T551-20q-198 0-330.5 151T88 518zm277 0q0-155 62-234t167-79q102 0 161.5 79T815 518q0 152-59.5 230.5T594 827q-105 0-167-78.5T365 518zm133 598v162l92 164h72l-76-164h76v-162H498z"/><glyph unicode="Ĥ" horiz-adv-x="1429" d="M150 0v1442h288V858h555v584h285V0H993v621H438V0H150zm272 1550 135 297h313l136-297H811l-98 158-95-158H422z"/><glyph unicode="ĥ" horiz-adv-x="1208" d="m0 1550 135 297h314l135-297H389l-98 158-94-158H0zM150 0v1442h276V944q34 45 104 79t148 34q219 0 319.5-118.5T1098 569V0H821v569q0 138-47.5 199T623 829q-197 0-197-260V0H150z"/><glyph unicode="Ħ" horiz-adv-x="1429" d="M31 1145v145h119v152h288v-152h553v152h287v-152h119v-145h-119V0H991v621H438V0H150v1145H31zm407-287h553v287H438V858z"/><glyph unicode="ħ" horiz-adv-x="1208" d="M31 1145v147h119v150h276v-150h340v-147H426V944q34 45 104 79t148 34q219 0 319.5-118.5T1098 569V0H821v569q0 138-47.5 199T623 829q-197 0-197-260V0H150v1145H31z"/><glyph unicode="Ĩ" horiz-adv-x="591" d="M-55 1550v23q0 104 55.5 178t157.5 74q54 0 110-23.5t99-47 67-23.5q35 0 59.5 21.5T518 1825h131v-25q0-101-57-175.5T434 1550q-57 0-114.5 23t-100 46-61.5 23q-34 0-58-22t-24-70H-55zM152 0v1442h288V0H152z"/><glyph unicode="ĩ" horiz-adv-x="583" d="M-59 1145v22q0 104 55.5 178t157.5 74q54 0 110-23.5t99-47 67-23.5q35 0 59.5 21.5T514 1419h131v-24q0-101-57-175.5T430 1145q-57 0-114.5 23t-100 46-61.5 23q-34 0-58-22t-24-70H-59zM154 0v1036h276V0H154z"/><glyph unicode="Ī" horiz-adv-x="591" d="M-70 1550v179h732v-179H-70zM152 0v1442h288V0H152z"/><glyph unicode="ī" horiz-adv-x="583" d="M-72 1145v178h731v-178H-72zM154 0v1036h276V0H154z"/><glyph unicode="Į" horiz-adv-x="591" d="M117-201q0 102 71.5 168T385 33V0q-49-3-81-43.5T272-143q0-64 33.5-100t87.5-36h47v-127h-65q-112 0-182 57t-76 148zM152 0v1442h288V0H152z"/><glyph unicode="į" horiz-adv-x="593" d="M115-201q0 102 71.5 168T383 33V0q-49-3-81-43.5T270-143q0-64 33.5-100t87.5-36h47v-127h-65q-112 0-182 57t-76 148zm39 1381v262h286v-262H154zM160 0v1036h274V0H160z"/><glyph unicode="İ" horiz-adv-x="591" d="M152 0v1442h288V0H152zm0 1548v262h286v-262H152z"/><glyph unicode="ı" horiz-adv-x="583" d="M154 0v1036h276V0H154z"/><glyph unicode="Ĳ" horiz-adv-x="1624" d="M152 0v1442h288V0H152zm475 463 286 51v-11q0-148 15-198 25-84 113-88h10q139 0 139 186v1039h287V420q0-78-10.5-140T1427 160t-76-96-123.5-61T1049-20q-422 0-422 483z"/><glyph unicode="ĳ" horiz-adv-x="1193" d="M154 1180v262h286v-262H154zM160 0v1036h274V0H160zm395-178h137q68 0 68 84v1130h274V-119q0-140-71.5-213.5T733-406H555v228zm199 1358v262h286v-262H754z"/><glyph unicode="Ĵ" horiz-adv-x="1032" d="m37 463 287 51q0-150 12-198 20-85 94-97 15-2 31-2 139 0 139 186v1039h287V420q0-78-10.5-140T837 160t-76-96T637.5 3 459-20Q37-20 37 463zm414 1087 135 297h313l135-297H840l-99 158-94-158H451z"/><glyph unicode="ĵ" horiz-adv-x="600" d="M-39-178H98q68 0 68 84v1130h274V-119q0-140-71.5-213.5T139-406H-39v228zM8 1145l135 297h314l135-297H397l-98 158-94-158H8z"/><glyph unicode="Ķ" horiz-adv-x="1433" d="M150 0v1442h288V877l592 565h367L741 817q464-570 662-817h-328Q903 213 555 639L438 526V0H150zm464-80h164v-162l-92-164h-72l76 164h-76v162z"/><glyph unicode="ķ" horiz-adv-x="1226" d="M150 0v1442h278V670l381 366h369L721 596 1202 0H872L535 416 428 315V0H150zm380-80h164v-162l-92-164h-72l76 164h-76v162z"/><glyph unicode="ĸ" horiz-adv-x="1234" d="M150 0v1036h278V670l381 366h369L721 596 1202 0H874L535 416 428 315V0H150z"/><glyph unicode="Ĺ" horiz-adv-x="1126" d="M150 0v1442h290V238h645V0H150zm43 1550 135 297h252l-191-297H193z"/><glyph unicode="ĺ" horiz-adv-x="573" d="M152 0v1442h276V0H152zm28 1550 135 297h252l-190-297H180z"/><glyph unicode="Ļ" horiz-adv-x="1126" d="M150 0v1442h290V238h645V0H150zm385-80h163v-162l-92-164h-71l75 164h-75v162z"/><glyph unicode="ļ" horiz-adv-x="573" d="M152 0v1442h276V0H152zm53-80h164v-162l-93-164h-71l76 164h-76v162z"/><glyph unicode="Ľ" horiz-adv-x="1126" d="M150 0v1442h290V238h645V0H150zm348 1116 75 164h-75v162h164v-162l-93-164h-71z"/><glyph unicode="ľ" horiz-adv-x="579" d="M152 0v1442h276V0H152zm346 1116 75 164h-75v162h164v-162l-93-164h-71z"/><glyph unicode="Ŀ" horiz-adv-x="1126" d="M150 0v1442h290V238h645V0H150zm442 580v305h309V580H592z"/><glyph unicode="ŀ" horiz-adv-x="579" d="M152 0v1442h276V0H152zm403 580v305h309V580H555z"/><glyph unicode="Ł" horiz-adv-x="1126" d="M27 221v203l123 121v897h288V827l213 209V834L438 625V238h647V0H150v342z"/><glyph unicode="ł" horiz-adv-x="577" d="M-10 221v201l162 158v862h274V852l188 184V834L426 649V0H152v379Q45 272-10 221z"/><glyph unicode="Ń" horiz-adv-x="1454" d="M150 0v1442h278l608-944v944h287V0h-281L438 944V0H150zm464 1550 136 297h251l-190-297H614z"/><glyph unicode="ń" horiz-adv-x="1222" d="M150 0v1036h256l20-100q24 46 100 83.5t152 37.5q226 0 323-118t97-372V0H821v567q0 137-49 198.5T623 827q-197 0-197-260V0H150zm448 1145 135 297h252l-190-297H598z"/><glyph unicode="Ņ" horiz-adv-x="1454" d="M150 0v1442h278l608-944v944h287V0h-281L438 944V0H150zm493-80h164v-162l-92-164h-72l76 164h-76v162z"/><glyph unicode="ņ" horiz-adv-x="1222" d="M150 0v1036h256l20-100q24 46 100 83.5t152 37.5q226 0 323-118t97-372V0H821v567q0 137-49 198.5T623 827q-197 0-197-260V0H150zm376-80h164v-162l-92-164h-72l76 164h-76v162z"/><glyph unicode="Ň" horiz-adv-x="1454" d="M150 0v1442h278l608-944v944h287V0h-281L438 944V0H150zm284 1847h197l94-157 98 157h195l-135-297H569z"/><glyph unicode="ň" horiz-adv-x="1222" d="M150 0v1036h256l20-100q24 46 100 83.5t152 37.5q226 0 323-118t97-372V0H821v567q0 137-49 198.5T623 827q-197 0-197-260V0H150zm167 1442h197l94-158 99 158h194l-135-297H453z"/><glyph unicode="ŉ" horiz-adv-x="1222" d="m-14 1116 75 164h-75v162h164v-162l-93-164h-71zM150 0v1036h256l20-100q24 46 100 83.5t152 37.5q226 0 323-118t97-372V0H821v567q0 137-49 198.5T623 827q-197 0-197-260V0H150z"/><glyph unicode="Ō" horiz-adv-x="1427" d="M90 721q0 218 70 383.5T373 1366t342 96q200 0 342.5-96t212-261 69.5-384q0-220-69.5-385t-212-260.5T715-20q-199 0-342 95.5t-213 261T90 721zm256 829v179h731v-179H346zm41-829q0-243 81.5-373.5T715 217q164 0 245.5 130.5T1042 721q0 242-81.5 373T715 1225q-165 0-246.5-131T387 721z"/><glyph unicode="ō" horiz-adv-x="1165" d="M90 518q0 242 133 390.5T584 1057q226 0 359.5-149T1077 518 943.5 128.5 584-20q-227 0-360.5 148.5T90 518zm125 627v178h731v-178H215zm143-627q0-153 61-232t165-79q103 0 165 79t62 232q0 151-62 230t-165 79q-104 0-165-78.5T358 518z"/><glyph unicode="Ŏ" horiz-adv-x="1427" d="M90 721q0 218 70 383.5T373 1366t342 96q200 0 342.5-96t212-261 69.5-384q0-220-69.5-385t-212-260.5T715-20q-199 0-342 95.5t-213 261T90 721zm297 0q0-243 81.5-373.5T715 217q164 0 245.5 130.5T1042 721q0 242-81.5 373T715 1225q-165 0-246.5-131T387 721zm25 1126h184q0-59 28-97t85-38q59 0 86.5 38t27.5 97h189q0-78-24.5-136.5t-68-93-96-51T709 1550q-60 0-111.5 16.5t-94 50.5-67 93-24.5 137z"/><glyph unicode="ŏ" horiz-adv-x="1165" d="M90 518q0 242 133 390.5T584 1057q226 0 359.5-149T1077 518 943.5 128.5 584-20q-227 0-360.5 148.5T90 518zm193 924h184q0-59 28-97t85-38q59 0 86.5 38t27.5 97h189q0-78-24.5-136.5t-68-93-96-51T580 1145q-60 0-111.5 16.5t-94 50.5-67 93-24.5 137zm75-924q0-153 61-232t165-79q103 0 165 79t62 232q0 151-62 230t-165 79q-104 0-165-78.5T358 518z"/><glyph unicode="Ő" horiz-adv-x="1427" d="M90 721q0 218 70 383.5T373 1366t342 96q200 0 342.5-96t212-261 69.5-384q0-220-69.5-385t-212-260.5T715-20q-199 0-342 95.5t-213 261T90 721zm297 0q0-243 81.5-373.5T715 217q164 0 245.5 130.5T1042 721q0 242-81.5 373T715 1225q-165 0-246.5-131T387 721zm6 829 60 297h215l-64-297H393zm406 0 61 297h213l-61-297H799z"/><glyph unicode="ő" horiz-adv-x="1165" d="M90 518q0 242 133 390.5T584 1057q226 0 359.5-149T1077 518 943.5 128.5 584-20q-227 0-360.5 148.5T90 518zm172 627 60 297h215l-64-297H262zm96-627q0-153 61-232t165-79q103 0 165 79t62 232q0 151-62 230t-165 79q-104 0-165-78.5T358 518zm310 627 61 297h213l-61-297H668z"/><glyph unicode="Œ" horiz-adv-x="2148" d="M98 721q0 218 70 383.5T380 1366t339 96q103 0 190.5-41t139.5-106v127h995v-240h-737V858h632V621h-632V238h737V0h-995v123Q997 60 909.5 20T719-20q-197 0-339 95.5t-212 261T98 721zm297 0q0-243 80.5-373.5T719 217q162 0 243.5 131t81.5 373q0 241-81.5 371.5T719 1223q-163 0-243.5-130.5T395 721z"/><glyph unicode="œ" horiz-adv-x="1890" d="M92 518q0 242 134 390.5T590 1057q113 0 209-51t145-129q51 80 146 130t208 50q224 0 351-140.5T1776 541q0-45-9-101h-665q3-102 62.5-167.5T1321 207q68 0 128.5 42.5T1550 385q107-32 254-78-26-64-63-117.5T1647 86 1506.5 8 1321-20q-116 0-210.5 47.5T952 164Q823-20 590-20q-230 0-364 148T92 518zm266 0q0-154 62-232.5T586 207q103 0 166 78.5T815 518q0 151-63 230t-166 79q-104 0-166-78.5T358 518zm746 121h383q-8 88-57 138t-132 50-135.5-54.5T1104 639z"/><glyph unicode="Ŕ" horiz-adv-x="1363" d="M150 0v1442h626q199 0 325-128t126-321q0-164-97-284T870 557q38-47 201-248.5T1323 0H993q-60 73-209.5 258.5T551 545H438V0H150zm288 782h324q69 0 123.5 62.5T940 993t-54.5 148.5T762 1204H438V782zm49 768 136 297h251l-190-297H487z"/><glyph unicode="ŕ" horiz-adv-x="808" d="M150 0v1036h256l20-100q37 57 86 89t131 32q41 0 111-4V823H608q-93 0-137.5-67T426 553V0H150zm178 1145 135 297h252l-191-297H328z"/><glyph unicode="Ŗ" horiz-adv-x="1363" d="M150 0v1442h626q199 0 325-128t126-321q0-164-97-284T870 557q38-47 201-248.5T1323 0H993q-60 73-209.5 258.5T551 545H438V0H150zm288 782h324q69 0 123.5 62.5T940 993t-54.5 148.5T762 1204H438V782zM614-80h164v-162l-92-164h-72l76 164h-76v162z"/><glyph unicode="ŗ" horiz-adv-x="808" d="M150 0v1036h256l20-100q37 57 86 89t131 32q41 0 111-4V823H608q-93 0-137.5-67T426 553V0H150zm53-80h164v-162l-93-164h-71l76 164h-76v162z"/><glyph unicode="Ř" horiz-adv-x="1363" d="M150 0v1442h626q199 0 325-128t126-321q0-164-97-284T870 557q38-47 201-248.5T1323 0H993q-60 73-209.5 258.5T551 545H438V0H150zm223 1847h196l95-157 98 157h194l-135-297H508zm65-1065h324q69 0 123.5 62.5T940 993t-54.5 148.5T762 1204H438V782z"/><glyph unicode="ř" horiz-adv-x="808" d="M141 1442h197l94-158 98 158h195l-135-297H276zM150 0v1036h256l20-100q37 57 86 89t131 32q41 0 111-4V823H608q-93 0-137.5-67T426 553V0H150z"/><glyph unicode="Ś" horiz-adv-x="1331" d="m88 465 270 49q5-42 16.5-81t36-79 59-69.5 89-48.5T680 217q126 0 203.5 55.5T961 424q0 44-17 77.5t-41.5 53-65 33.5-74.5 19.5-83 10.5q-83 10-152.5 25T381 689.5 251 764t-87.5 112.5T129 1034q0 87 32 159.5t85.5 121.5 124.5 83 146 49 153 15q141 0 258.5-49.5t197-150T1223 1024l-271-45q-36 246-282 246-67 0-122.5-18t-94.5-62.5-39-110.5q0-137 284-174 60-8 106.5-16.5t106-24.5 104-37 90-54.5 74.5-75 47.5-100T1245 424q0-197-153.5-320.5T680-20Q556-20 455 9.5T288.5 87 178 199.5t-65.5 130T88 465zm500 1085 135 297h252l-191-297H588z"/><glyph unicode="ś" horiz-adv-x="1089" d="m88 295 270 51q42-141 193-141 20 0 45 4t58 15 55 36.5 22 61.5q0 48-47 68.5T545 422q-150 19-201 33-169 45-210 175-15 47-15 105 0 136 121.5 229t294.5 93q85 0 157.5-16.5T827 988t104.5-97.5T991 745l-268-51q-14 74-59.5 103.5T541 827q-63 0-104.5-27.5T395 735q0-63 127-80 52-7 83-11.5t78-13.5 76-17.5 67-23 61-31 48.5-40 39-51.5 22.5-65 9-80q0-84-36-150.5T871 64 727 1.5 551-20q-187 0-309 82.5T88 295zm363 850 135 297h252l-191-297H451z"/><glyph unicode="Ŝ" horiz-adv-x="1331" d="m88 465 270 49q5-42 16.5-81t36-79 59-69.5 89-48.5T680 217q126 0 203.5 55.5T961 424q0 44-17 77.5t-41.5 53-65 33.5-74.5 19.5-83 10.5q-83 10-152.5 25T381 689.5 251 764t-87.5 112.5T129 1034q0 87 32 159.5t85.5 121.5 124.5 83 146 49 153 15q141 0 258.5-49.5t197-150T1223 1024l-271-45q-36 246-282 246-67 0-122.5-18t-94.5-62.5-39-110.5q0-137 284-174 60-8 106.5-16.5t106-24.5 104-37 90-54.5 74.5-75 47.5-100T1245 424q0-197-153.5-320.5T680-20Q556-20 455 9.5T288.5 87 178 199.5t-65.5 130T88 465zm283 1085 135 297h313l135-297H760l-98 158-95-158H371z"/><glyph unicode="ŝ" horiz-adv-x="1089" d="m88 295 270 51q42-141 193-141 20 0 45 4t58 15 55 36.5 22 61.5q0 48-47 68.5T545 422q-150 19-201 33-169 45-210 175-15 47-15 105 0 136 121.5 229t294.5 93q85 0 157.5-16.5T827 988t104.5-97.5T991 745l-268-51q-14 74-59.5 103.5T541 827q-63 0-104.5-27.5T395 735q0-63 127-80 52-7 83-11.5t78-13.5 76-17.5 67-23 61-31 48.5-40 39-51.5 22.5-65 9-80q0-84-36-150.5T871 64 727 1.5 551-20q-187 0-309 82.5T88 295zm162 850 135 297h313l136-297H639l-98 158-95-158H250z"/><glyph unicode="Ş" horiz-adv-x="1331" d="m88 465 270 49q5-42 16.5-81t36-79 59-69.5 89-48.5T680 217q126 0 203.5 55.5T961 424q0 44-17 77.5t-41.5 53-65 33.5-74.5 19.5-83 10.5q-83 10-152.5 25T381 689.5 251 764t-87.5 112.5T129 1034q0 87 32 159.5t85.5 121.5 124.5 83 146 49 153 15q141 0 258.5-49.5t197-150T1223 1024l-271-45q-36 246-282 246-67 0-122.5-18t-94.5-62.5-39-110.5q0-137 284-174 60-8 106.5-16.5t106-24.5 104-37 90-54.5 74.5-75 47.5-100T1245 424q0-197-153.5-320.5T680-20Q556-20 455 9.5T288.5 87 178 199.5t-65.5 130T88 465zm356-713 121 21q0-39 27-59.5t65-20.5q33 0 56.5 22t23.5 54q0 38-24.5 62T657-145q-26 0-55-23l-70 70L680 37h115V14l-80-73q62-8 110.5-54T874-231q0-85-57-140t-160-55q-95 0-153 52t-60 126z"/><glyph unicode="ş" horiz-adv-x="1089" d="m88 295 270 51q42-141 193-141 20 0 45 4t58 15 55 36.5 22 61.5q0 48-47 68.5T545 422q-150 19-201 33-169 45-210 175-15 47-15 105 0 136 121.5 229t294.5 93q85 0 157.5-16.5T827 988t104.5-97.5T991 745l-268-51q-14 74-59.5 103.5T541 827q-63 0-104.5-27.5T395 735q0-63 127-80 52-7 83-11.5t78-13.5 76-17.5 67-23 61-31 48.5-40 39-51.5 22.5-65 9-80q0-84-36-150.5T871 64 727 1.5 551-20q-187 0-309 82.5T88 295zm231-543 121 21q0-39 27-59.5t65-20.5q33 0 56.5 22t23.5 54q0 38-24.5 62T532-145q-26 0-55-23l-69 70L555 37h115V14l-80-73q63-8 111.5-54T750-231q0-85-57-140t-161-55q-95 0-153 52t-60 126z"/><glyph unicode="Š" horiz-adv-x="1331" d="m88 465 270 49q5-42 16.5-81t36-79 59-69.5 89-48.5T680 217q126 0 203.5 55.5T961 424q0 44-17 77.5t-41.5 53-65 33.5-74.5 19.5-83 10.5q-83 10-152.5 25T381 689.5 251 764t-87.5 112.5T129 1034q0 87 32 159.5t85.5 121.5 124.5 83 146 49 153 15q141 0 258.5-49.5t197-150T1223 1024l-271-45q-36 246-282 246-67 0-122.5-18t-94.5-62.5-39-110.5q0-137 284-174 60-8 106.5-16.5t106-24.5 104-37 90-54.5 74.5-75 47.5-100T1245 424q0-197-153.5-320.5T680-20Q556-20 455 9.5T288.5 87 178 199.5t-65.5 130T88 465zm283 1382h196l95-157 98 157h194l-135-297H506z"/><glyph unicode="š" horiz-adv-x="1089" d="m88 295 270 51q42-141 193-141 20 0 45 4t58 15 55 36.5 22 61.5q0 48-47 68.5T545 422q-150 19-201 33-169 45-210 175-15 47-15 105 0 136 121.5 229t294.5 93q85 0 157.5-16.5T827 988t104.5-97.5T991 745l-268-51q-14 74-59.5 103.5T541 827q-63 0-104.5-27.5T395 735q0-63 127-80 52-7 83-11.5t78-13.5 76-17.5 67-23 61-31 48.5-40 39-51.5 22.5-65 9-80q0-84-36-150.5T871 64 727 1.5 551-20q-187 0-309 82.5T88 295zm174 1147h197l94-158 98 158h195l-135-297H397z"/><glyph unicode="Ţ" horiz-adv-x="1126" d="M57 1206v236h1014v-236H709V0H422v1206H57zM340-248l121 21q0-39 27-59.5t65-20.5q33 0 56.5 22t23.5 54q0 38-24.5 62T553-145q-26 0-55-23l-70 70L575 37h115V14l-80-73q63-8 111.5-54T770-231q0-85-57-140t-160-55q-95 0-153 52t-60 126z"/><glyph unicode="ţ" horiz-adv-x="804" d="M66 838v198h172v289h276v-289h205V838H514V295q0-80 47-80h125V0L494-14Q364-24 301 56.5T238 276v562H66zM223-248l121 21q0-39 27-59.5t65-20.5q33 0 56.5 22t23.5 54q0 38-24.5 62T436-145q-26 0-55-23l-70 70L459 37h114V14l-79-73q62-8 110.5-54T653-231q0-85-57-140t-160-55q-95 0-153 52t-60 126z"/><glyph unicode="Ť" horiz-adv-x="1126" d="M57 1206v236h1014v-236H709V0H422v1206H57zm211 641h197l94-157 98 157h195l-135-297H403z"/><glyph unicode="ť" horiz-adv-x="804" d="M66 838v198h172v289h276v-289h205V838H514V295q0-80 47-80h125V0L494-14Q364-24 301 56.5T238 276v562H66zm571 278 76 164h-76v162h164v-162l-92-164h-72z"/><glyph unicode="Ŧ" horiz-adv-x="1126" d="M55 1206v236h1016v-236H709V821h219V643H709V0H424v643H197v178h227v385H55z"/><glyph unicode="ŧ" horiz-adv-x="804" d="M66 838v198h172v289h276v-289h205V838H514V711h164V532H514V295q0-80 47-80h125V0L496-14Q363-24 300.5 55.5T238 276v256H86v179h152v127H66z"/><glyph unicode="Ũ" d="M150 492v950h288V492q0-120 78.5-197.5T715 217q119 0 196.5 77.5T989 492v950h287V492q0-122-45-221t-122.5-161.5-178.5-96T715-20 499.5 13.5t-180 96-124 161.5T150 492zm208 1058v23q0 104 55.5 178t157.5 74q54 0 110-23.5t99.5-47T848 1731q35 0 59.5 21.5T932 1825h131v-25q0-101-57-175.5T848 1550q-57 0-115 23t-100.5 46-61.5 23q-34 0-58-22t-24-70H358z"/><glyph unicode="ũ" horiz-adv-x="1216" d="M125 469v567h274V469q0-136 50-198t151-62q195 0 195 260v567h276V0H817l-22 100q-25-45-102.5-82.5T528-20Q312-20 218.5 97.5T125 469zm129 676v22q0 104 55.5 178t157.5 74q54 0 110-23.5t99-47 67-23.5q35 0 59.5 21.5T827 1419h131v-24q0-101-57-175.5T743 1145q-57 0-114.5 23t-100 46-61.5 23q-34 0-58-22t-24-70H254z"/><glyph unicode="Ū" d="M150 492v950h288V492q0-120 78.5-197.5T715 217q119 0 196.5 77.5T989 492v950h287V492q0-122-45-221t-122.5-161.5-178.5-96T715-20 499.5 13.5t-180 96-124 161.5T150 492zm196 1058v179h731v-179H346z"/><glyph unicode="ū" horiz-adv-x="1216" d="M125 469v567h274V469q0-136 50-198t151-62q195 0 195 260v567h276V0H817l-22 100q-25-45-102.5-82.5T528-20Q312-20 218.5 97.5T125 469zm117 676v178h731v-178H242z"/><glyph unicode="Ŭ" d="M150 492v950h288V492q0-120 78.5-197.5T715 217q119 0 196.5 77.5T989 492v950h287V492q0-122-45-221t-122.5-161.5-178.5-96T715-20 499.5 13.5t-180 96-124 161.5T150 492zm264 1355h184q0-59 28-97t85-38q59 0 86.5 38t27.5 97h189q0-78-24.5-136.5t-68-93-96-51T711 1550q-60 0-111.5 16.5t-94 50.5-67 93-24.5 137z"/><glyph unicode="ŭ" horiz-adv-x="1216" d="M125 469v567h274V469q0-136 50-198t151-62q195 0 195 260v567h276V0H817l-22 100q-25-45-102.5-82.5T528-20Q312-20 218.5 97.5T125 469zm182 973h185q0-59 27.5-97t84.5-38q59 0 87 38t28 97h188q0-78-24.5-136.5t-68-93-96-51T604 1145q-60 0-111.5 16.5t-94 50.5-67 93-24.5 137z"/><glyph unicode="Ů" d="M150 492v950h288V492q0-120 78.5-197.5T715 217q119 0 196.5 77.5T989 492v950h287V492q0-122-45-221t-122.5-161.5-178.5-96T715-20 499.5 13.5t-180 96-124 161.5T150 492zm366 1251q0 78 59.5 135t139.5 57q83 0 140.5-56.5T913 1743q0-83-57-138t-141-55q-81 0-140 55.5T516 1743zm123 0q0-32 22.5-54t53.5-22q32 0 54 22t22 54q0 31-22 52.5t-54 21.5q-31 0-53.5-21.5T639 1743z"/><glyph unicode="ů" horiz-adv-x="1216" d="M125 469v567h274V469q0-136 50-198t151-62q195 0 195 260v567h276V0H817l-22 100q-25-45-102.5-82.5T528-20Q312-20 218.5 97.5T125 469zm283 868q0 78 59 135.5t139 57.5q83 0 141-57t58-136q0-83-57.5-137.5T606 1145q-81 0-139.5 55T408 1337zm122 0q0-32 22.5-53.5T606 1262q32 0 54 21.5t22 53.5q0 31-22 52.5t-54 21.5q-31 0-53.5-21.5T530 1337z"/><glyph unicode="Ű" d="M150 492v950h288V492q0-120 78.5-197.5T715 217q119 0 196.5 77.5T989 492v950h287V492q0-122-45-221t-122.5-161.5-178.5-96T715-20 499.5 13.5t-180 96-124 161.5T150 492zm239 1058 60 297h215l-64-297H389zm406 0 61 297h213l-61-297H795z"/><glyph unicode="ű" horiz-adv-x="1216" d="M125 469v567h274V469q0-136 50-198t151-62q195 0 195 260v567h276V0H817l-22 100q-25-45-102.5-82.5T528-20Q312-20 218.5 97.5T125 469zm162 676 59 297h215l-63-297H287zm405 0 62 297h213l-62-297H692z"/><glyph unicode="Ų" d="M150 492v950h288V492q0-120 78.5-197.5T715 217q119 0 196.5 77.5T989 492v950h287V492q0-122-45-221t-122.5-161.5-178.5-96T715-20 499.5 13.5t-180 96-124 161.5T150 492zm464-693q0 102 72 168t197 66V0q-49-3-81-43.5T770-143q0-64 33.5-100t87.5-36h47v-127h-66q-112 0-182 57t-76 148z"/><glyph unicode="ų" horiz-adv-x="1216" d="M125 469v567h274V469q0-136 50-198t151-62q195 0 195 260v567h276V0H817l-22 100q-25-45-102.5-82.5T528-20Q312-20 218.5 97.5T125 469zm620-670q0 102 72 168t197 66V0q-49-3-81-43.5T901-143q0-64 33.5-100t87.5-36h47v-127h-65q-112 0-182.5 57T745-201z"/><glyph unicode="Ŵ" horiz-adv-x="1916" d="M45 1442h299q70-428 168-996 36 148 120 482t128 514h358l250-1002 211 1002h295L1548 0h-334L938 1034 666 0H328zm604 108 135 297h314l135-297h-195l-98 158-94-158H649z"/><glyph unicode="ŵ" horiz-adv-x="1673" d="M49 1036h289l129-684q30 98 102.5 329T680 1036h293q36-114 109.5-342.5T1192 350q23 114 72.5 342.5T1337 1036h289L1368 0h-321L827 694 612 0H291Q190 426 49 1036zm490 109 135 297h313l135-297H928l-99 158-94-158H539z"/><glyph unicode="Ŷ" horiz-adv-x="1288" d="M31 1442h315l287-484q33 56 91 153t106 178 90 153h335L776 692V0H489v692zm313 108 135 297h314l135-297H733l-98 158-94-158H344z"/><glyph unicode="ŷ" horiz-adv-x="1134" d="M41 1036h287q46-133 127-376.5T567 324q44 131 125 374t113 338h287L702 0h-2L547-406H285L432 0zm235 109 136 297h313l135-297H666l-99 158-94-158H276z"/><glyph unicode="Ÿ" horiz-adv-x="1292" d="M35 1442h315l287-484q33 56 91 153t106 178 90 153h336L780 692V0H494v692zm248 106v262h254v-262H283zm456 0v262h254v-262H739z"/><glyph unicode="Ź" horiz-adv-x="1220" d="M88 0v238l713 966H106v238h1027v-238L422 238h713V0H88zm393 1550 135 297h252l-190-297H481z"/><glyph unicode="ź" horiz-adv-x="1050" d="M98 0v227l488 580H119v229h815V807L446 227h508V0H98zm310 1145 135 297h252l-191-297H408z"/><glyph unicode="Ż" horiz-adv-x="1220" d="M88 0v238l713 966H106v238h1027v-238L422 238h713V0H88zm377 1585v262h287v-262H465z"/><glyph unicode="ż" horiz-adv-x="1050" d="M98 0v227l488 580H119v229h815V807L446 227h508V0H98zm283 1180v262h287v-262H381z"/><glyph unicode="Ž" horiz-adv-x="1220" d="M88 0v238l713 966H106v238h1027v-238L422 238h713V0H88zm231 1847h197l94-157 99 157h194l-135-297H455z"/><glyph unicode="ž" horiz-adv-x="1034" d="M92 0v227l488 580H113v229h815V807L440 227h508V0H92zm146 1442h196l94-158 99 158h194l-135-297H373z"/><glyph unicode="ſ" horiz-adv-x="745" d="M41 838v198h172v117q0 289 303 289h178v-230H555q-68 0-68-84V0H213v838H41z"/><glyph unicode="ƒ" horiz-adv-x="790" d="M-123-406q7 41 22.5 116.5T-78-178H57q30 0 52.5 22.5T139-94l180 932H150l38 198h170q20 98 23 117l18 64q42 118 132 171.5t257 53.5h127q-7-46-23.5-128.5T872 1214H735q-66 0-82-84l-18-94h174l-39-198H596L418-72q-36-179-128-256.5T2-406h-125z"/><glyph unicode="Ș" horiz-adv-x="1331" d="m88 465 270 49q5-42 16.5-81t36-79 59-69.5 89-48.5T680 217q126 0 203.5 55.5T961 424q0 44-17 77.5t-41.5 53-65 33.5-74.5 19.5-83 10.5q-83 10-152.5 25T381 689.5 251 764t-87.5 112.5T129 1034q0 87 32 159.5t85.5 121.5 124.5 83 146 49 153 15q141 0 258.5-49.5t197-150T1223 1024l-271-45q-36 246-282 246-67 0-122.5-18t-94.5-62.5-39-110.5q0-137 284-174 60-8 106.5-16.5t106-24.5 104-37 90-54.5 74.5-75 47.5-100T1245 424q0-197-153.5-320.5T680-20Q556-20 455 9.5T288.5 87 178 199.5t-65.5 130T88 465zM606-80h164v-162l-92-164h-72l76 164h-76v162z"/><glyph unicode="ș" horiz-adv-x="1089" d="m88 295 270 51q42-141 193-141 20 0 45 4t58 15 55 36.5 22 61.5q0 48-47 68.5T545 422q-150 19-201 33-169 45-210 175-15 47-15 105 0 136 121.5 229t294.5 93q85 0 157.5-16.5T827 988t104.5-97.5T991 745l-268-51q-14 74-59.5 103.5T541 827q-63 0-104.5-27.5T395 735q0-63 127-80 52-7 83-11.5t78-13.5 76-17.5 67-23 61-31 48.5-40 39-51.5 22.5-65 9-80q0-84-36-150.5T871 64 727 1.5 551-20q-187 0-309 82.5T88 295zM492-80h163v-162l-92-164h-71l75 164h-75v162z"/><glyph unicode="Ț" horiz-adv-x="1126" d="M57 1206v236h1014v-236H709V0H422v1206H57zM485-80h164v-162l-92-164h-72l76 164h-76v162z"/><glyph unicode="ț" horiz-adv-x="804" d="M66 838v198h172v289h276v-289h205V838H514V295q0-80 47-80h125V0L494-14Q364-24 301 56.5T238 276v562H66zM391-80h164v-162l-92-164h-72l76 164h-76v162z"/><glyph unicode="ˆ" horiz-adv-x="706" d="m61 1145 136 297h313l135-297H451l-99 158-94-158H61z"/><glyph unicode="ˇ" horiz-adv-x="706" d="M61 1442h197l94-158 99 158h194l-135-297H197z"/><glyph unicode="˘" horiz-adv-x="829" d="M117 1442h184q0-59 28-97t85-38q59 0 86.5 38t27.5 97h189q0-78-24.5-136.5t-68-93-96-51T414 1145q-60 0-111.5 16.5t-94 50.5-67 93-24.5 137z"/><glyph unicode="˙" horiz-adv-x="561" d="M137 1180v262h287v-262H137z"/><glyph unicode="˚" horiz-adv-x="532" d="M68 1337q0 78 59 135.5t139 57.5q83 0 141-57t58-136q0-83-57.5-137.5T266 1145q-81 0-139.5 55T68 1337zm122 0q0-32 22.5-53.5T266 1262q32 0 54 21.5t22 53.5q0 31-22 52.5t-54 21.5q-31 0-53.5-21.5T190 1337z"/><glyph unicode="˛" horiz-adv-x="567" d="M125-201q0 102 71.5 168T393 33V0q-49-3-80.5-43.5T281-143q0-64 33-100t87-36h48v-127h-66q-112 0-182 57t-76 148z"/><glyph unicode="˜" horiz-adv-x="827" d="M61 1145v22q0 104 55.5 178t157.5 74q54 0 110-23.5t99.5-47T551 1325q35 0 59.5 21.5T635 1419h131v-24q0-101-57-175.5T551 1145q-57 0-115 23t-100.5 46-61.5 23q-34 0-57.5-22t-23.5-70H61z"/><glyph unicode="˝" horiz-adv-x="862" d="m90 1145 60 297h215l-64-297H90zm406 0 61 297h213l-61-297H496z"/><glyph unicode="Ω" horiz-adv-x="1433" d="M90 0v254h209q-90 62-149.5 206.5T90 752q0 203 70.5 362t214 253.5T715 1462q151 0 271-54.5t196.5-150.5 116.5-224.5 40-280.5q0-146-60.5-291T1128 254h211V0H817v254q112 35 171 166.5t59 331.5q0 220-84 345.5T715 1223q-163 0-245.5-125.5T387 752q0-203 56.5-333.5T614 254V0H90z"/><glyph unicode="π" horiz-adv-x="1519" d="M119 797v239h1284V797h-168V309q0-82 65-82h103V0h-141q-166 0-235 80.5T958 322v475H563V0H289v797H119z"/><glyph horiz-adv-x="967"/><glyph horiz-adv-x="1935"/><glyph horiz-adv-x="967"/><glyph horiz-adv-x="1935"/><glyph horiz-adv-x="645"/><glyph horiz-adv-x="483"/><glyph horiz-adv-x="322"/><glyph horiz-adv-x="322"/><glyph horiz-adv-x="241"/><glyph horiz-adv-x="387"/><glyph horiz-adv-x="107"/><glyph unicode="‐" horiz-adv-x="874" d="M70 397v254h731V397H70z"/><glyph unicode="‑" horiz-adv-x="874" d="M70 397v254h731V397H70z"/><glyph unicode="‒" horiz-adv-x="874" d="M70 397v254h731V397H70z"/><glyph unicode="–" horiz-adv-x="1193" d="M135 393v254h920V393H135z"/><glyph unicode="—" horiz-adv-x="1773" d="M164 393v254h1448V393H164z"/><glyph unicode="‘" horiz-adv-x="526" d="M109 805v305l174 332h135l-139-332h139V805H109z"/><glyph unicode="’" horiz-adv-x="526" d="M109 805q22 55 69.5 164.5T248 1135H109v307h309v-307L244 805H109z"/><glyph unicode="‚" horiz-adv-x="528" d="M109 0v305h309V0L244-330H109q22 56 69.5 165.5T248 0H109z"/><glyph unicode="“" horiz-adv-x="944" d="M109 805v305q70 137 174 332h135q-23-55-69.5-165.5T279 1110h139V805H109zm415 0v305q30 55 87 165.5t87 166.5h136q-22-55-69.5-165.5T694 1110h140V805H524z"/><glyph unicode="”" horiz-adv-x="944" d="M109 805q22 55 69.5 164.5T248 1135H109v307h309v-307L244 805H109zm415 0q22 55 70 164.5t70 165.5H524v307h310v-307L659 805H524z"/><glyph unicode="„" horiz-adv-x="944" d="M109 0v305h309V0L244-330H109q22 56 69.5 165.5T248 0H109zm415 0v305h310V0L659-330H524q22 55 70 164.5T664 0H524z"/><glyph unicode="†" horiz-adv-x="1314" d="M111 788v254h399v400h285v-400h399V788H795V-406H510V788H111z"/><glyph unicode="‡" horiz-adv-x="1314" d="M111 0v254h399v534H111v254h399v400h285v-400h399V788H795V254h399V0H795v-397H510V0H111z"/><glyph unicode="•" horiz-adv-x="1320" d="M113 518q0 147 73 271t198.5 196 274.5 72 275.5-72 200-196 73.5-271-73.5-271-200-195.5T659-20 384.5 51.5 186 247t-73 271z"/><glyph unicode="…" horiz-adv-x="1812" d="M106 0v305h310V0H106zm654 0v305h309V0H760zm635 0v305h309V0h-309z"/><glyph horiz-adv-x="387"/><glyph unicode="‰" horiz-adv-x="2459" d="M115 1022q0 98 19 176t58 137.5 104 92 153 32.5 153-32.5 104-92 57.5-137.5 18.5-176-18.5-176T706 708.5t-104-92T449 584t-153 32.5-104 92T134 846t-19 176zm231 0q0-254 103-254 53 0 76.5 63t23.5 191q0 129-23.5 191.5T449 1276q-103 0-103-254zM350 8l885 1514q94-55 158-90L508-80Q430-34 350 8zm619 408q0 98 18.5 176t57.5 138 104 92 154 32q172 0 253.5-118t81.5-320-81.5-319T1303-20q-89 0-154 32t-104 91.5-57.5 137T969 416zm233 0q0-127 23.5-189.5T1303 164t77 62.5 23 189.5q0 131-23 193.5t-77 62.5-77.5-62.5T1202 416zm473 0q0 98 19 176t58 137.5 104 92 153 32.5q172 0 254-118t82-320-82-319-254-117-253 117-81 319zm236 0q0-128 22-190t76-62 77 62.5 23 189.5q0 131-23 193.5t-77 62.5-76-62-22-194z"/><glyph unicode="‹" horiz-adv-x="735" d="m74 516 252 315h254L324 516l239-291H309z"/><glyph unicode="›" horiz-adv-x="735" d="M154 831h254l254-315-236-291H172l238 291z"/><glyph unicode="⁄" horiz-adv-x="1226" d="m61 8 885 1514 158-90L219-80z"/><glyph horiz-adv-x="483"/><glyph unicode="₣" horiz-adv-x="1314" d="M102 0v535h535V0H102zm0 575v535h535V575H102zM678 0v535h534V0H678zm0 575v535h534V575H678z"/><glyph unicode="₤" horiz-adv-x="1241" d="M102 0v1036h1037V0H102zm103 102h831v832H205V102z"/><glyph unicode="₧" horiz-adv-x="1241" d="M102 0v1442h1037V0H102zm103 102h831v1237H205V102z"/><glyph unicode="€" horiz-adv-x="1263" d="m88 475 53 195h86q-2 16-2 51t2 53H88l53 195h109q48 228 190.5 359.5T819 1460q94 0 184.5-31.5T1151 1350q-9-38-59-228-60 55-118 78t-138 23q-109 0-183.5-66.5T547 969h508l-49-195H522q-2-18-2-53t2-51h455l-49-195H547q27-121 102.5-189.5T836 217q79 0 153.5 28.5T1153 344V82q-55-44-141.5-73T819-20q-236 0-379.5 132T248 475H88z"/><glyph unicode="™" horiz-adv-x="1402" d="M61 1325v117h508v-117H389V721H246v604H61zm574-604v721h184l170-545 168 545h184V721h-143v457l-141-457H922l-142 457V721H635z"/><glyph unicode="←" horiz-adv-x="1652" d="M102 387v260l394 389h368L471 647h1079V387H471L864 0H498z"/><glyph unicode="↑" horiz-adv-x="1257" d="M102 690v361l396 391h262l395-389V690l-395 389V0H498v1079z"/><glyph unicode="→" horiz-adv-x="1652" d="M102 387v260h1080l-394 389h369l393-389V387L1155 0H788l394 387H102z"/><glyph unicode="↓" horiz-adv-x="1257" d="M102 389v363l396-390v1080h262V362l395 390V389L760 0H498z"/><glyph unicode="↵" horiz-adv-x="1652" d="M102 387v260l394 389h368L471 647h815v795h264V387H471L864 0H498z"/><glyph unicode="∂" horiz-adv-x="1296" d="M106 510q0 48 12.5 104T165 737.5t84.5 121 136 90T578 985q111 0 196-46t127-118q0 29-2.5 59T888 951t-20.5 77-35 72.5-52.5 63-74 43-98 16.5q-88 0-159-21l-29 240q70 20 188 20 279 0 427.5-200T1184 713q0-93-12.5-179t-39-169.5-71.5-152-105.5-121T810 9.5 623-20q-156 0-275.5 73.5T167 246.5 106 510zm271-14q0-111 65-194t183-83q79 0 136.5 42t83 103T870 496q0 112-64.5 194T623 772q-117 0-181.5-82T377 496z"/><glyph unicode="∆" horiz-adv-x="1280" d="m47 0 594 1462L1233 0H47zm350 238h488L641 838z"/><glyph unicode="∏" horiz-adv-x="1415" d="M150 0v1442h1118V0H981v1204H438V0H150z"/><glyph unicode="∑" horiz-adv-x="1308" d="M150 0v236l391 483-391 485v238h1038v-238H479l385-485-385-481h709V0H150z"/><glyph unicode="√" horiz-adv-x="1359" d="M111 852v184h358l197-798q48 194 213.5 863.5T1051 1796h235L819 0H510L299 852H111z"/><glyph unicode="∞" horiz-adv-x="1757" d="M88 653q0 170 117 287t287 117q79 0 153-30.5T774 936l105-117 102 115q55 61 130 92t155 31q164 0 284.5-115T1671 653q0-171-118-288t-287-117q-173 0-285 121L879 483 776 369Q666 248 492 248q-108 0-200 50.5t-148 144T88 653zm240 0q0-74 46-127t118-53q76 0 124 53l113 127-113 125q-47 56-124 56-70 0-117-53t-47-128zm700 0 115-129q45-51 123-51 70 0 117 52t47 128q0 72-46.5 126.5T1266 834q-75 0-123-54z"/><glyph unicode="∫" horiz-adv-x="790" d="M55-178h138q65 0 65 84v1216q0 179 83 249.5t294 70.5h102v-228H600q-65 0-65-84V-86q0-180-82.5-250T156-406H55v228z"/><glyph unicode="≈" horiz-adv-x="1196" d="M117 289q8 9 33.5 38t33.5 38 29.5 31.5 32 30.5 30 24.5T309 474t33 14.5 38 11 40 2.5q58 0 132.5-35t141-70T799 362q28 0 54 21.5t89 91.5l137-125q-8-9-30.5-34.5T1019 282t-27-29-28.5-28-26-22.5T909 181t-28.5-15.5-32-13-33-6.5-37.5-3q-60 0-134 35t-139.5 70T399 283q-28 0-54-21.5T256 170zm0 409q8 9 33.5 38t33.5 38 29.5 31.5 32 30.5 30 24.5T309 883t33 14.5 38 11 40 2.5q46 0 103.5-21.5t101.5-48 93-48 81-21.5q28 0 54 21.5t89 91.5l137-125q-9-10-33.5-38t-33-37-29.5-31.5-31-30.5-29.5-23.5T889 578t-33-14-38-10.5-40-2.5q-47 0-104.5 21.5t-101 48-92.5 48-81 21.5q-28 0-54-21.5T256 578z"/><glyph unicode="≠" horiz-adv-x="1269" d="M117 176v256h401l111 189H117v256h663l123 206 101-55-91-151h240V621H762L651 432h502V176H500L365-55 264 0l103 176H117z"/><glyph unicode="≤" horiz-adv-x="1273" d="M117 0v254h1036V0H117zm0 795v254l1036 393v-256L471 924l682-265V406z"/><glyph unicode="≥" horiz-adv-x="1271" d="M117 0v254h1036V0H117zm0 406v253l682 265-682 262v256l1036-393V795z"/><glyph unicode="◊" horiz-adv-x="1413" d="m41 719 502 723h327l-2-2 502-721L868 0H543zm324 0q32-46 340-488 226 324 339 488-283 405-339 487-67-97-195-280T365 719z"/><glyph unicode="◼" horiz-adv-x="1034" d="M0 0v1034h1034V0H0z"/><glyph unicode="" horiz-adv-x="1368" d="M68 674q0 81 27 158.5t76 139 123 99 161 37.5q45 0 139-33 73-28 104-28 28 0 107 28 97 33 133 33 95 0 174-37 74-35 139-106-176-125-176-287 0-97 55-175.5T1280 383q-97-209-178-297-80-86-180-86-42 0-115 33-66 26-109 26-46 0-110-26Q521 0 477 0q-61 0-112 39-133 97-215 276T68 674zm626 418q0 135 86 231 96 96 203 115 0-84-17-144t-71-114q-86-90-195-90-1 0-2.5 1t-3.5 1z"/><glyph unicode="ﬃ" horiz-adv-x="1910" d="M41 838v198h172v115q0 291 303 291h178v-230H555q-68 0-68-84v-92h379v115q0 291 305 291h177v-230h-138q-67 0-67-84v-92h616V0h-276v838h-340V0H866v838H487V0H213v838H41zm1438 342v262h284v-262h-284z"/><glyph unicode="ﬄ" horiz-adv-x="1900" d="M41 838v198h172v115q0 136 73.5 213.5T516 1442h178v-230H555q-68 0-68-84v-92h379v115q0 136 74 213.5t229 77.5h584V0h-274v1212h-271q-65 0-65-84v-92h172V838h-172V0H866v838H487V0H213v838H41z"/></font>
</defs>
</svg>
