<svg width="502" height="567" fill="none" xmlns="http://www.w3.org/2000/svg"><style>@keyframes confettiAnimation{0%{transform:matrix(1,0,0,1,0,0)}to{transform:translateY(-800px)rotate(360deg)}}@keyframes blinkingAnimation{0%,50%{opacity:.2}to{opacity:1}}.congratulation-background-container&gt;path{animation:10s linear infinite confettiAnimation}.congratulation-background-container&gt;path:nth-child(odd){animation-name:blinkingAnimation;animation-duration:1.5s;animation-timing-function:ease-in-out;animation-iteration-count:infinite;animation-direction:alternate;animation-delay:.2s}.congratulation-background-container&gt;path:nth-child(2n+2){animation-name:blinkingAnimation;animation-duration:1.2s;animation-timing-function:ease-in-out;animation-iteration-count:infinite;animation-direction:alternate;animation-delay:.5s}</style><g class="congratulation-background-container"><path d="M316.185 35.058 304.82 3.914l31.144 3.687-19.779 27.457ZM76.242 163.096l-6.734-18.455 18.456 2.185-11.722 16.27ZM409.775 170.162l12.616-15.06 7.335 17.075-19.951-2.015ZM416.977 333.798l-7.188-9.954 11.471-1.824-4.283 11.778ZM57.156 97.145l4.164-5.528-22.06-16.724-4.165 5.527 22.06 16.725ZM263.709 52.903l3.471-4.606-16.546-12.543-3.47 4.606 16.545 12.543ZM141.633 90.437l4.078 4.079 14.725-14.638-4.078-4.078-14.725 14.637ZM495.47 39.676l-12.642 5.636 20.527 46.417 12.643-5.636-20.528-46.417ZM-13.55 236.787l9.745 9.83 36.153-35.621-9.745-9.831-36.152 35.622ZM419.298 93.892l-6.056 3.35 12.219 22.241 6.056-3.35-12.219-22.241ZM96.037 31.602H78.734v17.302h17.303V31.602ZM225.232 101.969H207.93v17.302h17.302v-17.302ZM334.758 117.359l-8.156 8.157 8.156 8.156 8.156-8.156-8.156-8.157ZM109.908 337.654l3.74-10.912-10.911-3.74-3.74 10.912 10.911 3.74ZM8.378 129.648h-31.144v31.144H8.378v-31.144ZM514.78 308.88l-19.202-16.591-16.591 19.202 19.202 16.591 16.591-19.202ZM196.954 3.116 172.516-18 151.4 6.439l24.439 21.116 21.115-24.44ZM493.987 206.936c8.282 0 14.996-6.714 14.996-14.995 0-8.282-6.714-14.996-14.996-14.996-8.281 0-14.995 6.714-14.995 14.996 0 8.281 6.714 14.995 14.995 14.995ZM432.85 17.754c7.644 0 13.841-6.197 13.841-13.842 0-7.644-6.197-13.842-13.841-13.842-7.645 0-13.842 6.197-13.842 13.842 0 7.645 6.197 13.842 13.842 13.842ZM9.456 46.904c10.192 0 18.455-8.263 18.455-18.456S19.648 9.992 9.456 9.992C-.737 9.992-9 18.255-9 28.448S-.737 46.904 9.456 46.904ZM359.604 75.435a8.651 8.651 0 1 0-8.651-8.651 8.65 8.65 0 0 0 8.651 8.651ZM149.103 158.855a5.767 5.767 0 1 0 .002-11.534 5.767 5.767 0 0 0-.002 11.534ZM453.611 401.863a5.768 5.768 0 1 0 0-11.536 5.768 5.768 0 0 0 0 11.536ZM304.243 471.079a6.344 6.344 0 1 0 0-12.688 6.344 6.344 0 0 0 0 12.688ZM209.965 503.153l5.754 21.339-20.473-4.243 14.719-17.096ZM485.088 461.715l3.717 4.41 16.799-14.075-3.717-4.41-16.799 14.075ZM449.336 505.288l-1.492 5.571 21.152 5.736 1.493-5.571-21.153-5.736ZM36.718 547.464l-8.859-10.636-39.095 32.365 8.86 10.636 39.094-32.365ZM92.887 505.103l5.27-2.345-8.388-18.993-5.27 2.345 8.388 18.993ZM32.919 297.478l5.269-2.345L29.8 276.14l-5.269 2.345 8.388 18.993ZM52.2 404.03l2.566 2.322 9.318-10.236-2.566-2.322L52.2 404.03ZM257.246 553.055l-3.988-5.657-20.784 14.561 3.988 5.656 20.784-14.56ZM380.182 502.901l20.685 1.794 1.794-20.685-20.685-1.794-1.794 20.685ZM146.784 456.72l8.724 7.546 7.546-8.725-8.725-7.545-7.545 8.724ZM-14.697 353.82 3 372.008l18.188-17.697L3.49 336.123l-18.188 17.697ZM430.003 262.045l8.044 8.267 8.267-8.043-8.044-8.268-8.267 8.044ZM333.002 562.415l27.35 28.108 28.108-27.349-27.349-28.109-28.109 27.35ZM7.08 456.418a9.227 9.227 0 0 0-9.99 8.396 9.227 9.227 0 0 0 8.396 9.99 9.227 9.227 0 0 0 9.991-8.396 9.227 9.227 0 0 0-8.396-9.99ZM103.492 550.302c-7.616-.66-14.325 4.978-14.986 12.594-.66 7.616 4.979 14.326 12.595 14.986 7.616.661 14.325-4.978 14.986-12.594.66-7.616-4.978-14.325-12.595-14.986ZM491.607 548.804c-10.155-.881-19.101 6.637-19.981 16.792-.881 10.155 6.637 19.101 16.792 19.981 10.155.881 19.101-6.637 19.981-16.792.881-10.155-6.637-19.1-16.792-19.981Z" fill="#D9D9D9"/></g></svg>