<svg xmlns="http://www.w3.org/2000/svg"><defs><font id="nb_akademie_proregular" horiz-adv-x="1349"><font-face units-per-em="2048" ascent="1638" descent="-410"/><glyph unicode="ﬁ" horiz-adv-x="1107" d="M59 901v135h187v140q0 266 264 266h127v-146H524q-55 0-83.5-33.5T412 1167v-131h546V0H791v901H412V0H246v901H59zm717 350v191h197v-191H776z"/><glyph unicode="ﬂ" horiz-adv-x="1075" d="M59 901v135h187v140q0 266 264 266h436V0H778v1296H524q-55 0-83.5-33.5T412 1167v-131h215V901H412V0H246v901H59z"/><glyph horiz-adv-x="0"/><glyph horiz-adv-x="682"/><glyph horiz-adv-x="45"/><glyph horiz-adv-x="45"/><glyph horiz-adv-x="45"/><glyph horiz-adv-x="477"/><glyph horiz-adv-x="477"/><glyph horiz-adv-x="477"/><glyph unicode="!" horiz-adv-x="534" d="M152 0v229h229V0H152zm26 1036v406h172v-406l-18-604H195z"/><glyph unicode="&quot;" horiz-adv-x="692" d="M121 1147v295h153v-295l-24-281H145zm297 0v295h155v-295l-24-281H440z"/><glyph unicode="#" horiz-adv-x="1245" d="M41 592h276l48 256H109v135h280l76 438h145l-78-438h250l76 438h146l-76-438h252l2-135H901l-45-256h256l2-135H834L752 0H608l80 457H438L358 0H215l80 457H43zm422 0h248l47 256H508z"/><glyph unicode="$" horiz-adv-x="1265" d="m90 442 164 31q2-52 20-103.5T327.5 268t98.5-86.5T571 133v541q-70 11-128 27t-118 46-101 70-67 101.5-26 138.5q0 76 25.5 140.5t67.5 109 99.5 77.5 119 50.5T571 1458v189h131v-191q81-9 152.5-38t129.5-77 96-120.5 46-161.5l-163-29q-13 122-83.5 191.5T702 1307V811q76-10 134-23.5T961 744t110.5-71.5 73-111.5 29.5-160q0-178-133-291.5T702-18v-187H571v189q-98 8-179 39.5t-135.5 77T164 204t-55.5 117.5T90 442zm209 615q0-183 272-228v480q-115-13-193.5-77T299 1057zm403-924q127 11 214.5 81t87.5 187q0 67-24.5 115.5t-70 76.5-94.5 43-113 23V133z"/><glyph unicode="%" horiz-adv-x="1722" d="M141 1034q0 198 73 313t228 115 228-115 73-313-73-312-228-114-228 114-73 312zm154 0q0-147 35-222t112-75q146 0 146 297 0 149-35 224t-111 75q-77 0-112-75t-35-224zM365 2l872 1503 117-67L483-63zm612 401q0 198 73 313t228 115 229-115.5 74-312.5q0-128-29.5-220t-99-147.5T1278-20q-155 0-228 113.5T977 403zm156 0q0-146 34-220t111-74 112 74 35 220q0 151-35 226.5T1278 705t-111-75.5-34-226.5z"/><glyph unicode="&amp;" horiz-adv-x="1312" d="M98 401q0 132 77.5 230.5T389 793q-93 106-132.5 174T217 1120q0 152 109.5 247t263.5 95q172 0 272.5-101T963 1120q0-68-24.5-126t-71-104T767 809t-128-70l303-360q31 72 41.5 150.5T997 748l166-31q-1-8-4.5-69t-6-82-10-76-16.5-88-26-79.5-39-86.5L1262 0h-197L965 113Q809-23 592-23q-117 0-212.5 34.5t-156 93.5-93 135T98 401zm174 5q0-129 94.5-206T592 123q75 0 149 32t119 85L496 670q-48-22-84.5-45t-70-55-51.5-73.5-18-90.5zm111 718q0-56 32.5-112T537 856q49 19 91 42t83 55.5 64.5 75.5 23.5 91q0 87-56.5 143T590 1319q-86 0-146.5-56.5T383 1124z"/><glyph unicode="'" horiz-adv-x="395" d="M121 1147v295h153v-295l-24-281H145z"/><glyph unicode="(" horiz-adv-x="624" d="M51 518q0 113 24.5 225.5t63.5 201 86.5 169.5 94.5 139.5 86 102 64 64.5l24 22 79-78q-8-7-21.5-20.5t-52-59-74-95-78.5-127T273 906t-52.5-182T199 518t20.5-205.5 53.5-184 73-156T426-156t73-94 53-60l21-20-79-76q-9 8-25 22t-62 63-88 102.5-93 138-88 171-62 200T51 518z"/><glyph unicode=")" horiz-adv-x="624" d="M51-330q15 14 40.5 40t90 112.5 114 179 90 233.5T426 518q0 103-20.5 205t-54 183.5T278 1062t-79.5 128-73 94-53.5 60l-21 20 80 78q9-8 25-22.5t62-63.5 87.5-103 92.5-138 88-171 62-200 25-226q0-114-24.5-226.5T485 90 399-80t-94-139-86-101-63-64l-25-22z"/><glyph unicode="*" horiz-adv-x="841" d="m84 1151 39 119 96-33 160-70-19 164v111h125v-111l-18-164 160 70 96 33 39-119-100-33-179-39 117-127 64-86-103-73-63 90-76 129-74-129-63-90-103 73 66 86 112 127-178 39z"/><glyph unicode="+" horiz-adv-x="1251" d="M106 446v154h435v436h172V600h430V446H713V0H541v446H106z"/><glyph unicode="," horiz-adv-x="503" d="M137 0v227h230V0Q265-231 231-305h-94q17 51 54 152.5T246 0H137z"/><glyph unicode="-" horiz-adv-x="868" d="M113 449v153h641V449H113z"/><glyph unicode="." horiz-adv-x="499" d="M135 0v229h230V0H135z"/><glyph unicode="/" horiz-adv-x="976" d="m37 0 727 1442h166L203 0H37z"/><glyph unicode="0" horiz-adv-x="1269" d="M119 709q0 733 516 733t516-733q0-729-516-729T119 709zm180 0q0-300 77-441t259-141q179 0 256.5 141.5T969 709q0 303-77 444t-257 141q-182 0-259-140.5T299 709z"/><glyph unicode="1" horiz-adv-x="821" d="M96 918v196l348 307h168V0H440v1212z"/><glyph unicode="2" horiz-adv-x="1134" d="M96 0v150l529 507q32 30 52 50.5t54 61 54 75.5 35.5 82.5T836 1020q-1 70-31.5 131t-96 102-155.5 41q-108 0-188.5-87T285 983l-170 31q0 101 37 184t98.5 135.5T390 1414t163 28q201 0 332-121t131-301q0-62-19-124.5t-44-108-65.5-96.5-66-77.5T758 551L334 150h702V0H96z"/><glyph unicode="3" horiz-adv-x="1136" d="m96 387 170 31q0-133 75.5-212T543 127q129 0 212 70.5T838 387q0 123-85 197.5T543 659H399v146h144q117 0 192.5 64.5T811 1044q0 104-75 177t-191 73-192.5-74-76.5-208l-167 30q0 181 124.5 290.5T545 1442t314.5-114T987 1044q0-64-24.5-121.5T901 828t-73.5-61-67.5-32q38-10 81.5-39.5t83-73 65.5-106 26-129.5q0-183-135.5-295T545-20Q340-20 218 91.5T96 387z"/><glyph unicode="4" horiz-adv-x="1368" d="M96 317v146l701 958h168V465h313V317H965V0H793v317H96zm199 148h498v690z"/><glyph unicode="5" horiz-adv-x="1206" d="m96 379 176 31q4-31 14-63t33.5-73 56-72.5 87-53T584 127q79 0 142.5 32t102 85T887 361.5 907 496q0 97-35 176T762 801.5 584 852q-105 0-170.5-49T295 666l-162 30 90 725h725v-147H367l-54-416q48 72 129 104.5T618 995q204 0 336.5-138.5T1087 496q0-157-68.5-276t-182-179.5T584-20q-91 0-167.5 23.5T287 66t-93.5 91.5T130 265 96 379z"/><glyph unicode="6" horiz-adv-x="1232" d="M119 702q0 134 18.5 246t58.5 204.5 101 156 148.5 98.5 197.5 35q161 0 280-91t156-237l-174-29q-40 106-102.5 155.5T643 1290q-64 0-116-19t-87.5-50.5-63-76.5-43-91-25-101T296 852t-3-94q36 104 138 167.5T653 989q91 0 168.5-29T952 882t90-113 54.5-133 17.5-140q0-100-32-192t-91-164.5-150.5-116T639-20q-115 0-206.5 43.5T283.5 138 188 305t-53.5 194T119 702zm211-213q0-67 17.5-129T400 246t96.5-83.5T637 131q80 0 141.5 31.5t97 83.5 53 114T946 489t-17.5 128.5-52.5 115-96.5 85.5T639 850q-80 0-141.5-32t-97-85.5-53-115T330 489z"/><glyph unicode="7" horiz-adv-x="1079" d="M74 1274v147h932v-143L438 0H248l567 1274H74z"/><glyph unicode="8" horiz-adv-x="1204" d="M119 403q0 71 24 132.5T208 640t83 71.5 88 48.5q-38 14-73.5 37.5t-70 60-55 91.5-20.5 120q0 160 127.5 266.5T602 1442t313.5-106.5T1042 1069q0-52-15-98.5T990.5 891t-51-60.5-54-43.5-49.5-27q45-19 86.5-49t79.5-73 60.5-104 22.5-131q0-183-139.5-303T602-20q-206 0-344.5 120T119 403zm180 7q0-123 87.5-203T602 127t215.5 80T905 410q0 125-88 199.5T602 684t-215-74.5T299 410zm35 657q0-110 76.5-178T602 821t191.5 68 76.5 178q0 91-77.5 159T602 1294t-190.5-68-77.5-159z"/><glyph unicode="9" horiz-adv-x="1232" d="M119 926q0 99 32 191t91 165 150.5 116.5T594 1442q115 0 207-45.5T950 1279t95-169.5 53.5-194T1114 717q0-168-30-300.5T992.5 185 829 33 590-20q-161 0-279 89.5T154 305l174 31q40-106 102.5-155.5T590 131q74 0 132.5 25.5t95.5 70 63 97T919.5 440 937 556.5t5 107.5q-21-68-77.5-121T733 462t-153-28q-91 0-168.5 29T281 540t-90 112-54.5 133.5T119 926zm168 6q0-67 17.5-128.5t52.5-115 96.5-85.5T594 571q80 0 141.5 32t97 85.5 53 115T903 932q0 68-17 130t-52 115-96.5 85-141.5 32q-79 0-140.5-32t-97-85-53.5-115.5T287 932z"/><glyph unicode=":" horiz-adv-x="503" d="M135 0v229h232V0H135zm0 807v229h232V807H135z"/><glyph unicode=";" horiz-adv-x="503" d="M135 807v229h230V807H135zm2-807v227h230V0Q265-231 231-305h-94q17 51 54 152.5T246 0H137z"/><glyph unicode="&lt;" horiz-adv-x="1251" d="M106 440v154l1037 442V883L299 518l844-366V0z"/><glyph unicode="=" horiz-adv-x="1251" d="M106 219v143h1037V219H106zm0 459v143h1037V678H106z"/><glyph unicode="&gt;" horiz-adv-x="1251" d="M106 0v152l844 366-844 365v153l1037-442V440z"/><glyph unicode="?" horiz-adv-x="1028" d="M78 1042q8 191 116.5 304.5T504 1460q208 0 326-110.5T948 1047q0-64-17-116t-51.5-92.5-69-68.5-87.5-61q-51-34-93-79.5T588 535V420H420v123q0 78 35 130.5t98 96.5q131 89 175 145t44 132q0 114-70.5 190T504 1313q-65 0-116.5-26.5T306 1216t-45-96-15-108zM387 0v227h231V0H387z"/><glyph unicode="@" horiz-adv-x="2015" d="M92 496q0 212 77 394.5T376 1197t302.5 194.5T1040 1462q129 0 254-34t239-106.5 200.5-176 138-254T1923 563q0-130-21-232.5t-54.5-167-80-107-94-59.5-98.5-17q-104 0-170 61t-82 158q-41-106-136-162.5T973-20q-202 0-327.5 146T520 520q0 240 131 388.5T973 1057q116 0 214-55t128-146l18 180h129V315q0-200 129-200 34 0 68 24t65.5 73 51.5 140.5 20 210.5q0 184-62 336t-165.5 249-234.5 149.5-273 52.5q-132 0-257-38t-231-112.5T387 1023 262 785t-45-289q0-165 60.5-313t167-257.5 261.5-174 334-64.5q121 0 269.5 49.5T1567-141l53-92q-125-88-285-140.5T1028-426q-186 0-356 66T373.5-176.5 168.5 116 92 496zm588 22q0-195 88-296t236-101q142 0 224.5 105t82.5 292q0 184-83 290.5T1004 915q-147 0-235.5-103T680 518z"/><glyph unicode="A" horiz-adv-x="1304" d="m47 0 520 1442h172L1260 0h-177L971 317H336L223 0H47zm338 465h535l-267 745z"/><glyph unicode="B" horiz-adv-x="1286" d="M152 0v1442h604q175 0 273.5-112t98.5-288q0-108-58-189.5T942 748q91-30 165.5-128.5T1182 401q0-185-108-293T776 0H152zm172 150h444q107 0 176.5 73.5T1014 401t-68.5 185.5T778 668H324V150zm0 665h432q82 5 145.5 68t63.5 157q0 106-58.5 180T748 1294H324V815z"/><glyph unicode="C" horiz-adv-x="1298" d="M90 721q0 218 68 384.5T361 1367t321 95q98 0 182.5-29t140.5-73 99.5-102 67-109 36.5-102l-166-39q-16 50-43 98.5t-69.5 98-107 80T682 1315q-201 0-308.5-156T266 721t107.5-437T682 129q78 0 143 29.5t107.5 77 69 95T1042 426l166-31q-11-50-35-102t-68-109.5T1004.5 82t-141-73T682-20q-186 0-321 95T158 336.5 90 721z"/><glyph unicode="D" horiz-adv-x="1366" d="M152 0v1442h501q116 0 211-34t164-96.5 116-151.5 70-199.5 23-239.5q0-221-62.5-381T981 90 659 0H152zm172 150h329q192 0 299 148t107 423q0 273-107.5 423T653 1294H324V150z"/><glyph unicode="E" horiz-adv-x="1216" d="M152 0v1442h956v-148H324V815h696V668H324V150h784V0H152z"/><glyph unicode="F" horiz-adv-x="1155" d="M152 0v1442h913v-148H322V815h657V668H322V0H152z"/><glyph unicode="G" horiz-adv-x="1406" d="M90 721q0 224 73.5 391.5T374 1371t320 91q115 0 208-30t156.5-85.5 105.5-125 67-156.5l-162-31q-49 142-147 210.5T694 1313q-206 0-315-152T270 721q0-290 109-442t315-152q80 0 147 26t113.5 69.5 79 101T1081 445t15 130v72H694v146h568V0h-146l-24 201q-37-82-151.5-151.5T678-20q-189 0-323 94.5t-199.5 260T90 721z"/><glyph unicode="H" horiz-adv-x="1335" d="M152 0v1442h172V815h688v627h170V0h-170v668H324V0H152z"/><glyph unicode="I" horiz-adv-x="475" d="M154 0v1442h170V0H154z"/><glyph unicode="J" horiz-adv-x="935" d="m39 401 172 31q0-39 1-65.5t5.5-61.5 12-57.5 22.5-47 35.5-39T339 138t71-9q54 0 92.5 16t59.5 40 33.5 61.5 15.5 70 3 76.5v1049h172V397q0-95-15-164t-54.5-129.5-116.5-92T408-20q-106 0-180.5 33T113 106.5t-57 132T39 401z"/><glyph unicode="K" horiz-adv-x="1296" d="M152 0v1442h172V778l698 664h235L600 817 1260 0h-205Q945 138 736 396T485 707L324 553V0H152z"/><glyph unicode="L" horiz-adv-x="1040" d="M152 0v1442h172V150h675V0H152z"/><glyph unicode="M" horiz-adv-x="1550" d="M152 0v1442h262L776 186l361 1256h262V0h-172v1196L879 0H674L324 1196V0H152z"/><glyph unicode="N" horiz-adv-x="1359" d="M152 0v1442h167l723-1139v1139h172V0h-170L324 1139V0H152z"/><glyph unicode="O" horiz-adv-x="1366" d="M92 721q0 220 66 385t201 260.5 325 95.5q191 0 325.5-95.5T1209 1106t65-385-65-385-199.5-260.5T684-20q-190 0-325 95.5T158 336 92 721zm180 0q0-283 105-438.5T684 127q200 0 305 155.5T1094 721t-105 438.5T684 1315q-202 0-307-155.5T272 721z"/><glyph unicode="P" horiz-adv-x="1206" d="M152 0v1442h575q181 0 291-121t110-307q0-187-109.5-307.5T727 586H324V0H152zm172 735h397q101 0 168 84.5t67 194.5-67 195-168 85H324V735z"/><glyph unicode="Q" horiz-adv-x="1368" d="M90 721q0 220 66 385t201 260.5 325 95.5q191 0 326-95.5t200.5-260.5 65.5-385q0-340-154-541l172-170-100-96-172 170Q885-20 682-20q-190 0-325 95.5T156 336 90 721zm182 0q0-283 104-437.5T682 129q133 0 221 70-1 1-29 28.5t-56.5 56l-55 55L733 369l101 98 163-166q97 154 97 420 0 283-105 437.5T682 1313t-306-154.5T272 721z"/><glyph unicode="R" horiz-adv-x="1255" d="M152 0v1442h575q180 0 290.5-121.5T1128 1014q0-179-104-296.5T735 590L1208 0h-202L535 586H324V0H152zm172 733h397q101 0 168 85.5t67 195.5-67 195-168 85H324V733z"/><glyph unicode="S" horiz-adv-x="1265" d="m90 442 164 31q2-58 24.5-115T345 248t122.5-86T647 129q93 0 172.5 29t132 92.5T1004 401q0 60-21 106t-53.5 73.5-82.5 46-95.5 26.5T647 666q-79 8-143.5 21t-137 41.5-121.5 69-81.5 107T131 1057q0 103 45.5 183.5T296 1368t159.5 70.5T631 1462q92 0 176-25.5t152.5-74 113-127T1126 1059l-163-29q-7 74-36.5 129.5T851 1248t-101 49-119 16q-62 0-119-15t-106-44.5-78-80.5-29-116q0-205 354-240 58-6 101-13t100.5-21.5T954 749t86-50.5 71.5-71.5 45-98 17.5-128q0-189-149.5-305T647-20Q533-20 439 8T282 82 175 189t-64 124.5T90 442z"/><glyph unicode="T" horiz-adv-x="1050" d="M59 1294v148h932v-148H612V0H440v1294H59z"/><glyph unicode="U" d="M152 473v969h172V473q0-150 103-247t249-97 249 97 103 247v969h170V473q0-227-148-360T676-20q-148 0-266 57.5t-188 171T152 473z"/><glyph unicode="V" horiz-adv-x="1306" d="M49 1442h176L653 248l428 1194h179L739 0H567z"/><glyph unicode="W" horiz-adv-x="1748" d="M49 1442h176q29-161 221-1184l297 1184h232l299-1186q9 42 252 1186h174L1389 0h-203L860 1214 535 0H332z"/><glyph unicode="X" horiz-adv-x="1185" d="M59 0q72 121 220 361.5T500 723q-50 80-140.5 229T238 1151L59 1442h191q33-56 154-261t188-315l344 576h188L686 723 1126 0H936L592 575q-24-40-149-251.5T250 0H59z"/><glyph unicode="Y" horiz-adv-x="1148" d="M37 1442h188l344-582 346 582h195L655 702V0H485v702z"/><glyph unicode="Z" horiz-adv-x="1124" d="M90 0v150l746 1144H96v148h936v-148L291 150h743V0H90z"/><glyph unicode="[" horiz-adv-x="696" d="M111-399v1841h452v-119H256V-281h307v-118H111z"/><glyph unicode="\" horiz-adv-x="976" d="M37 1442h166L930 0H764z"/><glyph unicode="]" horiz-adv-x="696" d="M111-281h307v1604H111v119h452V-399H111v118z"/><glyph unicode="^" horiz-adv-x="1013" d="m100 686 320 756h147l318-756H733l-239 576-242-576H100z"/><glyph unicode="_" horiz-adv-x="1249" d="M106 0v152h1037V0H106z"/><glyph unicode="`" horiz-adv-x="446" d="M61 1442h189l135-297H252z"/><glyph unicode="a" horiz-adv-x="1169" d="M98 299q0 141 112.5 217T524 592h285v94q0 34-5 61.5T783 807t-43 53.5-76 36T549 911q-109 0-176-63.5T303 684l-164 31q5 111 62.5 189.5t147 115.5 200.5 37q217 0 321.5-97T975 690V256q0-63 13.5-93t51.5-30q29 0 56 10V0q-56-12-107-12-79 0-122.5 45T817 152q-18-25-41-47.5t-64-53-102-50T479-20q-179 0-280 87T98 299zm172 0q0-69 53-121.5T485 125q79 0 142.5 25t102 66.5 59 91T809 410v49H524q-76 0-129.5-16t-79-42-35.5-50.5-10-51.5z"/><glyph unicode="b" horiz-adv-x="1175" d="M152 0v1442h167V891q16 24 42.5 49.5T428 994t96 45.5 117 17.5q205 0 324.5-148.5T1085 518q0-238-125-388T641-20q-116 0-200.5 54.5T319 147L299 0H152zm167 518q0-184 76-289.5T610 123q140 0 222.5 107T915 518q0 180-82.5 286.5T610 911q-139 0-215-105t-76-288z"/><glyph unicode="c" horiz-adv-x="1089" d="M90 518q0 242 128.5 390.5T565 1057q80 0 147.5-21T827 981t82.5-80 55.5-93 30-97q-12-2-73-14t-93-17q-26 111-94.5 171T565 911q-140 0-221.5-108.5T262 518q0-177 81-286t222-109q103 0 172 60.5T834 354q31-5 92.5-16.5T997 324q-11-62-40.5-120t-80-110-131-83T565-20q-218 0-346.5 147.5T90 518z"/><glyph unicode="d" horiz-adv-x="1173" d="M90 518q0 242 120 390.5T537 1057q61 0 116.5-17.5t95-45.5 65.5-53.5 42-49.5v551h168V0H877l-21 147q-22-34-59-68.5T688.5 12 537-20q-195 0-321 150T90 518zm172 0q0-182 82-288.5T567 123q138 0 213.5 105.5T856 518q0 182-75.5 287.5T567 911q-141 0-223-106.5T262 518z"/><glyph unicode="e" horiz-adv-x="1124" d="M90 518q0 240 127.5 389.5T555 1057q209 0 332-135.5T1010 549q0-55-4-86H270q2-132 86-236t211-104q107 0 191 58t116 169l158-39q-13-58-47.5-113.5T894.5 92t-141-81T567-20q-207 0-342 150T90 518zm186 80h551q-3 150-70 231.5T555 911q-130 0-203.5-92.5T276 598z"/><glyph unicode="f" horiz-adv-x="690" d="M55 901v135h187v140q0 266 264 266h127v-146H520q-55 0-83.5-33.5T408 1167v-131h215V901H408V0H242v901H55z"/><glyph unicode="g" horiz-adv-x="1175" d="M90 518q0 239 124.5 389T539 1057q112 0 197.5-54.5T856 881l21 155h147V37q0-226-123.5-344.5T567-426q-170 0-281 73T139-154l164 39q19-68 90.5-117T567-281q151 0 220 87.5T856 37v106Q823 78 735 29T539-20q-194 0-321.5 150.5T90 518zm172 0q0-182 82-288.5T565 123t215 105.5T856 518q0 183-76 288T565 911 344 804.5 262 518z"/><glyph unicode="h" horiz-adv-x="1140" d="M152 0v1442h167V909q111 148 295 148 210-1 306-123t96-373V0H848v561q0 183-60.5 267T584 913q-137 0-201-88t-64-264V0H152z"/><glyph unicode="i" horiz-adv-x="518" d="M160 1251v191h198v-191H160zM176 0v1036h166V0H176z"/><glyph unicode="j" horiz-adv-x="507" d="M-53-260H59q54 0 82.5 33.5T170-133v1169h166V-141q0-265-262-265H-53v146zm207 1511v191h198v-191H154z"/><glyph unicode="k" horiz-adv-x="1120" d="M152 0v1442h167V573l482 463h229L592 616 1087 0H883L477 504 319 354V0H152z"/><glyph unicode="l" horiz-adv-x="473" d="M154 0v1442h165V0H154z"/><glyph unicode="m" horiz-adv-x="1701" d="M152 0v1036h147l20-123q23 51 103 97.5t172 46.5q208 0 303-166 45 80 128.5 123t184.5 43q195 0 278-119.5t83-359.5V0h-166v578q0 335-229 335-56 0-98-18.5t-66.5-48-40-74.5-20.5-90.5-5-103.5V0H778v578q0 58-5 103.5t-20 90-40 74-66.5 47.5-97.5 18q-230 0-230-333V0H152z"/><glyph unicode="n" horiz-adv-x="1146" d="M152 0v1036h147l20-123q35 59 112 101.5t183 42.5q212-1 307-122.5t95-373.5V0H848v561q0 183-60.5 266T584 911q-137 0-201-87t-64-263V0H152z"/><glyph unicode="o" horiz-adv-x="1116" d="M92 518q0 245 124.5 392T559 1057q215 0 340-148t125-391q0-242-124.5-390T559-20q-218 0-342.5 147.5T92 518zm168 0q0-182 80-288.5T559 123q138 0 217.5 106.5T856 518q0 181-79.5 287T559 911q-139 0-219-106t-80-287z"/><glyph unicode="p" horiz-adv-x="1179" d="M152-406v1442h147l20-147q16 24 41.5 49.5t65.5 54 96.5 46.5 118.5 18q194 0 316-150t122-389q0-243-117-390.5T641-20q-114 0-198.5 53T319 143v-549H152zm167 924q0-184 76-289.5T610 123t218 106.5T907 518q0 181-79 287T610 911 395 806t-76-288z"/><glyph unicode="q" horiz-adv-x="1181" d="M100 518q0 239 123.5 389T541 1057q61 0 117.5-18t96.5-46.5 65.5-54T862 889l21 147h145V-406H862v549q-16-24-42.5-49.5T753 41 657.5-3 541-20q-206 0-323.5 147.5T100 518zm172 0q0-182 80-288.5T571 123t215 105.5T862 518q0 183-76 288T571 911 352 805t-80-287z"/><glyph unicode="r" horiz-adv-x="724" d="M152 0v1036h147l20-125q37 55 103.5 100.5T578 1057q38 0 88-8V895h-86q-137 0-199-82.5T319 555V0H152z"/><glyph unicode="s" horiz-adv-x="1032" d="m90 315 164 31q3-30 10-57t26-58.5 46.5-54 75-38T520 123q26 0 52.5 2.5t65.5 13 67.5 28.5 49.5 53 21 81q0 31-9 55.5t-29 41-41 27.5-55.5 19-61 12-68.5 9q-156 17-221 40-148 53-167 203-3 24-3 50 0 127 110.5 213t270.5 86q176 0 293-85.5T922 721q-31-5-88.5-16T756 690q-9 221-252 221-96 0-155.5-44.5T289 758q0-34 14-59t34.5-40.5T397 632t72.5-16.5T559 604q87-10 150-27.5T828 526t85-89.5T942 301q0-151-116.5-236T520-20Q417-20 335.5 7.5T203 82.5 123.5 189 90 315z"/><glyph unicode="t" horiz-adv-x="737" d="M70 901v135h186v307h168v-307h223V901H424V266q0-74 27-99.5t96-25.5h90V0l-96-6q-18-1-36-1-63 0-107 14-58 18-88 57.5T268 153t-12 117v631H70z"/><glyph unicode="u" horiz-adv-x="1130" d="M117 475v561h166V475q0-182 61.5-265.5T549 125q137 0 200.5 87T813 475v561h166V0H834l-21 123Q773 66 697 23T514-20q-211 1-304 121.5T117 475z"/><glyph unicode="v" horiz-adv-x="1026" d="M49 1036h172l291-817 293 817h172L598 0H428z"/><glyph unicode="w" horiz-adv-x="1462" d="M57 1036h168l152-809q176 580 244 809h194q10-33 109-341t149-468q143 701 164 809h168L1171 0H987L717 829 465 0H279z"/><glyph unicode="x" horiz-adv-x="952" d="m39 0 342 514-342 522h186l252-383q8 15 121.5 188.5T727 1036h186L571 514 913 0H721L477 373q-6-10-122-186.5T233 0H39z"/><glyph unicode="y" horiz-adv-x="1009" d="M41 1036h172q41-116 139-393t152-426l293 819h172Q726 361 440-406H272L420 0z"/><glyph unicode="z" horiz-adv-x="966" d="M100 0v145l541 746H121v145h725V891L305 145h561V0H100z"/><glyph unicode="{" horiz-adv-x="813" d="M188 467v119q46 0 79.5 30.5T301 698v506q0 49 11 89.5t36.5 75 72 54T532 1442h119v-119H543q-41 0-69-31t-28-75V756q0-181-110-230 110-49 110-229v-475q0-43 28-75t69-32h108v-118H532q-127 0-179 63t-52 174v522q0 48-32 79.5T188 467z"/><glyph unicode="|" horiz-adv-x="452" d="M154-403v1845h147V-403H154z"/><glyph unicode="}" horiz-adv-x="813" d="M188-285h109q39 0 67.5 32t28.5 75v475q0 183 111 227-111 49-111 232v461q0 44-28 75t-68 31H188v119h119q64 0 111-19.5t72.5-54 37-75T539 1204V698q0-52 32.5-82t79.5-30V467q-50 0-81-31.5T539 356v-522q0-237-232-237H188v118z"/><glyph unicode="~" horiz-adv-x="1093" d="M102 541q86 97 139.5 133.5T369 711q58 0 132.5-35t141-70T748 571q28 0 54 21.5t89 91.5l100-92q-87-98-139-134t-125-36q-47 0-104 21.5t-100 48-92 48-83 21.5q-28 0-54-21.5T205 449z"/><glyph horiz-adv-x="542"/><glyph unicode="¡" horiz-adv-x="534" d="M152 807v229h229V807H152zM180 0l19 604h127L344 0v-406H180V0z"/><glyph unicode="¢" horiz-adv-x="1083" d="M90 518q0 223 108 367t298 166v180h131v-180q83-10 149.5-44T885 923.5 952.5 821 989 711q-16-3-74.5-14.5T825 680q-49 185-198 219V133q152 34 200 221 22-3 164-30-10-56-35.5-109.5t-68.5-103T777 28 627-14v-193H496v191Q305 6 197.5 149T90 518zm166 0q0-154 64-257t176-126v764q-112-23-176-126t-64-255z"/><glyph unicode="£" horiz-adv-x="1269" d="M106 0v150h64q63 0 94 31.5T295 289v383H106v149h189v230q0 116 43 208t131.5 147.5T680 1462q84 0 152.5-21.5t125-67.5 88-128 31.5-194l-170-29q0 86-18.5 145.5t-52 90-71 43T680 1313q-108 0-161.5-73.5T465 1051V821h235V672H465V289q0-56-8-86t-31-53h481v282h170V0H106z"/><glyph unicode="¤" horiz-adv-x="1161" d="m25 49 157 158q-67 125-67 311 0 178 63 301L25 975l90 90 139-141q127 133 328 133 194 0 321-133l144 141 90-90q-51-54-158-156 68-127 68-301 0-179-72-311l162-158-90-90q-30 27-82.5 79T899 102Q777-20 582-20q-202 0-320 124L115-41zm251 469q0-181 83-287t223-106q138 0 220.5 106T885 518q0 180-82.5 285.5T582 909q-140 0-223-105.5T276 518z"/><glyph unicode="¥" horiz-adv-x="1138" d="M37 1442h188l344-580 346 580h189L729 823h264V682H655V524h338V383H655V0H485v383H147v141h338v158H147v141h265z"/><glyph unicode="¦" horiz-adv-x="452" d="M154-410v836h147v-836H154zm0 1014v838h147V604H154z"/><glyph unicode="§" horiz-adv-x="1232" d="M125 592q0 103 51 183t127 136q-28 53-38.5 93.5T254 1102q0 146 98 253t262 107q79 0 147-23.5t122.5-70.5 87.5-123.5 37-175.5l-162-29q0 130-61 201.5T618 1313q-52 0-92-21t-61-54.5-31-67.5-10-68q0-191 215-250 181-50 259-89 174-88 204-256 6-38 6-79 0-107-49.5-186.5T936 115q43-86 43-193 0-93-41.5-172.5T811-381t-197-51q-179 0-280.5 107T225-16l162 28q0-138 54.5-217.5T612-285q52 0 92 20.5t62 53.5 32.5 66.5T809-78q0 198-219 260-170 48-232 74-165 72-212 203-21 59-21 133zm168 6q0-28 8-54t19-45.5 32-38.5 37.5-32 46.5-27 47-21.5 50.5-18.5 46.5-14.5 45-12.5q132-38 211-101 104 77 104 199 0 28-8 53.5t-18.5 45-32 39-37 32-46 27-46.5 22-50.5 19-46.5 15-45 13.5q-130 32-213 101-104-74-104-201z"/><glyph unicode="¨" horiz-adv-x="892" d="M147 1251v191h187v-191H147zm412 0v191h189v-191H559z"/><glyph unicode="©" horiz-adv-x="1587" d="M49 721q0 151 59 288.5T267 1246t238 157.5 290 58.5 290-58.5 237.5-157.5 158.5-236.5 59-288.5-59-288.5T1322.5 196 1085 38.5 795-20 505 38.5 267 196 108 432.5 49 721zm84 0q0-133 52.5-255.5t141-211 211.5-141T795 61q178 0 330.5 89T1367 391t89 330q0 133-53 255t-141.5 210.5-211 141T795 1380q-134 0-257-52.5t-211.5-141-141-210.5T133 721zm260 0q0 225 107 363.5T795 1223q66 0 122.5-20t94.5-49.5 68-69.5 46-75 27-71l-117-20q-10 33-28 65t-46.5 64.5-72 52.5-94.5 20q-135 0-208-104.5T514 721t73.5-296T795 319q52 0 95.5 20.5t72 54 46 65.5 27.5 65l117-22q-8-34-24.5-69.5T1082 357t-68.5-70-95.5-50-123-20q-188 0-295 139T393 721z"/><glyph unicode="ª" horiz-adv-x="716" d="M94 1049q0 78 66.5 120.5T354 1212h123v76q-12 92-137 92-62 0-98.5-34t-36.5-89l-90 19q4 89 67 137.5t158 48.5q120 0 175.5-59.5T571 1223v-197q0-35 7.5-51.5T606 958q14 0 31 7v-78q-27-8-59-8-43 0-67.5 24.5T483 969q-68-95-184-95-97 0-151 48t-54 127zm92 0q0-38 30-66.5t91-28.5q80 0 125 47.5t45 106.5v33H326q-79 0-109.5-28.5T186 1049z"/><glyph unicode="«" horiz-adv-x="966" d="m66 516 245 315h174L236 516l233-291H295q-45 56-126 160T66 516zm317 0 246 315h176L553 516q131-165 233-291H612z"/><glyph unicode="¬" horiz-adv-x="1245" d="M102 432v156h953V0H887v432H102z"/><glyph unicode="­" horiz-adv-x="868" d="M113 440v156h641V440H113z"/><glyph unicode="®" horiz-adv-x="1587" d="M49 721q0 151 59 288.5T267 1246t238 157.5 290 58.5 290-58.5 237.5-157.5 158.5-236.5 59-288.5-59-288.5T1322.5 196 1085 38.5 795-20 505 38.5 267 196 108 432.5 49 721zm84 0q0-133 52.5-255.5t141-211 211.5-141T795 61q178 0 330.5 89T1367 391t89 330q0 133-53 255t-141.5 210.5-211 141T795 1380q-134 0-257-52.5t-211.5-141-141-210.5T133 721zm330-488v975h389q123 0 197.5-81.5T1124 920q0-127-73.5-207T858 633l320-400h-140L719 629H580V233H463zm117 496h266q70 0 116 58.5t46 132.5q0 73-46 130.5T846 1108H580V729z"/><glyph unicode="¯" horiz-adv-x="763" d="M61 1145v129h641v-129H61z"/><glyph unicode="°" horiz-adv-x="819" d="M82 1135q0 136 95.5 230.5T410 1460q135 0 230-94.5t95-230.5q0-134-95-230t-230-96q-136 0-232 96t-96 230zm127 0q0-84 58.5-142.5T410 934q83 0 141.5 59t58.5 142q0 84-58 142t-142 58q-85 0-143-57.5T209 1135z"/><glyph unicode="±" horiz-adv-x="1253" d="M106 8v154h1037V8H106zm3 846v154h434v436h172v-436h430V854H715V408H543v446H109z"/><glyph unicode="²" horiz-adv-x="741" d="M92 629v112l307 299q95 90 95 172 0 51-36 90t-100 39q-50 0-89-48t-38-122l-129 23q0 122 76 193t180 71q117 0 194-71t77-175q0-128-146-268L272 741h377V629H92z"/><glyph unicode="³" horiz-adv-x="757" d="m96 868 131 23q0-74 36-118t97-44q62 0 102 34t40 93q0 60-41 95.5T360 987h-84v113h84q55 0 92 33.5t37 85.5-37 89.5-92 37.5q-52 0-86-41.5T240 1188l-131 22q0 112 72.5 181t178.5 69q109 0 186-70.5t77-170.5q0-54-29.5-99.5T524 1047q47-28 81-79t34-112q0-108-80.5-175T360 614q-121 0-192.5 69.5T96 868z"/><glyph unicode="´" horiz-adv-x="446" d="m61 1145 136 297h188l-190-297H61z"/><glyph unicode="µ" horiz-adv-x="1234" d="M152-406v1442h165V469q0-344 271-344 138 0 205 86t67 264v561h164V250q2-65 16-91t56-26q26 0 49 10V0q-56-12-107-12-122 0-164 106Q775-20 600-20q-186 0-283 139v-525H152z"/><glyph unicode="¶" horiz-adv-x="1288" d="M51 1014q0 183 123 305.5T481 1442h606v-135H985V-406H834v1713H729V-406H580v992h-99q-185 0-307.5 122T51 1014z"/><glyph unicode="·" horiz-adv-x="503" d="M135 625v229h232V625H135z"/><glyph unicode="¸" horiz-adv-x="571" d="m61-260 82 16q3-44 39-71t82-27 76.5 27.5T371-246q0 49-34.5 78T264-139t-61-17l-53 52L299 31h78V4l-88-80q69-3 122.5-48T465-246q0-82-54.5-131T264-426q-88 0-144 47T61-260z"/><glyph unicode="¹" horiz-adv-x="593" d="M98 1102v153l201 187h117V629H287v635z"/><glyph unicode="º" horiz-adv-x="753" d="M92 1169q0 133 68 213t188 80q118 0 187-81t69-212q0-133-68.5-212.5T348 877q-120 0-188 79t-68 213zm96 0q0-95 43.5-153T348 958t115.5 58 42.5 153q0 93-42.5 151T348 1378t-116.5-58-43.5-151z"/><glyph unicode="»" horiz-adv-x="966" d="M84 831h174q42-52 124-157.5T506 516L274 225H100q141 174 234 291zm317 0h174q42-52 124-157.5T823 516q-45-56-126-160T594 225H420l231 291z"/><glyph unicode="¼" horiz-adv-x="1658" d="M102 1102v153l199 187h117V629H289v635zM297 2l870 1503 119-67L416-63zm580 182v97l378 530h117V297h184V184h-184V0h-129v184H877zm159 113h207v295z"/><glyph unicode="½" horiz-adv-x="1521" d="M102 1102v153l199 187h117V629H289v635zM207 2l868 1503 119-67L324-63zm655-2v113l307 299q95 90 95 172 0 51-36 90t-100 39q-50 0-89-48t-38-122l-129 22q0 122 76 193t180 71q117 0 194-70.5t77-174.5q0-129-146-269l-211-202h377V0H862z"/><glyph unicode="¾" horiz-adv-x="1685" d="m102 868 131 23q0-74 36.5-118t97.5-44q62 0 101.5 34t39.5 93q0 60-41 95.5T367 987h-84v113h84q54 0 90.5 33.5T494 1219t-36.5 89.5T367 1346q-52 0-87.5-41.5T244 1188l-131 22q0 112 74 181t180 69q108 0 184-70.5t76-170.5q0-55-29-100.5t-70-71.5q47-27 81-78t34-113q0-108-79-175t-197-67q-121 0-193 69.5T102 868zM373 2l870 1503 119-67L492-63zm530 182v97l377 530h119V297h184V184h-184V0h-129v184H903zm160 113h207v295z"/><glyph unicode="¿" horiz-adv-x="1028" d="M78-10q0 60 15.5 109t46.5 88 64 66.5 81 59.5q4 3 34.5 25t43.5 34 34.5 34.5 31.5 46 11 49.5v-2 114h166V492q0-79-34.5-130.5T473 266q-129-89-174-146T254-10q0-116 70.5-191T524-276q65 0 115.5 26.5T720-179t45 95.5T780 23Q906 0 948-6q-8-191-116.5-304.5T524-424q-209 0-327.5 111T78-10zm332 817v229h229V807H410z"/><glyph unicode="À" horiz-adv-x="1304" d="m47 0 520 1442h172L1260 0h-177L971 317H336L223 0H47zm338 465h535l-267 745zm4 1382h189l135-297H580z"/><glyph unicode="Á" horiz-adv-x="1304" d="m47 0 520 1442h172L1260 0h-177L971 317H336L223 0H47zm338 465h535l-267 745zm207 1085 135 297h188l-190-297H592z"/><glyph unicode="Â" horiz-adv-x="1304" d="m47 0 520 1442h172L1260 0h-177L971 317H336L223 0H47zm338 465h535l-267 745zm29 1085 135 297h209l135-297H760l-107 197-106-197H414z"/><glyph unicode="Ã" horiz-adv-x="1304" d="m47 0 520 1442h172L1260 0h-177L971 317H336L223 0H47zm307 1550v37q0 47 16 88.5t57.5 73T530 1780q39 0 77.5-16t64-34.5 53-34.5 47.5-16q33 0 53.5 24t20.5 77h104v-35q0-47-17-89.5t-59-74-102-31.5q-50 0-98.5 25t-85 49.5T530 1649q-71 0-71-99H354zm31-1085h535l-267 745z"/><glyph unicode="Ä" horiz-adv-x="1304" d="m47 0 520 1442h172L1260 0h-177L971 317H336L223 0H47zm305 1548v191h187v-191H352zm33-1083h535l-267 745zm379 1083v191h188v-191H764z"/><glyph unicode="Å" horiz-adv-x="1304" d="m47 0 520 1442h172L1260 0h-177L971 317H336L223 0H47zm338 465h535l-267 745zm72 1278q0 78 57.5 135t136.5 57 137-57 58-135q0-81-57.5-137T651 1550t-137 56-57 137zm100 0q0-39 27.5-66.5T651 1649q38 0 65 27t27 67q0 38-27 65t-65 27-66-27-28-65z"/><glyph unicode="Æ" horiz-adv-x="1968" d="m49 0 791 1442h1020v-150h-750V815h672V666h-672V147h750V0H940v315H403L231 0H49zm436 465h455v827z"/><glyph unicode="Ç" horiz-adv-x="1298" d="M90 721q0 218 68 384.5T361 1367t321 95q98 0 182.5-29t140.5-73 99.5-102 67-109 36.5-102l-166-39q-16 50-43 98.5t-69.5 98-107 80T682 1315q-201 0-308.5-156T266 721t107.5-437T682 129q78 0 143 29.5t107.5 77 69 95T1042 426l166-31q-11-50-35-102t-68-109.5T1004.5 82t-141-73T682-20q-186 0-321 95T158 336.5 90 721zm375-981 82 16q3-44 39-71t82-27 76 27.5 30 68.5q0 49-34 78t-72 29q-39 0-62-17l-53 52L702 31h78V4l-88-80q69-3 122.5-48T868-246q0-82-54-131t-146-49q-88 0-144 47t-59 119z"/><glyph unicode="È" horiz-adv-x="1216" d="M152 0v1442h956v-148H324V815h696V668H324V150h784V0H152zm221 1847h188l135-297H563z"/><glyph unicode="É" horiz-adv-x="1216" d="M152 0v1442h956v-148H324V815h696V668H324V150h784V0H152zm391 1550 135 297h188l-190-297H543z"/><glyph unicode="Ê" horiz-adv-x="1216" d="M152 0v1442h956v-148H324V815h696V668H324V150h784V0H152zm231 1550 135 297h209l135-297H729l-106 197-107-197H383z"/><glyph unicode="Ë" horiz-adv-x="1216" d="M152 0v1442h956v-148H324V815h696V668H324V150h784V0H152zm167 1548v191h187v-191H319zm412 0v191h189v-191H731z"/><glyph unicode="Ì" horiz-adv-x="473" d="M-23 1847h189l135-297H168zM152 0v1442h170V0H152z"/><glyph unicode="Í" horiz-adv-x="479" d="M154 0v1442h170V0H154zm10 1550 135 297h188l-190-297H164z"/><glyph unicode="Î" horiz-adv-x="475" d="m0 1550 135 297h209l135-297H346l-106 197-107-197H0zM154 0v1442h170V0H154z"/><glyph unicode="Ï" horiz-adv-x="475" d="M-61 1548v191h186v-191H-61zM154 0v1442h170V0H154zm196 1548v191h189v-191H350z"/><glyph unicode="Ð" horiz-adv-x="1468" d="M35 657v117h235v668h496q144-1 256-55.5t183.5-151.5 108-230 36.5-296q0-333-148.5-521T766 0H270v657H35zm405-510h326q193 0 299 144t106 418q0 275-107 430t-298 155H440V774h234V657H440V147z"/><glyph unicode="Ñ" horiz-adv-x="1460" d="M188 0v1442h168l723-1139v1139h172V0h-170L360 1139V0H188zm238 1550v37q0 47 16 88.5t57.5 73T602 1780q39 0 77.5-16t64-34.5 53-34.5 47.5-16q33 0 53.5 24t20.5 77h104v-35q0-47-17-89.5t-59-74-102-31.5q-50 0-98.5 25t-85 49.5T602 1649q-72 0-72-99H426z"/><glyph unicode="Ò" horiz-adv-x="1363" d="M92 721q0 220 66 385t201 260.5 325 95.5q191 0 325.5-95.5T1209 1106t65-385-65-385-199.5-260.5T684-20q-190 0-325 95.5T158 336 92 721zm180 0q0-283 105-438.5T684 127q200 0 305 155.5T1094 721t-105 438.5T684 1315q-202 0-307-155.5T272 721zm154 1126h188l136-297H616z"/><glyph unicode="Ó" horiz-adv-x="1363" d="M92 721q0 220 66 385t201 260.5 325 95.5q191 0 325.5-95.5T1209 1106t65-385-65-385-199.5-260.5T684-20q-190 0-325 95.5T158 336 92 721zm180 0q0-283 105-438.5T684 127q200 0 305 155.5T1094 721t-105 438.5T684 1315q-202 0-307-155.5T272 721zm332 829 135 297h189l-191-297H604z"/><glyph unicode="Ô" horiz-adv-x="1363" d="M92 721q0 220 66 385t201 260.5 325 95.5q191 0 325.5-95.5T1209 1106t65-385-65-385-199.5-260.5T684-20q-190 0-325 95.5T158 336 92 721zm180 0q0-283 105-438.5T684 127q200 0 305 155.5T1094 721t-105 438.5T684 1315q-202 0-307-155.5T272 721zm158 829 135 297h209l135-297H776l-106 197-107-197H430z"/><glyph unicode="Õ" horiz-adv-x="1363" d="M92 721q0 220 66 385t201 260.5 325 95.5q191 0 325.5-95.5T1209 1106t65-385-65-385-199.5-260.5T684-20q-190 0-325 95.5T158 336 92 721zm180 0q0-283 105-438.5T684 127q200 0 305 155.5T1094 721t-105 438.5T684 1315q-202 0-307-155.5T272 721zm111 829v37q0 47 16 88.5t57.5 73T559 1780q39 0 77.5-16t64-34.5 53-34.5 47.5-16q73 0 73 101h105v-35q0-47-17-89.5t-59-74-102-31.5q-50 0-98.5 25t-85 49.5T559 1649q-72 0-72-99H383z"/><glyph unicode="Ö" horiz-adv-x="1363" d="M92 721q0 220 66 385t201 260.5 325 95.5q191 0 325.5-95.5T1209 1106t65-385-65-385-199.5-260.5T684-20q-190 0-325 95.5T158 336 92 721zm180 0q0-283 105-438.5T684 127q200 0 305 155.5T1094 721t-105 438.5T684 1315q-202 0-307-155.5T272 721zm109 827v191h186v-191H381zm412 0v191h188v-191H793z"/><glyph unicode="×" horiz-adv-x="1181" d="m68 104 413 414L68 930l114 110 410-409 414 411 110-110-414-412 412-411L1001-6 590 408 178-6z"/><glyph unicode="Ø" horiz-adv-x="1437" d="M127 721q0 219 66 384t201 261 325 96q176 0 307-86l92 160 105-61-103-175q189-201 189-579 0-220-65-385T1044.5 75.5 719-20q-179 0-311 83-62-102-91-155L211-31q27 42 102 172-186 201-186 580zm180 0q0-279 96-424l545 942q-96 74-229 74-202 0-307-154.5T307 721zm178-520q99-74 234-74 202 0 308 155t106 439q0 271-101 424-402-696-547-944z"/><glyph unicode="Ù" d="M152 473v969h172V473q0-150 103-247t249-97 249 97 103 247v969h170V473q0-227-148-360T676-20q-148 0-266 57.5t-188 171T152 473zm268 1374h188l135-297H610z"/><glyph unicode="Ú" d="M152 473v969h172V473q0-150 103-247t249-97 249 97 103 247v969h170V473q0-227-148-360T676-20q-148 0-266 57.5t-188 171T152 473zm448 1077 135 297h189l-191-297H600z"/><glyph unicode="Û" d="M152 473v969h172V473q0-150 103-247t249-97 249 97 103 247v969h170V473q0-227-148-360T676-20q-148 0-266 57.5t-188 171T152 473zm282 1077 135 297h209l135-297H780l-106 197-107-197H434z"/><glyph unicode="Ü" d="M152 473v969h172V473q0-150 103-247t249-97 249 97 103 247v969h170V473q0-227-148-360T676-20q-148 0-266 57.5t-188 171T152 473zm221 1075v191h186v-191H373zm411 0v191h189v-191H784z"/><glyph unicode="Ý" horiz-adv-x="1187" d="M55 1442h189l344-582 346 582h194L674 702V0H504v702zm469 108 135 297h189l-191-297H524z"/><glyph unicode="Þ" horiz-adv-x="1198" d="M131 0v1442h172v-297h404q181 0 290-120.5T1106 717q0-188-108.5-308T707 289H305V0H131zm172 438h404q98 0 163.5 86T936 717q0 108-65 194t-164 86H303V438z"/><glyph unicode="ß" horiz-adv-x="1253" d="M152 0v997q0 218 122.5 341.5T610 1462q194 0 308-85t114-220q0-115-67.5-184.5T784 885q-73-11-107-46.5T643 752q0-119 199-140 352-40 352-311 0-143-102-232T836-20Q731-20 654 8.5T534.5 87t-63 105.5T446 315q13 2 71.5 14t88.5 17q1-31 5.5-56t18.5-57.5 37-54.5 65-37.5 99-15.5q14 0 34 2.5t51.5 13.5 56 28.5 43 52T1034 301q0 140-203 166-62 8-109 19t-96 32.5-80.5 51-52 76T473 752q0 115 76.5 184.5T750 1026q62 10 90 47t28 84-26.5 80-70 48.5T689 1307t-79 6q-144 0-217.5-85.5T319 997V0H152z"/><glyph unicode="à" horiz-adv-x="1169" d="M98 299q0 141 112.5 217T524 592h285v94q0 34-5 61.5T783 807t-43 53.5-76 36T549 911q-109 0-176-63.5T303 684l-164 31q5 111 62.5 189.5t147 115.5 200.5 37q217 0 321.5-97T975 690V256q0-63 13.5-93t51.5-30q29 0 56 10V0q-56-12-107-12-79 0-122.5 45T817 152q-18-25-41-47.5t-64-53-102-50T479-20q-179 0-280 87T98 299zm172 0q0-69 53-121.5T485 125q79 0 142.5 25t102 66.5 59 91T809 410v49H524q-76 0-129.5-16t-79-42-35.5-50.5-10-51.5zm35 1143h189l135-297H496z"/><glyph unicode="á" horiz-adv-x="1169" d="M98 299q0 141 112.5 217T524 592h285v94q0 34-5 61.5T783 807t-43 53.5-76 36T549 911q-109 0-176-63.5T303 684l-164 31q5 111 62.5 189.5t147 115.5 200.5 37q217 0 321.5-97T975 690V256q0-63 13.5-93t51.5-30q29 0 56 10V0q-56-12-107-12-79 0-122.5 45T817 152q-18-25-41-47.5t-64-53-102-50T479-20q-179 0-280 87T98 299zm172 0q0-69 53-121.5T485 125q79 0 142.5 25t102 66.5 59 91T809 410v49H524q-76 0-129.5-16t-79-42-35.5-50.5-10-51.5zm207 846 135 297h189l-191-297H477z"/><glyph unicode="â" horiz-adv-x="1169" d="M98 299q0 141 112.5 217T524 592h285v94q0 34-5 61.5T783 807t-43 53.5-76 36T549 911q-109 0-176-63.5T303 684l-164 31q5 111 62.5 189.5t147 115.5 200.5 37q217 0 321.5-97T975 690V256q0-63 13.5-93t51.5-30q29 0 56 10V0q-56-12-107-12-79 0-122.5 45T817 152q-18-25-41-47.5t-64-53-102-50T479-20q-179 0-280 87T98 299zm172 0q0-69 53-121.5T485 125q79 0 142.5 25t102 66.5 59 91T809 410v49H524q-76 0-129.5-16t-79-42-35.5-50.5-10-51.5zm49 846 136 297h209l135-297H666l-107 196-106-196H319z"/><glyph unicode="ã" horiz-adv-x="1169" d="M98 299q0 141 112.5 217T524 592h285v94q0 34-5 61.5T783 807t-43 53.5-76 36T549 911q-109 0-176-63.5T303 684l-164 31q5 111 62.5 189.5t147 115.5 200.5 37q217 0 321.5-97T975 690V256q0-63 13.5-93t51.5-30q29 0 56 10V0q-56-12-107-12-79 0-122.5 45T817 152q-18-25-41-47.5t-64-53-102-50T479-20q-179 0-280 87T98 299zm160 846v37q0 47 16 88.5t57.5 72.5 102.5 31q49 0 96.5-25t84.5-50 61-25q74 0 74 100h104v-35q0-76-45-135t-133-59q-40 0-79 15.5t-64.5 33.5-53 33.5T434 1243q-72 0-72-98H258zm12-846q0-69 53-121.5T485 125q79 0 142.5 25t102 66.5 59 91T809 410v49H524q-76 0-129.5-16t-79-42-35.5-50.5-10-51.5z"/><glyph unicode="ä" horiz-adv-x="1169" d="M98 299q0 141 112.5 217T524 592h285v94q0 34-5 61.5T783 807t-43 53.5-76 36T549 911q-109 0-176-63.5T303 684l-164 31q5 111 62.5 189.5t147 115.5 200.5 37q217 0 321.5-97T975 690V256q0-63 13.5-93t51.5-30q29 0 56 10V0q-56-12-107-12-79 0-122.5 45T817 152q-18-25-41-47.5t-64-53-102-50T479-20q-179 0-280 87T98 299zm158 952v191h186v-191H256zm14-952q0-69 53-121.5T485 125q79 0 142.5 25t102 66.5 59 91T809 410v49H524q-76 0-129.5-16t-79-42-35.5-50.5-10-51.5zm398 952v191h188v-191H668z"/><glyph unicode="å" horiz-adv-x="1169" d="M98 299q0 141 112.5 217T524 592h285v94q0 34-5 61.5T783 807t-43 53.5-76 36T549 911q-109 0-176-63.5T303 684l-164 31q5 111 62.5 189.5t147 115.5 200.5 37q217 0 321.5-97T975 690V256q0-63 13.5-93t51.5-30q29 0 56 10V0q-56-12-107-12-79 0-122.5 45T817 152q-18-25-41-47.5t-64-53-102-50T479-20q-179 0-280 87T98 299zm172 0q0-69 53-121.5T485 125q79 0 142.5 25t102 66.5 59 91T809 410v49H524q-76 0-129.5-16t-79-42-35.5-50.5-10-51.5zm103 1038q0 78 57.5 135.5T567 1530t137-57.5 58-135.5q0-81-57.5-136.5T567 1145t-137 55.5-57 136.5zm100 0q0-39 27.5-66.5T567 1243q38 0 65 27t27 67q0 38-27 65.5t-65 27.5-66-27.5-28-65.5z"/><glyph unicode="æ" horiz-adv-x="1822" d="M90 299q0 149 98 222t308 73h299v92q0 31-4 57.5T771 802t-42.5 54-75.5 37.5T537 909q-116 0-181-57t-65-168l-166 31q5 111 62.5 189.5T335 1020t202 37q269 0 368-178 120 178 348 178 207 0 329-133t122-369q0-59-4-92H969q2-133 83.5-235.5T1260 125q94 0 178 57t121 168l157-39q-14-58-47-113.5t-87-106-137.5-81T1260-20q-121 0-221.5 59.5T885 199Q816 90 720.5 37T477-20q-178 0-282.5 87.5T90 299zm172 2q0-70 56.5-123T487 125q79 0 140 25.5t96.5 68T777 310t18 100v53H504q-74 0-126-16.5t-75-44-32-51.5-9-50zm713 293h553q-2 152-69.5 234.5T1253 911q-87 0-152-46t-95.5-117T975 594z"/><glyph unicode="ç" horiz-adv-x="1089" d="M90 518q0 242 128.5 390.5T565 1057q80 0 147.5-21T827 981t82.5-80 55.5-93 30-97q-12-2-73-14t-93-17q-26 111-94.5 171T565 911q-140 0-221.5-108.5T262 518q0-177 81-286t222-109q103 0 172 60.5T834 354q31-5 92.5-16.5T997 324q-11-62-40.5-120t-80-110-131-83T565-20q-218 0-346.5 147.5T90 518zm256-778 82 16q3-44 39-71t82-27 76 27.5 30 68.5q0 49-34 78t-72 29q-39 0-62-17l-53 52L584 31h78V4l-89-80q69-3 123-48t54-122q0-82-54.5-131T549-426q-88 0-144 47t-59 119z"/><glyph unicode="è" horiz-adv-x="1126" d="M90 518q0 240 127.5 389.5T555 1057q209 0 332-135.5T1010 549q0-55-4-86H270q2-132 86-236t211-104q107 0 191 58t116 169l158-39q-13-58-47.5-113.5T894.5 92t-141-81T567-20q-207 0-342 150T90 518zm186 80h551q-3 150-70 231.5T555 911q-130 0-203.5-92.5T276 598zm19 844h188l135-297H485z"/><glyph unicode="é" horiz-adv-x="1126" d="M90 518q0 240 127.5 389.5T555 1057q209 0 332-135.5T1010 549q0-55-4-86H270q2-132 86-236t211-104q107 0 191 58t116 169l158-39q-13-58-47.5-113.5T894.5 92t-141-81T567-20q-207 0-342 150T90 518zm186 80h551q-3 150-70 231.5T555 911q-130 0-203.5-92.5T276 598zm220 547 135 297h188l-190-297H496z"/><glyph unicode="ê" horiz-adv-x="1126" d="M90 518q0 240 127.5 389.5T555 1057q209 0 332-135.5T1010 549q0-55-4-86H270q2-132 86-236t211-104q107 0 191 58t116 169l158-39q-13-58-47.5-113.5T894.5 92t-141-81T567-20q-207 0-342 150T90 518zm186 80h551q-3 150-70 231.5T555 911q-130 0-203.5-92.5T276 598zm52 547 135 297h209l135-297H674l-107 196-106-196H328z"/><glyph unicode="ë" horiz-adv-x="1126" d="M90 518q0 240 127.5 389.5T555 1057q209 0 332-135.5T1010 549q0-55-4-86H270q2-132 86-236t211-104q107 0 191 58t116 169l158-39q-13-58-47.5-113.5T894.5 92t-141-81T567-20q-207 0-342 150T90 518zm172 733v191h187v-191H262zm14-653h551q-3 150-70 231.5T555 911q-130 0-203.5-92.5T276 598zm398 653v191h188v-191H674z"/><glyph unicode="ì" horiz-adv-x="518" d="M2 1442h188l136-297H193zM174 0v1036h168V0H174z"/><glyph unicode="í" horiz-adv-x="518" d="M174 0v1036h168V0H174zm21 1145 135 297h188l-190-297H195z"/><glyph unicode="î" horiz-adv-x="518" d="m20 1145 136 297h209l135-297H367l-107 196-106-196H20zM174 0v1036h168V0H174z"/><glyph unicode="ï" horiz-adv-x="518" d="M-39 1251v191h186v-191H-39zM170 0v1036h168V0H170zm203 1251v191h188v-191H373z"/><glyph unicode="ð" horiz-adv-x="1114" d="M90 518q0 243 122.5 391T543 1057q89 0 164-35-55 99-119 188l-252-84-39 111 215 74q-12 16-28 34.5t-27.5 31.5-30.5 33.5-29 31.5l138 37q61-61 112-123l256 86 39-113-219-74q132-181 216.5-374.5T1024 518q0-242-125.5-390T557-20q-217 0-342 147.5T90 518zm170 0q0-182 79.5-287.5T557 125q139 0 219 105.5T856 518q0 181-80 287T557 911q-138 0-217.5-106T260 518z"/><glyph unicode="ñ" horiz-adv-x="1146" d="M152 0v1036h147l20-123q35 59 112 101.5t183 42.5q212-1 307-122.5t95-373.5V0H848v561q0 183-60.5 266T584 911q-137 0-201-87t-64-263V0H152zm129 1145v37q0 47 16 88.5t57.5 72.5 102.5 31q39 0 77.5-15.5T598 1324t52.5-34.5T698 1274q74 0 74 100h105v-35q0-76-45.5-135T698 1145q-50 0-98 24.5t-84.5 49T457 1243q-72 0-72-98H281z"/><glyph unicode="ò" horiz-adv-x="1114" d="M92 518q0 245 124.5 392T559 1057q215 0 340-148t125-391q0-242-124.5-390T559-20q-218 0-342.5 147.5T92 518zm168 0q0-182 80-288.5T559 123q138 0 217.5 106.5T856 518q0 181-79.5 287T559 911q-139 0-219-106t-80-287zm39 924h188l136-297H489z"/><glyph unicode="ó" horiz-adv-x="1114" d="M92 518q0 245 124.5 392T559 1057q215 0 340-148t125-391q0-242-124.5-390T559-20q-218 0-342.5 147.5T92 518zm168 0q0-182 80-288.5T559 123q138 0 217.5 106.5T856 518q0 181-79.5 287T559 911q-139 0-219-106t-80-287zm219 627 135 297h189l-191-297H479z"/><glyph unicode="ô" horiz-adv-x="1114" d="M92 518q0 245 124.5 392T559 1057q215 0 340-148t125-391q0-242-124.5-390T559-20q-218 0-342.5 147.5T92 518zm168 0q0-182 80-288.5T559 123q138 0 217.5 106.5T856 518q0 181-79.5 287T559 911q-139 0-219-106t-80-287zm55 627 136 297h208l136-297H662l-107 196-106-196H315z"/><glyph unicode="õ" horiz-adv-x="1114" d="M92 518q0 245 124.5 392T559 1057q215 0 340-148t125-391q0-242-124.5-390T559-20q-218 0-342.5 147.5T92 518zm162 627v37q0 47 16 88.5t57.5 72.5 102.5 31q49 0 96.5-25t84.5-50 61-25q73 0 73 100h105v-35q0-76-45-135t-133-59q-40 0-79 15.5t-64.5 33.5-53 33.5T430 1243q-72 0-72-98H254zm6-627q0-182 80-288.5T559 123q138 0 217.5 106.5T856 518q0 181-79.5 287T559 911q-139 0-219-106t-80-287z"/><glyph unicode="ö" horiz-adv-x="1114" d="M92 518q0 245 124.5 392T559 1057q215 0 340-148t125-391q0-242-124.5-390T559-20q-218 0-342.5 147.5T92 518zm162 733v191h186v-191H254zm6-733q0-182 80-288.5T559 123q138 0 217.5 106.5T856 518q0 181-79.5 287T559 911q-139 0-219-106t-80-287zm406 733v191h188v-191H666z"/><glyph unicode="÷" horiz-adv-x="1236" d="M100 451v145h1037V451H100zM502 0v229h231V0H502zm0 807v229h231V807H502z"/><glyph unicode="ø" horiz-adv-x="1132" d="M90 518q0 243 124.5 391T557 1057q122 0 223-56 69 117 88 150l101-59-92-162q147-150 147-412 0-242-125.5-390T557-20q-110 0-207 43-14-25-86-152-71 43-102 59l90 156q-78 71-120 182T90 518zm168 0q0-178 80-285l367 635q-62 41-148 41h-12q-134-4-210.5-110T258 518zm170-364q54-29 129-29 139 0 218 105.5T854 518q0 161-66 262z"/><glyph unicode="ù" horiz-adv-x="1130" d="M117 475v561h166V475q0-182 61.5-265.5T549 125q137 0 200.5 87T813 475v561h166V0H834l-21 123Q773 66 697 23T514-20q-211 1-304 121.5T117 475zm184 967h188l136-297H492z"/><glyph unicode="ú" horiz-adv-x="1130" d="M117 475v561h166V475q0-182 61.5-265.5T549 125q137 0 200.5 87T813 475v561h166V0H834l-21 123Q773 66 697 23T514-20q-211 1-304 121.5T117 475zm358 670 135 297h189l-191-297H475z"/><glyph unicode="û" horiz-adv-x="1130" d="M117 475v561h166V475q0-182 61.5-265.5T549 125q137 0 200.5 87T813 475v561h166V0H834l-21 123Q773 66 697 23T514-20q-211 1-304 121.5T117 475zm198 670 136 297h208l136-297H662l-107 196-106-196H315z"/><glyph unicode="ü" horiz-adv-x="1130" d="M117 475v561h166V475q0-182 61.5-265.5T549 125q137 0 200.5 87T813 475v561h166V0H834l-21 123Q773 66 697 23T514-20q-211 1-304 121.5T117 475zm131 776v191h186v-191H248zm411 0v191h189v-191H659z"/><glyph unicode="ý" horiz-adv-x="1009" d="M41 1036h172q41-116 139-393t152-426l293 819h172Q726 361 440-406H272L420 0zm377 109 135 297h188l-190-297H418z"/><glyph unicode="þ" horiz-adv-x="1200" d="M143-406v1848h168V899q17 23 40 45.5t61 50.5 92 45 114 17q209 0 328-148t119-391q0-239-124.5-388.5T618-20q-60 0-113.5 17T413 41t-62 50-40 46v-543H143zm168 924q0-180 72.5-286.5T596 125q142 0 222.5 108T899 518t-80.5 284T596 909q-140 0-212.5-105.5T311 518z"/><glyph unicode="ÿ" horiz-adv-x="1011" d="M41 1036h172q41-116 139-393t152-426l293 819h172Q726 361 440-406H272L420 0zm164 215v191h186v-191H205zm411 0v191h189v-191H616z"/><glyph unicode="Ā" horiz-adv-x="1304" d="m47 0 520 1442h172L1260 0h-177L971 317H336L223 0H47zm285 1550v129h641v-129H332zm53-1085h535l-267 745z"/><glyph unicode="ā" horiz-adv-x="1169" d="M98 299q0 141 112.5 217T524 592h285v94q0 34-5 61.5T783 807t-43 53.5-76 36T549 911q-109 0-176-63.5T303 684l-164 31q5 111 62.5 189.5t147 115.5 200.5 37q217 0 321.5-97T975 690V256q0-63 13.5-93t51.5-30q29 0 56 10V0q-56-12-107-12-79 0-122.5 45T817 152q-18-25-41-47.5t-64-53-102-50T479-20q-179 0-280 87T98 299zm138 846v129h641v-129H236zm34-846q0-69 53-121.5T485 125q79 0 142.5 25t102 66.5 59 91T809 410v49H524q-76 0-129.5-16t-79-42-35.5-50.5-10-51.5z"/><glyph unicode="Ă" horiz-adv-x="1304" d="m47 0 520 1442h172L1260 0h-177L971 317H336L223 0H47zm328 1847h121q0-76 41.5-129t113.5-53 114 53 42 129h123q0-140-80-218.5T651 1550q-118 0-197 78.5T375 1847zm10-1382h535l-267 745z"/><glyph unicode="ă" horiz-adv-x="1169" d="M98 299q0 141 112.5 217T524 592h285v94q0 34-5 61.5T783 807t-43 53.5-76 36T549 911q-109 0-176-63.5T303 684l-164 31q5 111 62.5 189.5t147 115.5 200.5 37q217 0 321.5-97T975 690V256q0-63 13.5-93t51.5-30q29 0 56 10V0q-56-12-107-12-79 0-122.5 45T817 152q-18-25-41-47.5t-64-53-102-50T479-20q-179 0-280 87T98 299zm172 0q0-69 53-121.5T485 125q79 0 142.5 25t102 66.5 59 91T809 410v49H524q-76 0-129.5-16t-79-42-35.5-50.5-10-51.5zm35 1143h121q0-76 42-129t114-53 113.5 53 41.5 129h123q0-140-79.5-218.5T582 1145q-118 0-197.5 78.5T305 1442z"/><glyph unicode="Ą" horiz-adv-x="1304" d="m47 0 520 1442h172L1260 0h-177L971 317H336L223 0H47zm338 465h535l-267 745zm580-672q0 100 64 170t183 70V0q-55-4-90-46t-35-104q0-67 39-105t99-38h35v-113h-54q-105 0-170 55.5T965-207z"/><glyph unicode="ą" horiz-adv-x="1169" d="M98 299q0 141 112.5 217T524 592h285v94q0 34-5 61.5T783 807t-43 53.5-76 36T549 911q-109 0-176-63.5T303 684l-164 31q5 111 62.5 189.5t147 115.5 200.5 37q217 0 321.5-97T975 690V256q0-63 13.5-93t51.5-30q29 0 56 10V0q-56-12-107-12-79 0-122.5 45T817 152q-18-25-41-47.5t-64-53-102-50T479-20q-179 0-280 87T98 299zm172 0q0-69 53-121.5T485 125q79 0 142.5 25t102 66.5 59 91T809 410v49H524q-76 0-129.5-16t-79-42-35.5-50.5-10-51.5zm531-506q0 100 64.5 170T1049 33V0q-55-4-90-46t-35-104q0-67 38.5-105t98.5-38h35v-113h-54q-105 0-170 55.5T801-207z"/><glyph unicode="Ć" horiz-adv-x="1298" d="M90 721q0 218 68 384.5T361 1367t321 95q98 0 182.5-29t140.5-73 99.5-102 67-109 36.5-102l-166-39q-16 50-43 98.5t-69.5 98-107 80T682 1315q-201 0-308.5-156T266 721t107.5-437T682 129q78 0 143 29.5t107.5 77 69 95T1042 426l166-31q-11-50-35-102t-68-109.5T1004.5 82t-141-73T682-20q-186 0-321 95T158 336.5 90 721zm543 829 135 297h188l-190-297H633z"/><glyph unicode="ć" horiz-adv-x="1089" d="M90 518q0 242 128.5 390.5T565 1057q80 0 147.5-21T827 981t82.5-80 55.5-93 30-97q-12-2-73-14t-93-17q-26 111-94.5 171T565 911q-140 0-221.5-108.5T262 518q0-177 81-286t222-109q103 0 172 60.5T834 354q31-5 92.5-16.5T997 324q-11-62-40.5-120t-80-110-131-83T565-20q-218 0-346.5 147.5T90 518zm424 627 135 297h189l-191-297H514z"/><glyph unicode="Ĉ" horiz-adv-x="1298" d="M90 721q0 218 68 384.5T361 1367t321 95q98 0 182.5-29t140.5-73 99.5-102 67-109 36.5-102l-166-39q-16 50-43 98.5t-69.5 98-107 80T682 1315q-201 0-308.5-156T266 721t107.5-437T682 129q78 0 143 29.5t107.5 77 69 95T1042 426l166-31q-11-50-35-102t-68-109.5T1004.5 82t-141-73T682-20q-186 0-321 95T158 336.5 90 721zm324 829 135 297h209l135-297H760l-107 197-106-197H414z"/><glyph unicode="ĉ" horiz-adv-x="1089" d="M90 518q0 242 128.5 390.5T565 1057q80 0 147.5-21T827 981t82.5-80 55.5-93 30-97q-12-2-73-14t-93-17q-26 111-94.5 171T565 911q-140 0-221.5-108.5T262 518q0-177 81-286t222-109q103 0 172 60.5T834 354q31-5 92.5-16.5T997 324q-11-62-40.5-120t-80-110-131-83T565-20q-218 0-346.5 147.5T90 518zm215 627 135 297h209l135-297H651l-106 196-107-196H305z"/><glyph unicode="Ċ" horiz-adv-x="1298" d="M90 721q0 218 68 384.5T361 1367t321 95q98 0 182.5-29t140.5-73 99.5-102 67-109 36.5-102l-166-39q-16 50-43 98.5t-69.5 98-107 80T682 1315q-201 0-308.5-156T266 721t107.5-437T682 129q78 0 143 29.5t107.5 77 69 95T1042 426l166-31q-11-50-35-102t-68-109.5T1004.5 82t-141-73T682-20q-186 0-321 95T158 336.5 90 721zm459 936v190h196v-190H549z"/><glyph unicode="ċ" horiz-adv-x="1089" d="M90 518q0 242 128.5 390.5T565 1057q80 0 147.5-21T827 981t82.5-80 55.5-93 30-97q-12-2-73-14t-93-17q-26 111-94.5 171T565 911q-140 0-221.5-108.5T262 518q0-177 81-286t222-109q103 0 172 60.5T834 354q31-5 92.5-16.5T997 324q-11-62-40.5-120t-80-110-131-83T565-20q-218 0-346.5 147.5T90 518zm354 733v191h197v-191H444z"/><glyph unicode="Č" horiz-adv-x="1298" d="M90 721q0 218 68 384.5T361 1367t321 95q98 0 182.5-29t140.5-73 99.5-102 67-109 36.5-102l-166-39q-16 50-43 98.5t-69.5 98-107 80T682 1315q-201 0-308.5-156T266 721t107.5-437T682 129q78 0 143 29.5t107.5 77 69 95T1042 426l166-31q-11-50-35-102t-68-109.5T1004.5 82t-141-73T682-20q-186 0-321 95T158 336.5 90 721zm318 1126h133l106-196 107 196h133l-135-297H543z"/><glyph unicode="č" horiz-adv-x="1089" d="M90 518q0 242 128.5 390.5T565 1057q80 0 147.5-21T827 981t82.5-80 55.5-93 30-97q-12-2-73-14t-93-17q-26 111-94.5 171T565 911q-140 0-221.5-108.5T262 518q0-177 81-286t222-109q103 0 172 60.5T834 354q31-5 92.5-16.5T997 324q-11-62-40.5-120t-80-110-131-83T565-20q-218 0-346.5 147.5T90 518zm213 924h133l107-197 106 197h133l-135-297H438z"/><glyph unicode="Ď" horiz-adv-x="1366" d="M152 0v1442h501q116 0 211-34t164-96.5 116-151.5 70-199.5 23-239.5q0-221-62.5-381T981 90 659 0H152zm172 150h329q192 0 299 148t107 423q0 273-107.5 423T653 1294H324V150zm51 1697h133l106-196 107 196h133l-135-297H510z"/><glyph unicode="ď" horiz-adv-x="1173" d="M90 518q0 242 120 390.5T537 1057q61 0 116.5-17.5t95-45.5 65.5-53.5 42-49.5v551h168V0H877l-21 147q-22-34-59-68.5T688.5 12 537-20q-195 0-321 150T90 518zm172 0q0-182 82-288.5T567 123q138 0 213.5 105.5T856 518q0 182-75.5 287.5T567 911q-141 0-223-106.5T262 518zm840 637q11 22 33.5 70t35.5 73h-69v144h143v-144l-84-143h-59z"/><glyph unicode="Đ" horiz-adv-x="1468" d="M35 657v117h235v668h496q144-1 256-55.5t183.5-151.5 108-230 36.5-296q0-333-148.5-521T766 0H270v657H35zm405-510h326q193 0 299 144t106 418q0 275-107 430t-298 155H440V774h234V657H440V147z"/><glyph unicode="đ" horiz-adv-x="1296" d="M90 518q0 242 120 390.5T537 1057q61 0 116.5-17.5t95-45.5 65.5-53.5 42-49.5v256H621v119h235v176h168v-176h238v-119h-238V0H877l-21 147q-22-34-59-68.5T688.5 12 537-20q-195 0-321 150T90 518zm172 0q0-182 82-287.5T567 125q138 0 213.5 104.5T856 518q0 182-75.5 287.5T567 911q-141 0-223-106.5T262 518z"/><glyph unicode="Ē" horiz-adv-x="1216" d="M152 0v1442h956v-148H324V815h696V668H324V150h784V0H152zm135 1550v129h641v-129H287z"/><glyph unicode="ē" horiz-adv-x="1124" d="M90 518q0 240 127.5 389.5T555 1057q209 0 332-135.5T1010 549q0-55-4-86H270q2-132 86-236t211-104q107 0 191 58t116 169l158-39q-13-58-47.5-113.5T894.5 92t-141-81T567-20q-207 0-342 150T90 518zm150 627v129h641v-129H240zm36-547h551q-3 150-70 231.5T555 911q-130 0-203.5-92.5T276 598z"/><glyph unicode="Ĕ" horiz-adv-x="1216" d="M152 0v1442h956v-148H324V815h696V668H324V150h784V0H152zm178 1847h121q0-76 41.5-129t113.5-53 114 53 42 129h123q0-140-80-218.5T606 1550q-118 0-197 78.5T330 1847z"/><glyph unicode="ĕ" horiz-adv-x="1124" d="M90 518q0 240 127.5 389.5T555 1057q209 0 332-135.5T1010 549q0-55-4-86H270q2-132 86-236t211-104q107 0 191 58t116 169l158-39q-13-58-47.5-113.5T894.5 92t-141-81T567-20q-207 0-342 150T90 518zm186 80h551q-3 150-70 231.5T555 911q-130 0-203.5-92.5T276 598zm15 844h121q0-76 41.5-129t113.5-53 114 53 42 129h123q0-140-80-218.5T567 1145q-118 0-197 78.5T291 1442z"/><glyph unicode="Ė" horiz-adv-x="1216" d="M152 0v1442h956v-148H324V815h696V668H324V150h784V0H152zm387 1548v191h196v-191H539z"/><glyph unicode="ė" horiz-adv-x="1124" d="M90 518q0 240 127.5 389.5T555 1057q209 0 332-135.5T1010 549q0-55-4-86H270q2-132 86-236t211-104q107 0 191 58t116 169l158-39q-13-58-47.5-113.5T894.5 92t-141-81T567-20q-207 0-342 150T90 518zm186 80h551q-3 150-70 231.5T555 911q-130 0-203.5-92.5T276 598zm187 653v191h196v-191H463z"/><glyph unicode="Ę" horiz-adv-x="1216" d="M152 0v1442h956v-148H324V815h696V668H324V150h784V0H152zm661-207q0 100 64.5 170T1061 33V0q-55-4-90-46t-35-104q0-67 38.5-105t98.5-38h35v-113h-53q-105 0-170.5 55.5T813-207z"/><glyph unicode="ę" horiz-adv-x="1124" d="M90 518q0 240 127.5 389.5T555 1057q209 0 332-135.5T1010 549q0-55-4-86H270q2-132 86-236t211-104q107 0 191 58t116 169l158-39q-13-58-47.5-113.5T894.5 92t-141-81T567-20q-207 0-342 150T90 518zm186 80h551q-3 150-70 231.5T555 911q-130 0-203.5-92.5T276 598zm183-805q0 100 64.5 170T707 33V0q-55-4-90-46t-35-104q0-67 38.5-105t98.5-38h35v-113h-54q-105 0-170 55.5T459-207z"/><glyph unicode="Ě" horiz-adv-x="1216" d="M152 0v1442h956v-148H324V815h696V668H324V150h784V0H152zm215 1847h133l106-196 107 196h133l-135-297H502z"/><glyph unicode="ě" horiz-adv-x="1124" d="M90 518q0 240 127.5 389.5T555 1057q209 0 332-135.5T1010 549q0-55-4-86H270q2-132 86-236t211-104q107 0 191 58t116 169l158-39q-13-58-47.5-113.5T894.5 92t-141-81T567-20q-207 0-342 150T90 518zm186 80h551q-3 150-70 231.5T555 911q-130 0-203.5-92.5T276 598zm46 844h133l106-197 107 197h133l-135-297H457z"/><glyph unicode="Ĝ" horiz-adv-x="1406" d="M90 721q0 224 73.5 391.5T374 1371t320 91q115 0 208-30t156.5-85.5 105.5-125 67-156.5l-162-31q-49 142-147 210.5T694 1313q-206 0-315-152T270 721q0-290 109-442t315-152q80 0 147 26t113.5 69.5 79 101T1081 445t15 130v72H694v146h568V0h-146l-24 201q-37-82-151.5-151.5T678-20q-189 0-323 94.5t-199.5 260T90 721zm373 829 135 297h209l135-297H809l-107 197-106-197H463z"/><glyph unicode="ĝ" horiz-adv-x="1175" d="M90 518q0 239 124.5 389T539 1057q112 0 197.5-54.5T856 881l21 155h147V37q0-226-123.5-344.5T567-426q-170 0-281 73T139-154l164 39q19-68 90.5-117T567-281q151 0 220 87.5T856 37v106Q823 78 735 29T539-20q-194 0-321.5 150.5T90 518zm172 0q0-182 82-288.5T565 123t215 105.5T856 518q0 183-76 288T565 911 344 804.5 262 518zm84 627 135 297h209l135-297H692l-106 196-107-196H346z"/><glyph unicode="Ğ" horiz-adv-x="1406" d="M90 721q0 224 73.5 391.5T374 1371t320 91q115 0 208-30t156.5-85.5 105.5-125 67-156.5l-162-31q-49 142-147 210.5T694 1313q-206 0-315-152T270 721q0-290 109-442t315-152q80 0 147 26t113.5 69.5 79 101T1081 445t15 130v72H694v146h568V0h-146l-24 201q-37-82-151.5-151.5T678-20q-189 0-323 94.5t-199.5 260T90 721zm334 1126h121q0-76 41.5-129t113.5-53 114 53 42 129h123q0-140-80-218.5T700 1550q-118 0-197 78.5T424 1847z"/><glyph unicode="ğ" horiz-adv-x="1175" d="M90 518q0 239 124.5 389T539 1057q112 0 197.5-54.5T856 881l21 155h147V37q0-226-123.5-344.5T567-426q-170 0-281 73T139-154l164 39q19-68 90.5-117T567-281q151 0 220 87.5T856 37v106Q823 78 735 29T539-20q-194 0-321.5 150.5T90 518zm172 0q0-182 82-288.5T565 123t215 105.5T856 518q0 183-76 288T565 911 344 804.5 262 518zm47 924h121q0-76 42-129t114-53 113.5 53 41.5 129h123q0-140-79.5-218.5T586 1145q-118 0-197.5 78.5T309 1442z"/><glyph unicode="Ġ" horiz-adv-x="1406" d="M90 721q0 224 73.5 391.5T374 1371t320 91q115 0 208-30t156.5-85.5 105.5-125 67-156.5l-162-31q-49 142-147 210.5T694 1313q-206 0-315-152T270 721q0-290 109-442t315-152q80 0 147 26t113.5 69.5 79 101T1081 445t15 130v72H694v146h568V0h-146l-24 201q-37-82-151.5-151.5T678-20q-189 0-323 94.5t-199.5 260T90 721zm514 936v190h197v-190H604z"/><glyph unicode="ġ" horiz-adv-x="1175" d="M90 518q0 239 124.5 389T539 1057q112 0 197.5-54.5T856 881l21 155h147V37q0-226-123.5-344.5T567-426q-170 0-281 73T139-154l164 39q19-68 90.5-117T567-281q151 0 220 87.5T856 37v106Q823 78 735 29T539-20q-194 0-321.5 150.5T90 518zm172 0q0-182 82-288.5T565 123t215 105.5T856 518q0 183-76 288T565 911 344 804.5 262 518zm225 733v191h197v-191H487z"/><glyph unicode="Ģ" horiz-adv-x="1406" d="M90 721q0 224 73.5 391.5T374 1371t320 91q115 0 208-30t156.5-85.5 105.5-125 67-156.5l-162-31q-49 142-147 210.5T694 1313q-206 0-315-152T270 721q0-290 109-442t315-152q80 0 147 26t113.5 69.5 79 101T1081 445t15 130v72H694v146h568V0h-146l-24 201q-37-82-151.5-151.5T678-20q-189 0-323 94.5t-199.5 260T90 721zm518-840h144v-143l-84-144h-60q11 22 34 70.5t36 73.5h-70v143z"/><glyph unicode="ģ" horiz-adv-x="1175" d="M90 518q0 239 124.5 389T539 1057q112 0 197.5-54.5T856 881l21 155h147V37q0-226-123.5-344.5T567-426q-170 0-281 73T139-154l164 39q19-68 90.5-117T567-281q151 0 220 87.5T856 37v106Q823 78 735 29T539-20q-194 0-321.5 150.5T90 518zm172 0q0-182 82-288.5T565 123t215 105.5T856 518q0 183-76 288T565 911 344 804.5 262 518zm215 637v143l84 144h60q-11-22-34-70.5t-36-73.5h70v-143H477z"/><glyph unicode="Ĥ" horiz-adv-x="1335" d="M152 0v1442h172V815h688v627h170V0h-170v668H324V0H152zm274 1550 135 297h209l135-297H772l-106 197-107-197H426z"/><glyph unicode="ĥ" horiz-adv-x="1140" d="m-2 1550 135 297h209l135-297H344l-106 197-107-197H-2zM152 0v1442h167V909q111 148 295 148 210-1 306-123t96-373V0H848v561q0 183-60.5 267T584 913q-137 0-201-88t-64-264V0H152z"/><glyph unicode="Ħ" horiz-adv-x="1335" d="M37 1145v117h115v180h172v-180h688v180h170v-180h114v-117h-114V0h-170v668H324V0H152v1145H37zm287-330h688v330H324V815z"/><glyph unicode="ħ" horiz-adv-x="1140" d="M37 1145v117h115v180h167v-180h361v-117H319V909q111 148 295 148 210-1 306-123t96-373V0H848v561q0 183-60.5 267T584 913q-137 0-201-88t-64-264V0H152v1145H37z"/><glyph unicode="Ĩ" horiz-adv-x="475" d="M-59 1550v37q0 47 16 88.5t57.5 73T117 1780q39 0 77.5-16t63.5-34.5 52.5-34.5 47.5-16q33 0 53.5 24t20.5 77h105v-35q0-47-17.5-90t-59.5-74-102-31q-50 0-98 25t-84.5 49.5T117 1649q-72 0-72-99H-59zM154 0v1442h170V0H154z"/><glyph unicode="ĩ" horiz-adv-x="487" d="M-53 1145v37q0 47 16 88.5t57.5 72.5 102.5 31q49 0 96.5-25t84.5-50 61-25q73 0 73 100h105v-35q0-76-45-135t-133-59q-40 0-79 15.5t-64.5 33.5-53 33.5T123 1243q-72 0-72-98H-53zM160 0v1036h168V0H160z"/><glyph unicode="Ī" horiz-adv-x="475" d="M-82 1550v129h641v-129H-82zM154 0v1442h170V0H154z"/><glyph unicode="ī" horiz-adv-x="487" d="M-76 1145v129h641v-129H-76zM160 0v1036h168V0H160z"/><glyph unicode="Į" horiz-adv-x="475" d="M29-207q0 100 64 170t183 70V0q-55-4-89.5-46T152-150q0-67 38.5-105t98.5-38h35v-113h-54q-105 0-170 55.5T29-207zM154 0v1442h170V0H154z"/><glyph unicode="į" horiz-adv-x="518" d="M51-207q0 100 64.5 170T299 33V0q-55-4-90-46t-35-104q0-67 38.5-105t98.5-38h35v-113h-53q-105 0-170.5 55.5T51-207zm109 1458v191h198v-191H160zM176 0v1036h166V0H176z"/><glyph unicode="İ" horiz-adv-x="475" d="M141 1548v191h197v-191H141zM154 0v1442h170V0H154z"/><glyph unicode="ı" horiz-adv-x="487" d="M160 0v1036h168V0H160z"/><glyph unicode="Ĳ" horiz-adv-x="1413" d="M154 0v1442h170V0H154zm360 401 172 31q0-39 1-65.5t5.5-61.5 12-57.5 22.5-47 35.5-39T814 138t71-9q54 0 92.5 16t60 40 33.5 61.5 15.5 70 3.5 76.5v1049h172V397q0-75-9-133t-33.5-113-66-91T1044 2 883-20q-106 0-180.5 33T588 106.5t-57 132T514 401z"/><glyph unicode="ĳ" horiz-adv-x="1028" d="M160 1251v191h198v-191H160zM176 0v1036h166V0H176zm289-260h113q54 0 82 33t28 94v1169h166V-141q0-265-262-265H465v146zm207 1511v191h198v-191H672z"/><glyph unicode="Ĵ" horiz-adv-x="935" d="m39 401 172 31q0-39 1-65.5t5.5-61.5 12-57.5 22.5-47 35.5-39T339 138t71-9q54 0 92.5 16t59.5 40 33.5 61.5 15.5 70 3 76.5v1049h172V397q0-95-15-164t-54.5-129.5-116.5-92T408-20q-106 0-180.5 33T113 106.5t-57 132T39 401zm424 1149 135 297h209l135-297H809l-107 197-106-197H463z"/><glyph unicode="ĵ" horiz-adv-x="507" d="M-53-260H59q54 0 82.5 33.5T170-133v1169h166V-141q0-265-262-265H-53v146zm69 1405 136 297h208l136-297H362l-106 196-106-196H16z"/><glyph unicode="Ķ" horiz-adv-x="1296" d="M152 0v1442h172V778l698 664h235L600 817 1260 0h-205Q945 138 736 396T485 707L324 553V0H152zm411-119h144v-143l-84-144h-60q11 22 34 70.5t36 73.5h-70v143z"/><glyph unicode="ķ" horiz-adv-x="1120" d="M152 0v1442h167V573l482 463h229L592 616 1087 0H883L477 504 319 354V0H152zm319-119h143v-143l-84-144h-59q11 22 34 70.5t36 73.5h-70v143z"/><glyph unicode="ĸ" horiz-adv-x="1122" d="M152 0v1036h167V573l482 463h229L592 616 1087 0H885L477 504 319 354V0H152z"/><glyph unicode="Ĺ" horiz-adv-x="1040" d="M152 0v1442h172V150h675V0H152zm14 1550 135 297h188l-190-297H166z"/><glyph unicode="ĺ" horiz-adv-x="471" d="M154 0v1442h165V0H154zm6 1550 135 297h188l-190-297H160z"/><glyph unicode="Ļ" horiz-adv-x="1040" d="M152 0v1442h172V150h675V0H152zm333-119h144v-143l-84-144h-60q11 22 34 70.5t36 73.5h-70v143z"/><glyph unicode="ļ" horiz-adv-x="471" d="M154 0v1442h165V0H154zm10-119h143v-143l-84-144h-59q11 22 33.5 70.5T233-262h-69v143z"/><glyph unicode="Ľ" horiz-adv-x="1040" d="M152 0v1442h172V150h675V0H152zm251 1155q11 21 33.5 69t36.5 74h-70v144h144v-144l-84-143h-60z"/><glyph unicode="ľ" horiz-adv-x="473" d="M154 0v1442h165V0H154zm247 1155q11 21 33.5 69t36.5 74h-70v144h144v-144l-84-143h-60z"/><glyph unicode="Ŀ" horiz-adv-x="1040" d="M152 0v1442h172V150h675V0H152zm313 625v229h231V625H465z"/><glyph unicode="ŀ" horiz-adv-x="473" d="M154 0v1442h165V0H154zm247 625v229h232V625H401z"/><glyph unicode="Ł" horiz-adv-x="1042" d="M33 367v170l123 120v785h170V825l211 211V864L326 655V150h675V0H156v487z"/><glyph unicode="ł" horiz-adv-x="573" d="M35 365v172q96 93 162 161v744h168V864l172 172V864L365 692V0H197v526z"/><glyph unicode="Ń" horiz-adv-x="1359" d="M152 0v1442h167l723-1139v1139h172V0h-170L324 1139V0H152zm446 1550 135 297h189l-191-297H598z"/><glyph unicode="ń" horiz-adv-x="1146" d="M152 0v1036h147l20-123q35 59 112 101.5t183 42.5q212-1 307-122.5t95-373.5V0H848v561q0 183-60.5 266T584 911q-137 0-201-87t-64-263V0H152zm401 1145 135 297h189l-191-297H553z"/><glyph unicode="Ņ" horiz-adv-x="1359" d="M152 0v1442h167l723-1139v1139h172V0h-170L324 1139V0H152zm454-119h144v-143l-84-144h-60q11 22 34 70.5t36 73.5h-70v143z"/><glyph unicode="ņ" horiz-adv-x="1146" d="M152 0v1036h147l20-123q35 59 112 101.5t183 42.5q212-1 307-122.5t95-373.5V0H848v561q0 183-60.5 266T584 911q-137 0-201-87t-64-263V0H152zm348-119h143v-143l-84-144h-59q11 22 33.5 70.5T569-262h-69v143z"/><glyph unicode="Ň" horiz-adv-x="1359" d="M152 0v1442h167l723-1139v1139h172V0h-170L324 1139V0H152zm286 1847h133l107-196 106 196h134l-136-297H573z"/><glyph unicode="ň" horiz-adv-x="1146" d="M152 0v1036h147l20-123q35 59 112 101.5t183 42.5q212-1 307-122.5t95-373.5V0H848v561q0 183-60.5 266T584 911q-137 0-201-87t-64-263V0H152zm180 1442h133l106-197 107 197h133l-135-297H467z"/><glyph unicode="ŉ" horiz-adv-x="1146" d="M8 1155q11 21 33.5 69t36.5 74H8v144h144v-144l-84-143H8zM152 0v1036h147l20-123q35 59 112 101.5t183 42.5q212-1 307-122.5t95-373.5V0H848v561q0 183-60.5 266T584 911q-137 0-201-87t-64-263V0H152z"/><glyph unicode="Ō" horiz-adv-x="1363" d="M92 721q0 220 66 385t201 260.5 325 95.5q191 0 325.5-95.5T1209 1106t65-385-65-385-199.5-260.5T684-20q-190 0-325 95.5T158 336 92 721zm180 0q0-283 105-438.5T684 127q200 0 305 155.5T1094 721t-105 438.5T684 1315q-202 0-307-155.5T272 721zm88 829v129h641v-129H360z"/><glyph unicode="ō" horiz-adv-x="1114" d="M92 518q0 245 124.5 392T559 1057q215 0 340-148t125-391q0-242-124.5-390T559-20q-218 0-342.5 147.5T92 518zm144 627v129h641v-129H236zm24-627q0-182 80-288.5T559 123q138 0 217.5 106.5T856 518q0 181-79.5 287T559 911q-139 0-219-106t-80-287z"/><glyph unicode="Ŏ" horiz-adv-x="1363" d="M92 721q0 220 66 385t201 260.5 325 95.5q191 0 325.5-95.5T1209 1106t65-385-65-385-199.5-260.5T684-20q-190 0-325 95.5T158 336 92 721zm180 0q0-283 105-438.5T684 127q200 0 305 155.5T1094 721t-105 438.5T684 1315q-202 0-307-155.5T272 721zm131 1126h121q0-76 42-129t114-53 114 53 42 129h122q0-140-79.5-218.5T680 1550q-118 0-197.5 78.5T403 1847z"/><glyph unicode="ŏ" horiz-adv-x="1114" d="M92 518q0 245 124.5 392T559 1057q215 0 340-148t125-391q0-242-124.5-390T559-20q-218 0-342.5 147.5T92 518zm168 0q0-182 80-288.5T559 123q138 0 217.5 106.5T856 518q0 181-79.5 287T559 911q-139 0-219-106t-80-287zm19 924h120q0-76 42-129t114-53 114 53 42 129h123q0-140-80-218.5T555 1145q-118 0-197 78.5T279 1442z"/><glyph unicode="Ő" horiz-adv-x="1363" d="M92 721q0 220 66 385t201 260.5 325 95.5q191 0 325.5-95.5T1209 1106t65-385-65-385-199.5-260.5T684-20q-190 0-325 95.5T158 336 92 721zm180 0q0-283 105-438.5T684 127q200 0 305 155.5T1094 721t-105 438.5T684 1315q-202 0-307-155.5T272 721zm109 829 55 297h182l-59-297H381zm405 0q24 128 58 297h180q-24-120-57-297H786z"/><glyph unicode="ő" horiz-adv-x="1114" d="M92 518q0 245 124.5 392T559 1057q215 0 340-148t125-391q0-242-124.5-390T559-20q-218 0-342.5 147.5T92 518zm162 627 55 297h183l-60-297H254zm6-627q0-182 80-288.5T559 123q138 0 217.5 106.5T856 518q0 181-79.5 287T559 911q-139 0-219-106t-80-287zm399 627q24 128 58 297h180q-24-120-57-297H659z"/><glyph unicode="Œ" horiz-adv-x="2117" d="M121 721q0 218 65 383.5T383 1366t315 96q264 0 400-227v207h909v-150h-750V815h662V666h-662V147h750V0h-909v205Q963-20 698-20q-183 0-315 95.5t-197 261T121 721zm180 0q0-283 102.5-438.5T698 127q191 0 294.5 155.5T1096 721q0 281-103.5 436.5T698 1313q-192 0-294.5-155T301 721z"/><glyph unicode="œ" horiz-adv-x="1892" d="M100 518q0 243 125.5 391T569 1057q129 0 230-62.5T952 825q54 108 152 170t227 62q207 0 328-134t121-370q0-24-4-90h-725q1-65 20.5-124t56.5-107.5 96.5-77.5 133.5-29q103 0 176 58.5T1642 356q26-6 78.5-20.5T1800 315q-11-47-31.5-91t-57.5-89.5-84.5-79-117-54.5T1358-20q-136 0-240 61.5T956 213Q898 102 799 41T569-20q-218 0-343.5 147.5T100 518zm164 0q0-181 82.5-287T567 125q140 0 222.5 106T872 518q0 180-82.5 285.5T567 909q-138 0-220.5-105.5T264 518zm787 80h551q-2 149-68.5 231T1331 911q-88 0-152.5-46t-95-115.5T1051 598z"/><glyph unicode="Ŕ" horiz-adv-x="1255" d="M152 0v1442h575q180 0 290.5-121.5T1128 1014q0-179-104-296.5T735 590L1208 0h-202L535 586H324V0H152zm172 733h397q101 0 168 85.5t67 195.5-67 195-168 85H324V733zm139 817 135 297h188l-190-297H463z"/><glyph unicode="ŕ" horiz-adv-x="724" d="M152 0v1036h147l20-125q37 55 103.5 100.5T578 1057q38 0 88-8V895h-86q-137 0-199-82.5T319 555V0H152zm165 1145 136 297h188l-190-297H317z"/><glyph unicode="Ŗ" horiz-adv-x="1255" d="M152 0v1442h575q180 0 290.5-121.5T1128 1014q0-179-104-296.5T735 590L1208 0h-202L535 586H324V0H152zm172 733h397q101 0 168 85.5t67 195.5-67 195-168 85H324V733zm235-852h143v-143l-84-144h-59q11 22 34 70.5t36 73.5h-70v143z"/><glyph unicode="ŗ" horiz-adv-x="724" d="M152 0v1036h147l20-125q37 55 103.5 100.5T578 1057q38 0 88-8V895h-86q-137 0-199-82.5T319 555V0H152zm12-119h143v-143l-84-144h-59q11 22 33.5 70.5T233-262h-69v143z"/><glyph unicode="Ř" horiz-adv-x="1255" d="M152 0v1442h575q180 0 290.5-121.5T1128 1014q0-179-104-296.5T735 590L1208 0h-202L535 586H324V0H152zm172 733h397q101 0 168 85.5t67 195.5-67 195-168 85H324V733zm57 1114h133l107-196 106 196h133l-135-297H516z"/><glyph unicode="ř" horiz-adv-x="724" d="M131 1442h133l107-197 106 197h133l-135-297H266zM152 0v1036h147l20-125q37 55 103.5 100.5T578 1057q38 0 88-8V895h-86q-137 0-199-82.5T319 555V0H152z"/><glyph unicode="Ś" horiz-adv-x="1263" d="m90 442 164 31q2-58 24.5-115T345 248t122.5-86T647 129q93 0 172.5 29t132 92.5T1004 401q0 60-21 106t-53.5 73.5-82.5 46-95.5 26.5T647 666q-79 8-143.5 21t-137 41.5-121.5 69-81.5 107T131 1057q0 103 45.5 183.5T296 1368t159.5 70.5T631 1462q92 0 176-25.5t152.5-74 113-127T1126 1059l-163-29q-7 74-36.5 129.5T851 1248t-101 49-119 16q-62 0-119-15t-106-44.5-78-80.5-29-116q0-205 354-240 58-6 101-13t100.5-21.5T954 749t86-50.5 71.5-71.5 45-98 17.5-128q0-189-149.5-305T647-20Q533-20 439 8T282 82 175 189t-64 124.5T90 442zm485 1108 136 297h188l-190-297H575z"/><glyph unicode="ś" horiz-adv-x="1032" d="m90 315 164 31q3-30 10-57t26-58.5 46.5-54 75-38T520 123q26 0 52.5 2.5t65.5 13 67.5 28.5 49.5 53 21 81q0 31-9 55.5t-29 41-41 27.5-55.5 19-61 12-68.5 9q-156 17-221 40-148 53-167 203-3 24-3 50 0 127 110.5 213t270.5 86q176 0 293-85.5T922 721q-31-5-88.5-16T756 690q-9 221-252 221-96 0-155.5-44.5T289 758q0-34 14-59t34.5-40.5T397 632t72.5-16.5T559 604q87-10 150-27.5T828 526t85-89.5T942 301q0-151-116.5-236T520-20Q417-20 335.5 7.5T203 82.5 123.5 189 90 315zm365 830 135 297h188l-190-297H455z"/><glyph unicode="Ŝ" horiz-adv-x="1263" d="m90 442 164 31q2-58 24.5-115T345 248t122.5-86T647 129q93 0 172.5 29t132 92.5T1004 401q0 60-21 106t-53.5 73.5-82.5 46-95.5 26.5T647 666q-79 8-143.5 21t-137 41.5-121.5 69-81.5 107T131 1057q0 103 45.5 183.5T296 1368t159.5 70.5T631 1462q92 0 176-25.5t152.5-74 113-127T1126 1059l-163-29q-7 74-36.5 129.5T851 1248t-101 49-119 16q-62 0-119-15t-106-44.5-78-80.5-29-116q0-205 354-240 58-6 101-13t100.5-21.5T954 749t86-50.5 71.5-71.5 45-98 17.5-128q0-189-149.5-305T647-20Q533-20 439 8T282 82 175 189t-64 124.5T90 442zm301 1108 135 297h209l135-297H737l-106 197-107-197H391z"/><glyph unicode="ŝ" horiz-adv-x="1032" d="m90 315 164 31q3-30 10-57t26-58.5 46.5-54 75-38T520 123q26 0 52.5 2.5t65.5 13 67.5 28.5 49.5 53 21 81q0 31-9 55.5t-29 41-41 27.5-55.5 19-61 12-68.5 9q-156 17-221 40-148 53-167 203-3 24-3 50 0 127 110.5 213t270.5 86q176 0 293-85.5T922 721q-31-5-88.5-16T756 690q-9 221-252 221-96 0-155.5-44.5T289 758q0-34 14-59t34.5-40.5T397 632t72.5-16.5T559 604q87-10 150-27.5T828 526t85-89.5T942 301q0-151-116.5-236T520-20Q417-20 335.5 7.5T203 82.5 123.5 189 90 315zm184 830 136 297h208l136-297H621l-107 196-106-196H274z"/><glyph unicode="Ş" horiz-adv-x="1263" d="m90 442 164 31q2-58 24.5-115T345 248t122.5-86T647 129q93 0 172.5 29t132 92.5T1004 401q0 60-21 106t-53.5 73.5-82.5 46-95.5 26.5T647 666q-79 8-143.5 21t-137 41.5-121.5 69-81.5 107T131 1057q0 103 45.5 183.5T296 1368t159.5 70.5T631 1462q92 0 176-25.5t152.5-74 113-127T1126 1059l-163-29q-7 74-36.5 129.5T851 1248t-101 49-119 16q-62 0-119-15t-106-44.5-78-80.5-29-116q0-205 354-240 58-6 101-13t100.5-21.5T954 749t86-50.5 71.5-71.5 45-98 17.5-128q0-189-149.5-305T647-20Q533-20 439 8T282 82 175 189t-64 124.5T90 442zm338-702 82 16q3-44 39-71t82-27 76 27.5 30 68.5q0 49-34 78t-72 29q-39 0-62-17l-53 52L666 31h77V4l-88-80q69-3 122.5-48T831-246q0-82-54-131t-146-49q-88 0-144 47t-59 119z"/><glyph unicode="ş" horiz-adv-x="1032" d="m90 315 164 31q3-30 10-57t26-58.5 46.5-54 75-38T520 123q26 0 52.5 2.5t65.5 13 67.5 28.5 49.5 53 21 81q0 31-9 55.5t-29 41-41 27.5-55.5 19-61 12-68.5 9q-156 17-221 40-148 53-167 203-3 24-3 50 0 127 110.5 213t270.5 86q176 0 293-85.5T922 721q-31-5-88.5-16T756 690q-9 221-252 221-96 0-155.5-44.5T289 758q0-34 14-59t34.5-40.5T397 632t72.5-16.5T559 604q87-10 150-27.5T828 526t85-89.5T942 301q0-151-116.5-236T520-20Q417-20 335.5 7.5T203 82.5 123.5 189 90 315zm211-575 82 16q3-44 39-71t82-27 76 27.5 30 68.5q0 49-34 78t-72 29q-39 0-62-17l-53 52L539 31h77V4l-88-80q69-3 123-48t54-122q0-82-54.5-131T504-426q-88 0-144 47t-59 119z"/><glyph unicode="Š" horiz-adv-x="1263" d="m90 442 164 31q2-58 24.5-115T345 248t122.5-86T647 129q93 0 172.5 29t132 92.5T1004 401q0 60-21 106t-53.5 73.5-82.5 46-95.5 26.5T647 666q-79 8-143.5 21t-137 41.5-121.5 69-81.5 107T131 1057q0 103 45.5 183.5T296 1368t159.5 70.5T631 1462q92 0 176-25.5t152.5-74 113-127T1126 1059l-163-29q-7 74-36.5 129.5T851 1248t-101 49-119 16q-62 0-119-15t-106-44.5-78-80.5-29-116q0-205 354-240 58-6 101-13t100.5-21.5T954 749t86-50.5 71.5-71.5 45-98 17.5-128q0-189-149.5-305T647-20Q533-20 439 8T282 82 175 189t-64 124.5T90 442zm299 1405h133l107-196 106 196h133l-135-297H524z"/><glyph unicode="š" horiz-adv-x="1032" d="m90 315 164 31q3-30 10-57t26-58.5 46.5-54 75-38T520 123q26 0 52.5 2.5t65.5 13 67.5 28.5 49.5 53 21 81q0 31-9 55.5t-29 41-41 27.5-55.5 19-61 12-68.5 9q-156 17-221 40-148 53-167 203-3 24-3 50 0 127 110.5 213t270.5 86q176 0 293-85.5T922 721q-31-5-88.5-16T756 690q-9 221-252 221-96 0-155.5-44.5T289 758q0-34 14-59t34.5-40.5T397 632t72.5-16.5T559 604q87-10 150-27.5T828 526t85-89.5T942 301q0-151-116.5-236T520-20Q417-20 335.5 7.5T203 82.5 123.5 189 90 315zm186 1127h134l106-197 107 197h133l-135-297H412z"/><glyph unicode="Ţ" horiz-adv-x="1052" d="M59 1294v148h932v-148H612V0H440v1294H59zM291-260l82 16q3-44 39-71t82-27 76 27.5 30 68.5q0 49-34 78t-72 29q-39 0-62-17l-53 52L528 31h78V4l-88-80q69-3 122.5-48T694-246q0-82-54-131t-146-49q-88 0-144 47t-59 119z"/><glyph unicode="ţ" horiz-adv-x="737" d="M70 901v135h186v307h168v-307h223V901H424V266q0-74 27-99.5t96-25.5h90V0l-96-6q-85-5-142.5 13t-88 57.5T268 153t-12 117v631H70zM223-260l82 16q3-44 39-71t82-27 76 27.5 30 68.5q0 49-34 78t-72 29-61-17l-54 52L461 31h78V4l-88-80q69-3 122.5-48T627-246q0-82-54.5-131T426-426q-88 0-144 47t-59 119z"/><glyph unicode="Ť" horiz-adv-x="1052" d="M59 1294v148h932v-148H612V0H440v1294H59zm226 553h133l106-196 107 196h133l-135-297H420z"/><glyph unicode="ť" horiz-adv-x="737" d="M70 901v135h186v307h168v-307h223V901H424V266q0-74 27-99.5t96-25.5h90V0l-96-6q-85-5-142.5 13t-88 57.5T268 153t-12 117v631H70zm493 254q11 21 33.5 69t36.5 74h-70v144h144v-144l-84-143h-60z"/><glyph unicode="Ŧ" horiz-adv-x="1052" d="M59 1294v148h934v-148H612V803h234V676H612V0H444v676H205v127h239v491H59z"/><glyph unicode="ŧ" horiz-adv-x="737" d="M70 901v135h186v307h168v-307h223V901H424V717h182V588H424V266q0-74 27-99.5t96-25.5h90V0l-96-6q-86-5-142.5 10T311 57t-43 88-12 125v318H90v129h166v184H70z"/><glyph unicode="Ũ" d="M152 473v969h172V473q0-150 103-247t249-97 249 97 103 247v969h170V473q0-227-148-360T676-20q-148 0-266 57.5t-188 171T152 473zm223 1077v37q0 47 16 88.5t57.5 73T551 1780q39 0 77.5-16t64-34.5 53-34.5 47.5-16q73 0 73 101h105v-35q0-47-17-89.5t-59-74-102-31.5q-50 0-98.5 25t-85 49.5T551 1649q-72 0-72-99H375z"/><glyph unicode="ũ" horiz-adv-x="1130" d="M117 475v561h166V475q0-182 61.5-265.5T549 125q137 0 200.5 87T813 475v561h166V0H834l-21 123Q773 66 697 23T514-20q-211 1-304 121.5T117 475zm149 670v37q0 47 16 88.5t57.5 72.5 102.5 31q49 0 96.5-25t84.5-50 61-25q74 0 74 100h104v-35q0-76-45-135t-133-59q-40 0-79 15.5t-64.5 33.5-53 33.5T442 1243q-71 0-71-98H266z"/><glyph unicode="Ū" d="M152 473v969h172V473q0-150 103-247t249-97 249 97 103 247v969h170V473q0-227-148-360T676-20q-148 0-266 57.5t-188 171T152 473zm202 1077v129h641v-129H354z"/><glyph unicode="ū" horiz-adv-x="1130" d="M117 475v561h166V475q0-182 61.5-265.5T549 125q137 0 200.5 87T813 475v561h166V0H834l-21 123Q773 66 697 23T514-20q-211 1-304 121.5T117 475zm127 670v129h641v-129H244z"/><glyph unicode="Ŭ" d="M152 473v969h172V473q0-150 103-247t249-97 249 97 103 247v969h170V473q0-227-148-360T676-20q-148 0-266 57.5t-188 171T152 473zm245 1374h121q0-76 42-129t114-53 113.5 53 41.5 129h123q0-140-79.5-218.5T674 1550q-118 0-197.5 78.5T397 1847z"/><glyph unicode="ŭ" horiz-adv-x="1130" d="M117 475v561h166V475q0-182 61.5-265.5T549 125q137 0 200.5 87T813 475v561h166V0H834l-21 123Q773 66 697 23T514-20q-211 1-304 121.5T117 475zm170 967h121q0-76 41.5-129t113.5-53 114 53 42 129h123q0-140-80-218.5T563 1145q-118 0-197 78.5T287 1442z"/><glyph unicode="Ů" d="M152 473v969h172V473q0-150 103-247t249-97 249 97 103 247v969h170V473q0-227-148-360T676-20q-148 0-266 57.5t-188 171T152 473zm329 1270q0 78 58 135t137 57 136.5-57 57.5-135q0-81-57-137t-137-56-137.5 56-57.5 137zm101 0q0-39 27.5-66.5T676 1649q38 0 65 27t27 67q0 38-27 65t-65 27-66-27-28-65z"/><glyph unicode="ů" horiz-adv-x="1130" d="M117 475v561h166V475q0-182 61.5-265.5T549 125q137 0 200.5 87T813 475v561h166V0H834l-21 123Q773 66 697 23T514-20q-211 1-304 121.5T117 475zm252 862q0 78 57.5 135.5T563 1530t137-57.5 58-135.5q0-81-57.5-136.5T563 1145t-137 55.5-57 136.5zm100 0q0-39 27.5-66.5T563 1243q38 0 65 27t27 67q0 38-27 65.5t-65 27.5-66-27.5-28-65.5z"/><glyph unicode="Ű" d="M152 473v969h172V473q0-150 103-247t249-97 249 97 103 247v969h170V473q0-227-148-360T676-20q-148 0-266 57.5t-188 171T152 473zm221 1077 55 297h182l-59-297H373zm405 0q24 128 58 297h180q-34-169-58-297H778z"/><glyph unicode="ű" horiz-adv-x="1130" d="M117 475v561h166V475q0-182 61.5-265.5T549 125q137 0 200.5 87T813 475v561h166V0H834l-21 123Q773 66 697 23T514-20q-211 1-304 121.5T117 475zm145 670 55 297h183l-60-297H262zm406 0q33 177 57 297h180q-24-120-57-297H668z"/><glyph unicode="Ų" d="M152 473v969h172V473q0-150 103-247t249-97 249 97 103 247v969h170V473q0-227-148-360T676-20q-148 0-266 57.5t-188 171T152 473zm440-680q0 100 64.5 170T840 33V0q-55-4-90-46t-35-104q0-67 38.5-105t98.5-38h35v-113h-53q-105 0-170.5 55.5T592-207z"/><glyph unicode="ų" horiz-adv-x="1130" d="M117 475v561h166V475q0-182 61.5-265.5T549 125q137 0 200.5 87T813 475v561h166V0H834l-21 123Q773 66 697 23T514-20q-211 1-304 121.5T117 475zm567-682q0 100 64.5 170T932 33V0q-55-4-90-46t-35-104q0-67 38.5-105t98.5-38h35v-113h-53q-105 0-170.5 55.5T684-207z"/><glyph unicode="Ŵ" horiz-adv-x="1748" d="M49 1442h176q29-161 221-1184l297 1184h232l299-1186q9 42 252 1186h174L1389 0h-203L860 1214 535 0H332zm580 108 135 297h209l135-297H975l-107 197-106-197H629z"/><glyph unicode="ŵ" horiz-adv-x="1462" d="M57 1036h168l152-809q176 580 244 809h194q10-33 109-341t149-468q143 701 164 809h168L1171 0H987L717 829 465 0H279zm432 109 136 297h209l135-297H836l-107 196-106-196H489z"/><glyph unicode="Ŷ" horiz-adv-x="1148" d="M37 1442h188l344-582 346 582h195L655 702V0H485v702zm295 108 135 297h209l135-297H678l-107 197-106-197H332z"/><glyph unicode="ŷ" horiz-adv-x="1009" d="M41 1036h172q41-116 139-393t152-426l293 819h172Q726 361 440-406H272L420 0zm223 109 135 297h209l135-297H610l-106 196-107-196H264z"/><glyph unicode="Ÿ" horiz-adv-x="1150" d="M37 1442h188l344-582 346 582h195L655 702V0H485v702zm235 106v191h187v-191H272zm412 0v191h188v-191H684z"/><glyph unicode="Ź" horiz-adv-x="1124" d="M90 0v150l746 1144H96v148h936v-148L291 150h743V0H90zm385 1550 135 297h189l-191-297H475z"/><glyph unicode="ź" horiz-adv-x="966" d="M100 0v145l541 746H121v145h725V891L305 145h561V0H100zm287 1145 135 297h189l-191-297H387z"/><glyph unicode="Ż" horiz-adv-x="1124" d="M90 0v150l746 1144H96v148h936v-148L291 150h743V0H90zm373 1657v190h196v-190H463z"/><glyph unicode="ż" horiz-adv-x="966" d="M100 0v145l541 746H121v145h725V891L305 145h561V0H100zm283 1251v191h197v-191H383z"/><glyph unicode="Ž" horiz-adv-x="1124" d="M90 0v150l746 1144H96v148h936v-148L291 150h743V0H90zm234 1847h133l106-196 107 196h133l-135-297H459z"/><glyph unicode="ž" horiz-adv-x="962" d="M98 0v145l541 746H119v145h725V891L303 145h561V0H98zm154 1442h133l107-197 106 197h133l-135-297H387z"/><glyph unicode="ſ" horiz-adv-x="690" d="M55 901v135h187v140q0 266 264 266h127v-146H520q-55 0-83.5-33.5T408 1167V0H242v901H55z"/><glyph unicode="ƒ" horiz-adv-x="722" d="M-123-406q25 122 29 146H16q51 0 87.5 34.5T152-131Q300 637 352 899H166l27 137h186q11 66 27 140l6 20q31 125 109 185.5t214 60.5h111q-4-26-14.5-75t-14.5-71H705q-27 0-48-7.5t-35.5-23.5-24.5-32-17.5-43.5T567 1142t-11-53.5-11-52.5h215l-27-137H518q-15-75-77.5-401T342-4q-17-87-34-145t-44-110.5-63-82.5-89-47-124-17h-111z"/><glyph unicode="Ș" horiz-adv-x="1263" d="m90 442 164 31q2-58 24.5-115T345 248t122.5-86T647 129q93 0 172.5 29t132 92.5T1004 401q0 60-21 106t-53.5 73.5-82.5 46-95.5 26.5T647 666q-79 8-143.5 21t-137 41.5-121.5 69-81.5 107T131 1057q0 103 45.5 183.5T296 1368t159.5 70.5T631 1462q92 0 176-25.5t152.5-74 113-127T1126 1059l-163-29q-7 74-36.5 129.5T851 1248t-101 49-119 16q-62 0-119-15t-106-44.5-78-80.5-29-116q0-205 354-240 58-6 101-13t100.5-21.5T954 749t86-50.5 71.5-71.5 45-98 17.5-128q0-189-149.5-305T647-20Q533-20 439 8T282 82 175 189t-64 124.5T90 442zm488-561h143v-143l-84-144h-59q11 22 33.5 70.5T647-262h-69v143z"/><glyph unicode="ș" horiz-adv-x="1032" d="m90 315 164 31q3-30 10-57t26-58.5 46.5-54 75-38T520 123q26 0 52.5 2.5t65.5 13 67.5 28.5 49.5 53 21 81q0 31-9 55.5t-29 41-41 27.5-55.5 19-61 12-68.5 9q-156 17-221 40-148 53-167 203-3 24-3 50 0 127 110.5 213t270.5 86q176 0 293-85.5T922 721q-31-5-88.5-16T756 690q-9 221-252 221-96 0-155.5-44.5T289 758q0-34 14-59t34.5-40.5T397 632t72.5-16.5T559 604q87-10 150-27.5T828 526t85-89.5T942 301q0-151-116.5-236T520-20Q417-20 335.5 7.5T203 82.5 123.5 189 90 315zm367-434h143v-143l-84-144h-59q11 22 33.5 70.5T526-262h-69v143z"/><glyph unicode="Ț" horiz-adv-x="1052" d="M59 1294v148h932v-148H612V0H440v1294H59zM455-119h143v-143l-84-144h-59q11 22 33.5 70.5T524-262h-69v143z"/><glyph unicode="ț" horiz-adv-x="737" d="M70 901v135h186v307h168v-307h223V901H424V266q0-74 27-99.5t96-25.5h90V0l-96-6q-85-5-142.5 13t-88 57.5T268 153t-12 117v631H70zM375-119h143v-143l-84-144h-59q11 22 33.5 70.5T444-262h-69v143z"/><glyph unicode="ˆ" horiz-adv-x="602" d="m61 1145 136 297h209l135-297H408l-107 196-106-196H61z"/><glyph unicode="ˇ" horiz-adv-x="602" d="M61 1442h134l106-197 107 197h133l-135-297H197z"/><glyph unicode="˘" horiz-adv-x="761" d="M104 1442h121q0-76 42-129t114-53 114 53 42 129h122q0-140-79.5-218.5T381 1145q-118 0-197.5 78.5T104 1442z"/><glyph unicode="˙" horiz-adv-x="532" d="M168 1251v191h197v-191H168z"/><glyph unicode="˚" horiz-adv-x="528" d="M70 1337q0 78 57.5 135.5T264 1530t137-57.5 58-135.5q0-81-57.5-136.5T264 1145t-137 55.5T70 1337zm100 0q0-39 27.5-66.5T264 1243q38 0 65 27t27 67q0 38-27 65.5t-65 27.5-66-27.5-28-65.5z"/><glyph unicode="˛" horiz-adv-x="563" d="M139-207q0 100 64.5 170T387 33V0q-55-4-90-46t-35-104q0-67 38.5-105t98.5-38h35v-113h-53q-105 0-170.5 55.5T139-207z"/><glyph unicode="˜" horiz-adv-x="718" d="M61 1145v37q0 47 16.5 88.5t58 72.5 102.5 31q39 0 77.5-15.5T379 1324t52.5-34.5T479 1274q74 0 74 100h104v-35q0-76-45-135t-133-59q-50 0-98 24.5t-84.5 49T238 1243q-72 0-72-98H61z"/><glyph unicode="˝" horiz-adv-x="856" d="m106 1145 56 297h182l-59-297H106zm406 0q33 177 57 297h181q-34-169-58-297H512z"/><glyph unicode="Ω" horiz-adv-x="1431" d="M115 0v154h239q-116 80-177.5 232.5T115 731q0 159 38.5 292.5T265 1255t186 152.5 256 54.5 256-54.5 185.5-153 110-231T1296 731q0-191-62.5-344T1055 154h241V0H776v154q167 25 255.5 173.5T1120 731q0 275-106.5 428.5T707 1313q-201 0-307.5-153.5T293 731q0-256 87-404t255-173V0H115z"/><glyph unicode="π" horiz-adv-x="1419" d="M121 883v153h1177V883h-170V272q0-61 28-94t83-33h59V0h-73q-83 0-135 21.5T1010 92t-37.5 112-9.5 163v516H457V0H293v883H121z"/><glyph horiz-adv-x="967"/><glyph horiz-adv-x="1935"/><glyph horiz-adv-x="967"/><glyph horiz-adv-x="1935"/><glyph horiz-adv-x="645"/><glyph horiz-adv-x="483"/><glyph horiz-adv-x="322"/><glyph horiz-adv-x="322"/><glyph horiz-adv-x="241"/><glyph horiz-adv-x="387"/><glyph horiz-adv-x="107"/><glyph unicode="‐" horiz-adv-x="868" d="M113 449v153h641V449H113z"/><glyph unicode="‑" horiz-adv-x="868" d="M113 449v153h641V449H113z"/><glyph unicode="‒" horiz-adv-x="868" d="M113 449v153h641V449H113z"/><glyph unicode="–" horiz-adv-x="1177" d="M152 438v156h852V438H152z"/><glyph unicode="—" horiz-adv-x="1722" d="M162 438v156h1397V438H162z"/><glyph unicode="‘" horiz-adv-x="503" d="M137 907v228l133 307h97q-17-51-54.5-153.5T258 1135h109V907H137z"/><glyph unicode="’" horiz-adv-x="503" d="M137 907q17 51 54 152.5t55 152.5H137v230h230v-230Q265 980 231 907h-94z"/><glyph unicode="‚" horiz-adv-x="503" d="M137 0v227h230V0Q265-231 231-305h-94q17 51 54 152.5T246 0H137z"/><glyph unicode="“" horiz-adv-x="847" d="M137 907v228l133 307h97q-17-51-54.5-153.5T258 1135h109V907H137zm342 0v228q28 60 78 176t57 131h97l-111-307h111V907H479z"/><glyph unicode="”" horiz-adv-x="847" d="M137 907q17 51 54 152.5t55 152.5H137v230h230v-230Q265 980 231 907h-94zm342 0 111 305H479v230h232v-230L575 907h-96z"/><glyph unicode="„" horiz-adv-x="847" d="M137 0v227h230V0Q265-231 231-305h-94q17 51 54 152.5T246 0H137zm342 0v227h232V0L575-305h-96L590 0H479z"/><glyph unicode="†" horiz-adv-x="1263" d="M98 883v155h443v404h168v-404h440V883H709V-406H541V883H98z"/><glyph unicode="‡" horiz-adv-x="1263" d="M98 0v154h443v729H98v155h443v404h168v-404h440V883H709V154h440V0H709v-401H541V0H98z"/><glyph unicode="•" horiz-adv-x="1306" d="M113 518q0 146 72 269.5T381.5 983t271.5 72 271.5-72 197-195.5T1194 518t-72.5-270-197-196T653-20 381.5 52 185 248t-72 270z"/><glyph unicode="…" horiz-adv-x="1660" d="M135 0v229h230V0H135zm584 0v229h229V0H719zm575 0v229h230V0h-230z"/><glyph horiz-adv-x="387"/><glyph unicode="‰" horiz-adv-x="2379" d="M139 1034q0 95 17 171t52.5 134 94 89.5T440 1460q106 0 175.5-56.5t98.5-149 29-220.5q0-96-17-172t-52-134-94.5-89T440 608q-154 0-227.5 114.5T139 1034zm156 0q0-146 34.5-219.5T440 741q78 0 113 73.5t35 219.5q0 148-35 219.5T440 1325q-77 0-111-71.5T295 1034zM362 2l871 1503 119-67L479-63Q414-25 362 2zm615 401q0 198 73 313t228 115 229-115.5 74-312.5q0-128-29.5-220t-99-147.5T1278-20q-155 0-228 113.5T977 403zm156 0q0-146 34-218t111-72 111 72 34 218q0 150-33.5 221.5T1278 696t-111.5-71.5T1133 403zm501 0q0 197 73.5 312.5T1935 831q106 0 175.5-56.5T2209 625t29-222q0-95-17-170.5t-52-133-94.5-88.5T1935-20q-154 0-227.5 114T1634 403zm158 0q0-146 33-218t110-72q78 0 113 72.5t35 217.5q0 149-35 221t-113 72q-77 0-110-71t-33-222z"/><glyph unicode="‹" horiz-adv-x="647" d="m66 516 245 315h176L236 516l233-291H295z"/><glyph unicode="›" horiz-adv-x="647" d="M160 831h176l246-315-230-291H178l234 291z"/><glyph unicode="⁄" horiz-adv-x="1216" d="m90 2 871 1503 118-67L209-63z"/><glyph horiz-adv-x="483"/><glyph unicode="₣" horiz-adv-x="1314" d="M102 0v535h535V0H102zm0 575v535h535V575H102zM678 0v535h534V0H678zm0 575v535h534V575H678z"/><glyph unicode="₤" horiz-adv-x="1241" d="M102 0v1036h1037V0H102zm103 102h831v832H205V102z"/><glyph unicode="₧" horiz-adv-x="1241" d="M102 0v1442h1037V0H102zm103 102h831v1237H205V102z"/><glyph unicode="€" horiz-adv-x="1226" d="M90 506q18 70 39 141h107q-3 41-3 80t3 80H90q14 57 39 141h125q42 237 175 374.5T788 1460q175 0 324-108l-37-140q-76 56-135.5 78.5T795 1313q-150 0-240.5-96.5T432 948h578l-37-141H416q-2-31-2-92 0-45 2-68h516l-35-141H430q29-179 120-279t245-100q160 0 319 125V78Q981-20 788-20q-117 0-211 39T418 129 311.5 294.5 250 506H90z"/><glyph unicode="™" horiz-adv-x="1282" d="M61 1370v72h467v-72H338V721h-84v649H61zm537-649v721h131l180-629 183 629h129V721h-84v598L961 721H858l-174 598V721h-86z"/><glyph unicode="←" horiz-adv-x="1607" d="M102 440v154l443 442h221L324 594h1181V440H324L766 0H545z"/><glyph unicode="↑" horiz-adv-x="1247" d="M102 782v217l443 443h155l445-441V782l-445 441V0H545v1223z"/><glyph unicode="→" horiz-adv-x="1607" d="M102 440v154h1182l-442 442h221l442-442V440L1061 0H842l442 440H102z"/><glyph unicode="↓" horiz-adv-x="1247" d="M102 440v219l443-440v1223h155V219l445 440V440L700 0H545z"/><glyph unicode="↵" horiz-adv-x="1607" d="M102 440v154l443 442h221L324 594h1024v848h157V440H324L766 0H545z"/><glyph unicode="∂" horiz-adv-x="1196" d="M88 496q0 89 28.5 175t83 158.5 145.5 117T549 991q119 0 221.5-64.5T911 758q0 49-3 95t-13 103-25.5 105.5-43 95.5-63.5 80-88 53.5-116 20.5q-39 0-84.5-7t-60.5-14l-23 152q72 20 168 20 110 0 197.5-37t148-103.5 101-162 59-209T1083 702q0-105-15.5-203T1014 305t-95.5-167-149-114.5T563-20q-110 0-201.5 43.5T211 139.5 120 304 88 496zm168-7q0-67 18-129t53.5-114 97-83.5T565 131q65 0 117.5 21t87 55.5 58 81.5 34 97T872 489q0 67-17.5 128.5t-53 114.5-97 84.5T563 848q-64 0-116.5-21T359 771t-58.5-82-34-97T256 489z"/><glyph unicode="∆" horiz-adv-x="1269" d="m49 0 586 1462L1219 0H49zm219 150h733l-366 911z"/><glyph unicode="∏" horiz-adv-x="1318" d="M152 0v1442h1015V0H997v1292H322V0H152z"/><glyph unicode="∑" horiz-adv-x="1222" d="M152 0v147l460 572-460 573v150h956v-150H362l455-573-455-569h746V0H152z"/><glyph unicode="√" horiz-adv-x="1347" d="M150 891v145h305l204-870q7 29 196.5 805.5T1061 1810h168L772 0H553L336 891H150z"/><glyph unicode="∞" horiz-adv-x="1865" d="M90 651q0 167 117 286.5T496 1057q169 0 278-121l160-176 156 176q109 121 280 121 167 0 286.5-118T1776 651q0-167-117-286t-289-119q-168 0-280 121L934 543 774 367Q667 246 496 246q-167 0-286.5 117.5T90 651zm156 0q0-105 72.5-183.5T496 389q109 0 176 78l164 184-164 185q-66 77-176 77-103 0-176.5-77.5T246 651zm784 0 164-184q69-78 176-78 103 0 176.5 77.5T1620 651q0 105-72.5 183.5T1370 913q-107 0-176-77z"/><glyph unicode="∫" horiz-adv-x="722" d="M55-260h113q53 0 82 34t29 95v1216q0 97 11.5 159.5t43 109.5 87.5 67.5 144 20.5h103v-146H555q-55 0-83-34t-28-95V-49q0-97-11.5-159.5T390-318t-88-67.5T156-406H55v146z"/><glyph unicode="≈" horiz-adv-x="1103" d="M106 311q87 97 141 134.5T373 483q46 0 103.5-21.5t101.5-48 93-48 81-21.5q28 0 54 21.5t89 91.5l102-92q-59-66-94.5-98.5t-78-52T731 195q-47 0-104 21.5t-100 48-92 48-83 21.5q-28 0-54-21.5T209 221zm0 365q86 96 140.5 133T373 846q46 0 103.5-21.5t101.5-48 93-48 81-21.5q28 0 54 21.5t89 90.5l102-92q-59-66-94.5-98.5t-78-52T731 557q-47 0-104 21.5t-100 48-92 48-83 21.5q-28 0-54-21.5T209 584z"/><glyph unicode="≠" horiz-adv-x="1249" d="M106 219v143h369l184 316H106v143h637l144 246 98-55-111-191h269V678H791L606 362h537V219H524L365-55 264 0l127 219H106z"/><glyph unicode="≤" horiz-adv-x="1251" d="M106 0v152h1037V0H106zm0 846v153l1037 443v-154L299 924l844-367V406z"/><glyph unicode="≥" horiz-adv-x="1251" d="M106 0v152h1037V0H106zm0 406v151l844 367-844 364v154l1037-443V846z"/><glyph unicode="◊" horiz-adv-x="1275" d="m41 719 491 723h211l-2-2 494-721L741 0H532zm203 0 393-569 393 569-393 569z"/><glyph unicode="◼" horiz-adv-x="1034" d="M0 0v1034h1034V0H0z"/><glyph unicode="" horiz-adv-x="1368" d="M68 674q0 81 27 158.5t76 139 123 99 161 37.5q45 0 139-33 73-28 104-28 28 0 107 28 97 33 133 33 95 0 174-37 74-35 139-106-176-125-176-287 0-97 55-175.5T1280 383q-97-209-178-297-80-86-180-86-42 0-115 33-66 26-109 26-46 0-110-26Q521 0 477 0q-61 0-112 39-133 97-215 276T68 674zm626 418q0 135 86 231 96 96 203 115 0-84-17-144t-71-114q-86-90-195-90-1 0-2.5 1t-3.5 1z"/><glyph unicode="ﬃ" horiz-adv-x="1683" d="M53 899v137h189v140q0 266 262 266h129v-148H518q-54 0-82-33t-28-94v-131h413v140q0 266 264 266h127v-148h-112q-55 0-84-33t-29-94v-131h547V0h-168v899H987V0H821v899H408V0H242v899H53zm1299 352v191h196v-191h-196z"/><glyph unicode="ﬄ" horiz-adv-x="1650" d="M53 899v137h189v140q0 126 64 196t198 70h129v-148H518q-54 0-82-33t-28-94v-131h411v140q0 125 64.5 195.5T1083 1442h437V0h-168v1294h-254q-55 0-83-33t-28-94v-131h213V899H987V0H819v899H408V0H242v899H53z"/></font>
</defs>
</svg>
