<svg xmlns="http://www.w3.org/2000/svg"><defs><font id="nb_akademie_prolight" horiz-adv-x="1312"><font-face units-per-em="2048" ascent="1638" descent="-410"/><glyph unicode="ﬁ" horiz-adv-x="1028" d="M61 932v104h195v152q0 254 244 254h102v-105H502q-64 0-98.5-39.5T369 1188v-152h510V0H766v932H369V0H256v932H61zm684 356v154h154v-154H745z"/><glyph unicode="ﬂ" horiz-adv-x="985" d="M61 932v104h195v152q0 254 244 254h362V0H750v1337H502q-64 0-98.5-39.5T369 1188v-152h233V932H369V0H256v932H61z"/><glyph horiz-adv-x="0"/><glyph horiz-adv-x="682"/><glyph horiz-adv-x="43"/><glyph horiz-adv-x="43"/><glyph horiz-adv-x="43"/><glyph horiz-adv-x="473"/><glyph horiz-adv-x="473"/><glyph horiz-adv-x="473"/><glyph unicode="!" horiz-adv-x="489" d="M150 0v190h190V0H150zm34 1036v406h113v-406l-10-610h-92z"/><glyph unicode="&quot;" horiz-adv-x="655" d="M133 1155v287h113v-287l-21-270h-73zm275 0v287h114v-287l-18-270h-78z"/><glyph unicode="#" horiz-adv-x="1239" d="M43 575h279l51 289H113v111h280l78 446h111l-78-446h289l77 446h111l-78-446h260l2-111H883l-52-289h263l2-110H813L731 0H621l81 465H414L332 0H221l82 465H45zm389 0h289l51 289H483z"/><glyph unicode="$" horiz-adv-x="1230" d="m92 432 111 21q0-44 12-89t39.5-91.5 67.5-84T424 123t137-37v610q-68 10-124.5 24.5t-115 43.5-98 68-65 100-25.5 137q0 74 25 137t66 107 97 76 116 49 124 22v187h113v-189q77-8 145.5-35t124.5-73 92-116.5 43-156.5l-110-20q-13 130-93 205.5T674 1354V791q52-6 93.5-13.5t91.5-22 88-33.5 75.5-49.5 62-69T1124 511t15-120q0-177-133.5-287.5T674-18v-187H561v189Q444-6 351 38T203.5 146.5t-83 137.5T92 432zm150 637q0-47 14.5-86t49-75.5 99-63.5T561 803v553q-133-13-226-86.5T242 1069zM674 86q68 5 129.5 26t112 57.5 80.5 94 30 127.5q0 63-20 112t-52 80-80 53-94.5 32.5T674 686V86z"/><glyph unicode="%" horiz-adv-x="1705" d="M154 1040q0 94 16 169t49 133 88.5 89 130.5 31q76 0 132-31t89.5-88.5 49.5-133 16-169.5q0-194-69.5-306.5T438 621q-147 0-215.5 112.5T154 1040zm116 0q0-158 39.5-237.5T438 723q90 0 130 80t40 237q0 159-40 239.5T438 1360q-89 0-128.5-80T270 1040zM371 0l864 1497 98-55L469-55zm610 397q0 128 27.5 220t93 148 164.5 56q148 0 217-114t69-310q0-193-69-305T1266-20q-99 0-164.5 55t-93 145.5T981 397zm117 0q0-157 39.5-236T1266 82q90 0 130 79.5t40 235.5q0 160-40 241t-130 81q-89 0-128.5-80.5T1098 397z"/><glyph unicode="&amp;" horiz-adv-x="1306" d="M119 395q0 259 311 393-101 115-144.5 187.5T242 1133q0 145 104 237t250 92q165 0 259.5-96.5T950 1133q0-69-26.5-128t-76-105.5-106.5-82T608 748l361-433q39 82 52.5 177t18.5 260l115-21q-2-21-6-88.5t-8.5-106.5-14.5-99.5-29.5-114T1049 219L1235 0h-137L985 129Q820-23 596-23q-113 0-205 34t-150.5 92-90 133T119 395zm119 0q0-143 105.5-228T596 82q87 0 174 38.5T907 223L508 698q-60-27-102-52.5T322.5 584t-63-84T238 395zm116 738q0-59 38-123t140-179q56 22 104 48t96.5 63.5 77 86.5 28.5 104q0 99-65.5 162T596 1358q-100 0-171-65t-71-160z"/><glyph unicode="'" horiz-adv-x="378" d="M133 1155v287h113v-287l-21-270h-73z"/><glyph unicode="(" horiz-adv-x="598" d="M51 516q0 111 23.5 222T136 937.5t84 170.5 92 141 84 103.5 62 67.5l23 22 66-62-22-22-53.5-62-75.5-100-80.5-131.5-76-160.5L186 720l-22-204q0-102 21-204t55-184.5T315-31t81.5-131.5T471-260t55-63l21-21-66-62q-9 8-24.5 22.5t-60 64.5T311-215 220.5-76.5t-85 171-60 198T51 516z"/><glyph unicode=")" horiz-adv-x="598" d="m51-344 22 22 53.5 61.5L202-162l80.5 130 76 159.5L412 311l22 205q0 101-21 203.5t-55 185-74.5 159-81.5 133-75 98.5-55 63l-21 22 66 62q9-8 24.5-23t60-65.5 85.5-105 90.5-139.5 85-172 60-198.5T547 516q0-112-23.5-223T462 93.5 378-76t-92-140-84-102.5-62-65.5l-23-22z"/><glyph unicode="*" horiz-adv-x="829" d="m86 1161 35 105 96-31 166-74-21 178v103h111v-103l-20-178 165 74 97 31 35-105-99-33-186-38 125-138 59-82-90-65-59 84-82 141-82-141-60-84-90 65 60 82 125 138-187 38z"/><glyph unicode="+" horiz-adv-x="1241" d="M102 475v103h463v458h113V578h461V475H678V0H565v475H102z"/><glyph unicode="," horiz-adv-x="491" d="M152 0v190h190V0L227-293h-75L246 0h-94z"/><glyph unicode="-" horiz-adv-x="864" d="M133 475v103h596V475H133z"/><glyph unicode="." horiz-adv-x="489" d="M150 0v190h190V0H150z"/><glyph unicode="/" horiz-adv-x="1042" d="M49 0q427 753 825 1442h119L168 0H49z"/><glyph unicode="0" horiz-adv-x="1218" d="M121 709q0 134 15 242t50.5 201 91 156 139.5 98.5 193 35.5q108 0 192-35.5t139.5-98.5 91-156 50.5-201.5 15-241.5-15-240.5-50.5-200.5-91-155.5T802 15 610-20q-109 0-193 35t-139.5 97.5-91 155.5T136 468.5 121 709zm123 0q0-321 84-474T610 82q196 0 280.5 153.5T975 709q0 323-84.5 476.5T610 1339q-199 0-282.5-152.5T244 709z"/><glyph unicode="1" horiz-adv-x="776" d="M98 971v137l355 313h112V0H453v1272z"/><glyph unicode="2" horiz-adv-x="1097" d="M98 0v104l533 535q39 39 53.5 54t55 63.5T799 840t37 88 18 104q-2 124-86 215.5T535 1339q-78 0-147.5-39.5t-114.5-115-46-168.5l-110 20q0 94 35 172t93.5 128.5 133.5 78 156 27.5q193 0 317.5-117.5T977 1032q0-61-19.5-123.5t-45-108.5-66.5-97.5-66-78-61-61.5L250 104h747V0H98z"/><glyph unicode="3" horiz-adv-x="1087" d="m98 371 111 20q0-138 81.5-223.5T512 82q148 0 241 79.5T846 377q0 137-95.5 221T514 682H362v102h152q132 0 217.5 73t85.5 196q0 118-86.5 202T514 1339q-126 0-210.5-80.5T219 1030l-113 21q0 178 117.5 284.5T514 1442q179 0 300.5-111T936 1053q0-58-19.5-110T868 855.5 804.5 793 740 752t-52-17q38-5 84.5-33t90.5-72.5 74-112T967 377q0-179-129.5-288T514-20Q321-20 209.5 89T98 371z"/><glyph unicode="4" horiz-adv-x="1327" d="M98 340v102l688 979h113V442h336V340H899V0H786v340H98zm140 102h548v781z"/><glyph unicode="5" horiz-adv-x="1165" d="m98 371 119 20q6-33 17-66.5t37-79.5 61.5-80 95.5-58.5T561 82q88 0 158.5 35t114 93.5 66 130T922 489q0 111-39.5 200.5T759.5 835 561 891q-111 0-185-55.5T240 678l-105 20 92 723h684v-102H324l-64-479q47 80 132 116.5T582 993q203 0 332.5-142.5T1044 489q0-116-37.5-212T904 116 750.5 15.5 561-20q-100 0-182 31.5t-137 87T151.5 222 98 371z"/><glyph unicode="6" horiz-adv-x="1196" d="M121 698q0 133 16 243t53 204.5 94.5 159 142.5 101 194 36.5q159 0 270-92.5t143-231.5l-125-20q-41 121-109.5 179T621 1335q-69 0-125.5-21t-95.5-56-68.5-85.5T285 1070t-27.5-115-14-116.5T240 727q24 79 85 140.5T463.5 960 621 991q104 0 190.5-39.5t143.5-108 88.5-160T1075 487q0-76-18.5-149.5t-56.5-138T908.5 86 781 8.5 621-20q-94 0-172 30.5t-131 85T225.5 219 164 370.5t-32.5 163T121 698zm160-213q0-59 11-114t36-107.5 63-91.5 96.5-62.5T618 86q90 0 158 35.5T882.5 216t57 127T958 485q0 59-10.5 114.5t-36 109-63.5 93-96.5 63.5T621 889t-131-24-97-64-64-93-37-108.5T281 485z"/><glyph unicode="7" horiz-adv-x="1054" d="M76 1319v102h903v-102L397 0H262l584 1319H76z"/><glyph unicode="8" horiz-adv-x="1167" d="M121 397q0 63 19 119t47.5 95 67.5 71 74.5 51 73.5 33q-37 10-75.5 31.5T250 856t-63.5 96-24.5 131q0 152 121.5 255.5T584 1442q178 0 299-103.5t121-255.5q0-58-18-109t-44-85-59-61-59-41-48-21q47-18 91-47t86.5-73.5 68-109T1047 397q0-180-133-298.5T584-20Q386-20 253.5 98.5T121 397zm121 0q0-136 99-225.5T584 82t243 89.5T926 397q0 137-100 221t-242 84-242-84-100-221zm39 686q0-124 86-201t217-77 217 77 86 201q0 103-87 179.5T584 1339t-216-76.5-87-179.5z"/><glyph unicode="9" horiz-adv-x="1196" d="M121 934q0 76 18.5 149.5T196 1222t91.5 114 127.5 77.5 160 28.5q81 0 150-23.5t119.5-63.5 90.5-96 66-119 43-135 24-141.5 7-140.5q0-133-16-243t-53-204-94.5-158.5T769 16.5 575-20q-159 0-270 92T162 303l125 21q41-121 109.5-179.5T575 86q69 0 125.5 21t95.5 56 68.5 85.5T911 351t27.5 115 14 116.5T956 694q-35-118-146-190t-235-72q-104 0-190.5 39T241 578t-88.5 159.5T121 934zm117 2q0-59 11-114t36-108 63-92 96.5-63T575 535t131 24 97 63 64 92 37 108 11 114q0 75-18 143t-56 128-105.5 96-157.5 36-158-36-106.5-96-57-128.5T238 936z"/><glyph unicode=":" horiz-adv-x="491" d="M150 0v190h190V0H150zm0 846v190h190V846H150z"/><glyph unicode=";" horiz-adv-x="491" d="M150 846v190h190V846H150zm2-846v190h190V0L227-293h-75L246 0h-94z"/><glyph unicode="&lt;" horiz-adv-x="1241" d="M102 467v102l1037 467V934L215 518l924-416V0z"/><glyph unicode="=" horiz-adv-x="1241" d="M102 231v103h1037V231H102zm0 467v105h1037V698H102z"/><glyph unicode="&gt;" horiz-adv-x="1241" d="M102 0v102l924 416-924 416v102l1037-467V467z"/><glyph unicode="?" horiz-adv-x="999" d="M82 1057q8 181 111 293t296 112q200 0 314.5-111T918 1053q0-62-16.5-112.5t-50-89.5-67-66.5T700 725q-58-38-105.5-88.5T547 535V412H434v114q0 83 32 132t93 94q142 95 191 156.5t49 144.5q0 133-80.5 219T489 1358q-76 0-135-29.5t-92.5-77.5-50-103-16.5-112zM393 0v190h191V0H393z"/><glyph unicode="@" horiz-adv-x="2013" d="M92 492q0 213 77 397t206.5 308 302 194.5T1040 1462q130 0 254.5-34t238.5-106.5 200-176.5 137-254.5 51-329.5q0-129-20-231t-52-166.5-76.5-107-90-59.5-95.5-17q-112 0-177.5 66.5T1333 223q-38-120-137-181.5T971-20q-201 0-324 146.5T524 520q0 240 128.5 388.5T971 1057q81 0 156-26.5t132-80.5 74-125l21 211h102V307q0-106 37-160.5T1597 92q28 0 56.5 14t58.5 49 53.5 86.5T1804 376t15 185q0 154-41.5 286.5t-113.5 227-168.5 162T1289 1337t-226 33q-137 0-265.5-39T560 1215.5t-191-181T241 790t-46-298q0-170 61-321T425.5-92t268-177 346.5-65q125 0 279 50.5T1581-158l43-73q-121-88-285.5-141.5T1028-426q-187 0-357 65T372.5-179 168 112 92 492zm565 26q0-208 92.5-317T1004 92q153 0 241 113t88 313q0 196-88.5 311T1004 944q-161 0-254-110t-93-316z"/><glyph unicode="A" horiz-adv-x="1263" d="m51 0 520 1442h123L1212 0h-114L975 340H289L166 0H51zm275 442h612l-305 842z"/><glyph unicode="B" horiz-adv-x="1247" d="M154 0v1442h579q110 0 190-54t119-141 39-196q0-114-58.5-196.5T889 748q94-31 170-133.5t76-223.5q0-177-102-284T752 0H154zm112 104h482q120 0 198 84.5t78 202.5q0 116-78.5 208.5T760 692H266V104zm0 691h471q93 5 163.5 76.5T971 1051q0 122-65 205t-181 83H266V795z"/><glyph unicode="C" horiz-adv-x="1257" d="M92 721q0 218 66.5 384.5T356 1367t310 95q95 0 177.5-31t135-75 94-101 61.5-101 31-83l-110-31q-13 35-30.5 70t-51.5 82.5-74.5 82.5-102 60-130.5 25q-220 0-338.5-168T209 721t118.5-470T666 84q70 0 132.5 24t103 58 74.5 79 51 79 28 67l110-20q-11-39-31-83t-61.5-101-94-101-135-75T666-20q-179 0-310 95T158.5 336.5 92 721z"/><glyph unicode="D" horiz-adv-x="1325" d="M154 0v1442h471q140 0 248.5-52t178-147.5 105-227T1192 721q0-220-61.5-380t-190-250.5T625 0H154zm112 104h359q212 0 329 160.5T1071 721q0 292-117.5 455T625 1339H266V104z"/><glyph unicode="E" horiz-adv-x="1179" d="M154 0v1442h913v-103H266V795h721V692H266V104h801V0H154z"/><glyph unicode="F" horiz-adv-x="1118" d="M154 0v1442h872v-103H266V795h680V692H266V0H154z"/><glyph unicode="G" horiz-adv-x="1374" d="M92 721q0 218 67 384.5T357.5 1367t310.5 95q411 0 514-391l-103-20q-55 160-158.5 233.5T668 1358q-221 0-338-167T213 721t117-470T668 84q89 0 162.5 28T955 187t86 110.5 51 133.5 16 144v95H668v102h553V0h-93l-24 223q-35-90-155.5-166.5T668-20q-187 0-318.5 95.5T155 336 92 721z"/><glyph unicode="H" horiz-adv-x="1288" d="M154 0v1442h112V795h756v647h113V0h-113v692H266V0H154z"/><glyph unicode="I" horiz-adv-x="417" d="M154 0v1442h112V0H154z"/><glyph unicode="J" horiz-adv-x="888" d="m41 371 113 20q0-52 3-88.5t16.5-81 37-72T278 103t105-19q64 0 109.5 19t70.5 46.5 39 71 17.5 80T623 387v1055h112V387q0-74-7.5-130T697 146.5 636 57 534 1 383-20q-98 0-167.5 30.5t-106 87T57 220 41 371z"/><glyph unicode="K" horiz-adv-x="1228" d="M154 0v1442h112V729l752 713h170L530 819 1188 0h-141L451 741 266 567V0H154z"/><glyph unicode="L" horiz-adv-x="997" d="M154 0v1442h112V104h690V0H154z"/><glyph unicode="M" horiz-adv-x="1468" d="M154 0v1442h206L735 102l373 1340h207V0h-113v1339L821 0H649L266 1339V0H154z"/><glyph unicode="N" d="M154 0v1442h112l781-1235v1235h112V0h-112L266 1235V0H154z"/><glyph unicode="O" horiz-adv-x="1333" d="M92 721q0 220 63.5 385t195 260.5T668 1462q140 0 250-54.5t180-153.5 106.5-234 36.5-299-36.5-299T1098 188 918 34.5 668-20q-186 0-317.5 95.5T155.5 336 92 721zm123 0q0-304 116.5-471.5T668 82q219 0 334.5 167.5T1118 721t-115.5 471.5T668 1360q-220 0-336.5-167.5T215 721z"/><glyph unicode="P" horiz-adv-x="1159" d="M154 0v1442h548q172 0 274.5-118t102.5-300q0-183-102.5-300.5T702 606H266V0H154zm112 711h436q116 0 190.5 95.5T967 1024t-74.5 218.5T702 1339H266V711z"/><glyph unicode="Q" horiz-adv-x="1339" d="M92 721q0 220 63.5 385t195 260.5T668 1462q140 0 250-54.5t180-153.5 106.5-234 36.5-299q0-346-154-547L1268-4l-80-78-178 176Q874-20 668-20q-186 0-317.5 95.5T155.5 336 92 721zm123 0q0-304 116-470.5T668 84q156 0 264 88L752 352l79 80 175-176q112 165 112 465 0 304-115.5 470.5T668 1358q-221 0-337-166.5T215 721z"/><glyph unicode="R" horiz-adv-x="1200" d="M154 0v1442h548q172 0 274.5-118t102.5-300q0-186-108-302T668 606L1153 0h-141L526 606H266V0H154zm112 711h436q116 0 190.5 95.5T967 1024t-74.5 218.5T702 1339H266V711z"/><glyph unicode="S" horiz-adv-x="1230" d="m92 432 111 21q0-47 14-96t47.5-98.5 81-88 122-62.5T631 84q73 0 141.5 19t126 55.5 92.5 97 35 135.5q0 68-23.5 120t-59 83-91 52T747 676t-116 14q-498 40-498 379 0 81 29 148t76.5 111.5T349 1404t129 44.5 134 13.5q85 0 164-24t144.5-70 108.5-121 50-170l-110-20q-13 147-112 224t-245 77q-68 0-131.5-17t-118-50.5-87.5-91-33-130.5q0-40 10.5-74.5T290 926t69.5-59T471 822.5 631 795q56-5 98-11t98.5-19 97-31 83.5-48.5 69.5-70 44-97T1139 391q0-124-70-219T884 28.5 631-20q-134 0-241 41.5T220 130t-95.5 144.5T92 432z"/><glyph unicode="T" horiz-adv-x="1013" d="M61 1339v103h891v-103H563V0H451v1339H61z"/><glyph unicode="U" d="M154 465v977h112V465q0-166 115.5-273.5T657 84t275 107.5T1047 465v977h112V465q0-221-141-353T657-20q-144 0-258 58T219.5 207.5 154 465z"/><glyph unicode="V" horiz-adv-x="1263" d="M51 1442h115L633 166l465 1276h114L694 0H571z"/><glyph unicode="W" horiz-adv-x="1665" d="M51 1442h115L414 166l323 1276h168l322-1276 272 1276h115L1309 0h-138L821 1305 471 0H334z"/><glyph unicode="X" horiz-adv-x="1120" d="m61 0 439 723-439 719h125l373-629 375 629h125L621 723 1059 0H934L559 629 186 0H61z"/><glyph unicode="Y" horiz-adv-x="1079" d="M41 1442h125l373-629 374 629h125L596 709V0H483v709z"/><glyph unicode="Z" horiz-adv-x="1077" d="M92 0v104l760 1235H92v103h891v-103L225 104h758V0H92z"/><glyph unicode="[" horiz-adv-x="710" d="M127-406v1848h422v-103H238V-303h311v-103H127z"/><glyph unicode="\" horiz-adv-x="1042" d="M72 1442h118Q952 112 1016 0H897z"/><glyph unicode="]" horiz-adv-x="710" d="M127-303h311v1642H127v103h422V-406H127v103z"/><glyph unicode="^" horiz-adv-x="1009" d="m117 698 307 744h123l307-744H737l-252 607-252-607H117z"/><glyph unicode="_" horiz-adv-x="1241" d="M102 0v102h1037V0H102z"/><glyph unicode="`" horiz-adv-x="415" d="M61 1442h158l135-297H252z"/><glyph unicode="a" horiz-adv-x="1161" d="M102 291q0 128 104 207.5T500 578h336v114q0 41-4 71.5T810.5 832t-48 63-87 42T541 954q-283 0-283-264l-111 21q0 164 111 255t283 91q192 0 299.5-93T948 692V242q0-77 15-112.5t59-35.5q19 0 57 10V0q-36-10-80-10-81 0-122 49t-41 131q-48-64-88-96-110-90-267-94-178 0-278.5 85T102 291zm119 0q0-85 65.5-147T481 82q89 0 159.5 31T752 194t62.5 107.5T836 418v57H506q-86 0-146.5-18.5t-88.5-49-39-58.5-11-58z"/><glyph unicode="b" horiz-adv-x="1142" d="M154 0v1442h112V872q17 26 39 50.5t64 58.5 104.5 55 134.5 21q203 0 323-148.5T1051 518q0-238-125-388T608-20q-71 0-133 21T371 55t-65.5 58.5T266 164L246 0h-92zm112 518q0-198 83.5-317T590 82q158 0 250 120.5T932 518t-92 315.5T590 954q-157 0-240.5-119T266 518z"/><glyph unicode="c" horiz-adv-x="1056" d="M92 518q0 244 124 391.5T553 1057q101 0 180-33.5T858.5 936 931 825.5 965 711l-111-21q-30 125-106 194.5T553 954q-156 0-249-121t-93-315 93-315T553 82q119 0 195 69t106 195l111-20q-8-58-34-114.5T858.5 101 733 13.5 553-20q-213 0-337 147T92 518z"/><glyph unicode="d" horiz-adv-x="1140" d="M92 518q0 242 120 390.5T535 1057q209 0 339-185v570h113V0h-92l-21 164q-16-25-39-50.5t-64.5-59-103-54T535-20q-193 0-318 150T92 518zm119 0q0-195 91.5-315.5T553 82q155 0 238 119t83 317-83 317-238 119q-159 0-250.5-120.5T211 518z"/><glyph unicode="e" horiz-adv-x="1101" d="M92 518q0 242 124 390.5T545 1057q219 0 341-153 103-129 103-345 0-41-4-84H223q0-95 39.5-184T380 142t175-60q123 0 217.5 69.5T897 342l109-20q-6-44-26.5-90t-59-91.5-89.5-81T708 2 555-20q-201 0-332 150T92 518zm131 62h635q0 374-313 374-79 0-142-32.5t-101.5-86-58.5-119T223 580z"/><glyph unicode="f" horiz-adv-x="663" d="M61 934v102h195v152q0 254 244 254h102v-103H502q-64 0-98.5-40.5T369 1188v-152h233V934H369V0H256v934H61z"/><glyph unicode="g" horiz-adv-x="1142" d="M92 518q0 240 122 389.5T535 1057q125 0 215.5-61.5T877 858l20 178h92V33q0-229-114-344T555-426q-167 0-270.5 74T150-154l110 21q17-73 95.5-132T555-324q74 0 130.5 19.5t91.5 52 57.5 80 32 96.5T877 33v135Q842 95 750 37.5T535-20q-193 0-318 150T92 518zm119 0q0-195 92-315.5T553 82q157 0 240.5 119T877 518t-83.5 317T553 954q-158 0-250-120.5T211 518z"/><glyph unicode="h" horiz-adv-x="1107" d="M154 0v1442h112V891q25 34 49 58.5t62 51.5 90 41.5 115 14.5q206-1 299.5-124.5T975 557V0H862v557q0 205-68 300.5T563 954q-157 0-227-99t-70-298V0H154z"/><glyph unicode="i" horiz-adv-x="481" d="M164 1288v154h153v-154H164zM184 0v1036h113V0H184z"/><glyph unicode="j" horiz-adv-x="462" d="M-61-301H39q64 0 98.5 39.5T172-152v1188h113V-152q0-129-61-191.5T41-406H-61v105zm213 1589v154h153v-154H152z"/><glyph unicode="k" horiz-adv-x="1067" d="M154 0v1442h112V526l531 510h159L528 627 1030 0H889L449 549 266 375V0H154z"/><glyph unicode="l" horiz-adv-x="419" d="M154 0v1442h112V0H154z"/><glyph unicode="m" horiz-adv-x="1660" d="M154 0v1036h92l20-135q21 57 99 106.5t178 49.5q216 0 317-176 97 176 316 176 187 0 269.5-119.5T1528 580V0h-113v580q0 374-258 374-64 0-111.5-21T970 879t-45-83.5-22.5-101T897 580V0H784v580q0 64-5.5 114T756 794.5 711 878t-75.5 53.5T524 952q-258 0-258-372V0H154z"/><glyph unicode="n" horiz-adv-x="1107" d="M154 0v1036h92l20-135q40 66 118 111t198 45q206-1 299.5-124.5T975 557V0H862v557q0 205-68 299.5T563 952q-157 0-227-98t-70-297V0H154z"/><glyph unicode="o" horiz-adv-x="1089" d="M92 518q0 245 120.5 392T545 1057q211 0 331.5-148T997 518 876.5 127.5 545-20q-212 0-332.5 147.5T92 518zm119 0q0-196 89-316T545 82q157 0 245.5 120T879 518t-88.5 316T545 954q-156 0-245-120t-89-316z"/><glyph unicode="p" horiz-adv-x="1144" d="M154-406v1442h92l20-164q16 25 39.5 50t65.5 59 104 55 133 21q192 0 313-150t121-389q0-243-115.5-390.5T608-20Q536-20 473.5.5t-104 54-64.5 59-39 50.5v-570H154zm112 924q0-198 83.5-317T590 82t245.5 120T924 518t-88.5 316T590 954 349.5 835 266 518z"/><glyph unicode="q" horiz-adv-x="1144" d="M102 518q0 239 121.5 389T537 1057q71 0 133-21t104-55 65.5-59 39.5-50l20 164h92V-406H879v570q-16-25-39-50.5t-64.5-59-104-54T537-20q-203 0-319 147.5T102 518zm119 0q0-196 88.5-316T555 82t240.5 119T879 518t-83.5 317T555 954 309.5 834 221 518z"/><glyph unicode="r" horiz-adv-x="684" d="M154 0v1036h92l20-135q39 54 113.5 105t165.5 51q48 0 78-10V932h-58q-159 0-229-90.5T266 557V0H154z"/><glyph unicode="s" horiz-adv-x="1003" d="m92 326 111 20q0-31 6-61.5t25.5-69 51-66.5 88.5-47.5T506 82q34 0 66.5 3.5T649 102t75.5 34.5 54 62T801 293q0 45-19 78.5T737 424t-70.5 32.5T590 475t-82 10q-37 4-57 6.5t-57 9-59.5 13-54 18-51.5 26-42.5 35.5-34.5 46-20.5 58.5T123 770q0 123 104 205t258 82q176 0 290-90t114-256l-115-21q0 129-77 196.5T485 954q-112 0-180.5-54T236 770q0-91 65.5-129T506 590q75-8 129-18t109-31.5 89.5-52.5 56-80T911 293q0-144-110-228.5T506-20q-109 0-192 31T184.5 93.5 115 204 92 326z"/><glyph unicode="t" horiz-adv-x="704" d="M72 934v102h194v318h113v-318h233V934H379V254q0-84 32.5-117T512 104h100V0H510Q379 0 322.5 60.5T266 254v680H72z"/><glyph unicode="u" horiz-adv-x="1087" d="M113 479v557h112V479q0-205 68-299.5T524 84q157 0 227 98t70 297v557h113V0h-92l-21 135Q711-20 506-20q-206 1-299.5 123.5T113 479z"/><glyph unicode="v" horiz-adv-x="968" d="M51 1036h115l317-870 320 870h115L545 0H424z"/><glyph unicode="w" horiz-adv-x="1357" d="M61 1036h109l164-870 258 870h145l279-870 172 870h108L1075 0H958L664 899 391 0H274z"/><glyph unicode="x" horiz-adv-x="892" d="m41 0 340 514-340 522h125l280-424 279 424h127L510 514 852 0H719L446 416 174 0H41z"/><glyph unicode="y" horiz-adv-x="948" d="M41 1036h115l317-872 320 872h114L389-406H268L416 0z"/><glyph unicode="z" horiz-adv-x="925" d="M102 0v104l568 830H123v102h680V934L236 104h587V0H102z"/><glyph unicode="{" horiz-adv-x="837" d="M229 475v103q45 0 77 35t32 87v514q0 100 50.5 164t166.5 64h102v-103h-96q-45 0-77.5-35.5T451 1217V762q0-184-107-236 18-9 34.5-24t34-41 28-70T451 291v-471q0-51 32.5-87t77.5-36h96v-103H555q-217 0-217 228v532q0 51-31.5 86T229 475z"/><glyph unicode="|" horiz-adv-x="419" d="M154-406v1848h112V-406H154z"/><glyph unicode="}" horiz-adv-x="837" d="M229-303h97q45 0 77.5 36t32.5 87v471q0 56 10.5 100t28 70 34 41 34.5 24q-107 52-107 236v455q0 51-32.5 86.5T326 1339h-97v103h103q116 0 166.5-64t50.5-164V700q0-52 31.5-87t76.5-35V475q-46 0-77-35t-31-86v-532q0-228-217-228H229v103z"/><glyph unicode="~" horiz-adv-x="1058" d="M102 541q79 89 129 119t119 30q46 0 103.5-21.5t101.5-48 93-48 81-21.5q28 0 54 21.5t89 91.5l84-76q-80-90-129-120t-118-30q-60 0-132.5 35T438 543t-108 35q-28 0-54.5-22T186 465z"/><glyph horiz-adv-x="542"/><glyph unicode="¡" horiz-adv-x="489" d="M150 846v190h190V846H150zM188 0l11 610h80L289 0v-406H188V0z"/><glyph unicode="¢" horiz-adv-x="1048" d="M92 518q0 228 106 372t296 163v176h112v-176q68-8 125.5-34t95.5-61 66-79 42.5-85.5T956 711l-110-21q-27 106-87.5 172.5T606 946V88q185 34 240 258l110-20q-7-54-29.5-106t-62-103.5T758 29 606-16v-197H494v195Q304 1 198 144.5T92 518zm111 0q0-178 78-294T494 88v860q-134-20-212.5-137T203 518z"/><glyph unicode="£" horiz-adv-x="1263" d="M129 0v104h61q68 0 100 33t32 117v442H129v105h193v262q0 174 95.5 286.5T686 1462q62 0 115.5-12t103-41 84-74 55.5-116 21-162l-113-21q0 322-266 322-85 0-143.5-42.5t-83.5-107-25-145.5V801h244V696H434V254q0-62-8.5-94T391 104h561v293h113V0H129z"/><glyph unicode="¤" horiz-adv-x="1171" d="m37 39 164 164q-68 130-68 315 0 174 62 301L37 979l78 78 141-144q125 144 330 144 200 0 325-144l144 144 78-78-160-160q65-127 65-301 0-185-71-315l166-164-78-78-152 150Q781-20 586-20q-202 0-320 133L115-39zm207 479q0-194 92.5-314T586 84q158 0 250 119.5T928 518t-92 314.5T586 952q-157 0-249.5-120T244 518z"/><glyph unicode="¥" horiz-adv-x="1079" d="M41 1442h125l373-629 374 629h125L657 813h293V698H596V512h354V397H596V0H483v397H129v115h354v186H129v115h293z"/><glyph unicode="¦" horiz-adv-x="419" d="M154-412v834h112v-834H154zm0 1020v834h112V608H154z"/><glyph unicode="§" horiz-adv-x="1226" d="M139 600q0 102 52.5 187T319 924q-30 58-39.5 95t-9.5 97q0 90 38 167.5t117 128 185 50.5q169 0 270.5-102T989 1071l-110-20q0 137-71 222t-198 85q-62 0-108.5-24t-71-62.5-36-77.5-11.5-78q0-209 229-274 170-49 221-70 170-68 225-189 29-67 29-153 0-108-49-192T913 106q41-93 41-196 0-91-37.5-167.5T799-384t-189-50q-180 0-272 109T238-20L348 0q0-69 14-126.5t44-104 82-73T610-330q51 0 92.5 16t67 41 43 58 24.5 64 7 61q0 213-230 278-170 49-221 70-170 68-225 189-29 67-29 153zm113 0q0-41 14-77t32.5-61 53-49.5 60-38 70.5-30 66-23 64-18.5q149-42 232-115 131 87 131 242 0 41-14 77t-32.5 61-53.5 49.5-60 38-70.5 30-66 23T614 727q-142 37-231 115-131-84-131-242z"/><glyph unicode="¨" horiz-adv-x="868" d="M162 1288v154h153v-154H162zm391 0v154h154v-154H553z"/><glyph unicode="©" horiz-adv-x="1585" d="M51 721q0 202 99.5 372.5t270 269.5 372.5 99q151 0 288.5-58.5T1318 1246t157.5-236.5T1534 721t-58.5-288.5T1318 196 1081.5 38.5 793-20q-202 0-372.5 99t-270 269.5T51 721zm72 0q0-181 90-335.5T457.5 141 793 51q136 0 260 53t213.5 143T1409 461t53 260-53 260-142.5 214-213.5 143-260 53q-181 0-335.5-90T213 1056.5 123 721zm266 0q0 232 107.5 375T793 1239q66 0 123-21.5t93.5-52 66-71 43.5-71 22-58.5l-76-15q-9 24-21.5 48.5t-36.5 56-52 55-71 39.5-91 16q-155 0-238.5-116T471 721t84-329.5T793 274q60 0 110.5 23.5T986 359t50 69 29 61l76-14q-6-26-20.5-58t-43-71-66-70.5-95-53T793 201q-189 0-296.5 143.5T389 721z"/><glyph unicode="ª" horiz-adv-x="714" d="M106 1049q0 69 54.5 113t156.5 44h181v60q0 27-5 47.5t-19.5 43.5-48.5 35.5-85 12.5q-154 0-154-141l-59 10q0 89 60 138.5t153 49.5q103 0 161-50t58-146v-244q0-42 8-61t33-19q13 0 31 6v-57q-24-6-43-6-44 0-67 26.5T498 983q-70-100-191-102-96 0-148.5 45.5T106 1049zm60 0q0-46 35.5-79.5T307 936q92 0 141.5 55.5T498 1116v39H322q-47 0-80-11t-48.5-29-21.5-34-6-32z"/><glyph unicode="«" horiz-adv-x="880" d="m61 516 244 315h135L193 516l229-291H289zm277 0 244 315h135L469 516l229-291H565z"/><glyph unicode="¬" horiz-adv-x="1239" d="M125 453v106h917V0H932v453H125z"/><glyph unicode="­" horiz-adv-x="864" d="M133 465v104h596V465H133z"/><glyph unicode="®" horiz-adv-x="1585" d="M51 721q0 202 99.5 372.5t270 269.5 372.5 99q151 0 288.5-58.5T1318 1246t157.5-236.5T1534 721t-58.5-288.5T1318 196 1081.5 38.5 793-20q-202 0-372.5 99t-270 269.5T51 721zm72 0q0-181 90-335.5T457.5 141 793 51q136 0 260 53t213.5 143T1409 461t53 260-53 260-142.5 214-213.5 143-260 53q-181 0-335.5-90T213 1056.5 123 721zm352-504v1008h383q121 0 192.5-82t71.5-209q0-130-75-211.5T836 641l335-424h-96L735 641H553V217h-78zm78 496h305q82 0 134 67t52 154q0 85-52 152t-134 67H553V713z"/><glyph unicode="¯" horiz-adv-x="718" d="M61 1145v104h596v-104H61z"/><glyph unicode="°" horiz-adv-x="815" d="M88 1141q0 133 93 226t227 93q132 0 225.5-93t93.5-226q0-132-93.5-226T408 821q-133 0-226.5 94T88 1141zm107 0q0-88 62-150.5T408 928q88 0 150.5 62.5T621 1141q0 89-62.5 151T408 1354q-89 0-151-62t-62-151z"/><glyph unicode="±" horiz-adv-x="1243" d="M102 0v102h1037V0H102zm2 881v102h463v459h113V983h461V881H680V406H567v475H104z"/><glyph unicode="²" horiz-adv-x="737" d="M98 623v96l310 311q102 102 102 187 0 58-41 101.5T356 1362q-58 0-102.5-50.5T209 1184l-100 18q0 118 73 188t174 70q114 0 187-69.5t73-173.5q0-44-14.5-86.5t-41-79.5-44.5-57.5-45-47.5L244 719h393v-96H98z"/><glyph unicode="³" horiz-adv-x="737" d="m98 856 103 18q0-77 39-124.5T348 702q71 0 116.5 38T510 844q0 67-47 107t-115 40h-74v96h74q64 0 106 37.5t42 96.5q0 58-42.5 100.5T348 1364q-61 0-101-45t-40-129l-103 18q0 115 70.5 183.5T348 1460q106 0 179-69.5t73-169.5q0-59-30.5-106.5T498 1042q48-29 83-81t35-117q0-107-76.5-173.5T348 604q-116 0-183 70.5T98 856z"/><glyph unicode="´" horiz-adv-x="415" d="m61 1145 136 297h157l-190-297H61z"/><glyph unicode="µ" horiz-adv-x="1208" d="M154-406v1442h110V479q0-199 70.5-297T563 84q164 1 232.5 96T864 479v557h111V242q0-77 15-112.5t59-35.5q19 0 57 10V0q-36-10-80-10-121 0-154 104Q780-17 582-20q-208 0-318 155v-541H154z"/><glyph unicode="¶" horiz-adv-x="1220" d="M59 1024q0 178 120.5 298T475 1442h555v-105H922V-406H809v1743H700V-406H590V606H475q-176 0-296 119.5T59 1024z"/><glyph unicode="·" horiz-adv-x="491" d="M150 647v191h190V647H150z"/><glyph unicode="¸" horiz-adv-x="569" d="m61-266 64 14q4-46 43.5-76t91.5-30 85.5 29.5T379-254q0 54-39 86.5T260-135q-39 0-65-15l-45 41L301 29h59V0l-92-84q71 0 127-45t56-125q0-78-53.5-125T260-426t-139 44.5T61-266z"/><glyph unicode="¹" horiz-adv-x="565" d="M102 1133v129l205 180h88V623H295v671z"/><glyph unicode="º" horiz-adv-x="751" d="M102 1171q0 132 64.5 211.5T346 1462q114 0 179-80t65-211q0-132-65-211t-179-79q-115 0-179.5 78.5T102 1171zm60 0q0-106 49.5-170.5T346 936t134.5 64.5T530 1171q0 104-49.5 169T346 1405t-134.5-65-49.5-169z"/><glyph unicode="»" horiz-adv-x="880" d="M61 831h136l243-315-227-291H80l229 291zm277 0h135l244-315-228-291H356l230 291z"/><glyph unicode="¼" horiz-adv-x="1652" d="M102 1133v129l205 180h88V623H295v671zM313 0l863 1497 98-55L412-55zm582 190v80l375 547h90V285h190v-95h-190V0h-100v190H895zm131 95h234v342z"/><glyph unicode="½" horiz-adv-x="1478" d="M102 1133v129l205 180h88V623H295v671zM190 0l863 1497 98-55L289-55zm648 0v96l309 312q102 102 102 186 0 59-40.5 102T1096 739q-58 0-103-50.5T948 561l-100 19q0 118 73.5 188t174.5 70q114 0 187-70t73-174q0-44-14.5-86t-42-79.5-44.5-57-45-47.5L983 96h393V0H838z"/><glyph unicode="¾" horiz-adv-x="1652" d="m102 856 103 18q0-77 39-124.5T352 702q71 0 116.5 38T514 844q0 67-47 107t-115 40h-73v96h73q64 0 106 37.5t42 96.5q0 58-42.5 100.5T352 1364q-61 0-101-45t-40-129l-102 18q0 115 70 183.5t173 68.5q106 0 179-69.5t73-169.5q0-59-30.5-106.5T502 1042q48-29 83.5-81T621 844q0-107-77-173.5T352 604q-116 0-183 70.5T102 856zM375 0l862 1497 98-55L473-55zm520 190v80l375 547h90V285h190v-95h-190V0h-100v190H895zm131 95h234v342z"/><glyph unicode="¿" horiz-adv-x="999" d="M82-16q0 62 16.5 112t49.5 89.5 66.5 66.5 84.5 59q58 38 106 89t48 102v123h112V510q0-83-32-131.5T440 285q-142-95-190.5-156T201-16q0-133 80-219.5T510-322q76 0 135 29.5t93 77.5 50.5 103T805 0l113-20q-8-181-111.5-293.5T510-426q-199 0-313.5 111T82-16zm334 862v190h190V846H416z"/><glyph unicode="À" horiz-adv-x="1263" d="m51 0 520 1442h123L1212 0h-114L975 340H289L166 0H51zm275 442h612l-305 842zm59 1405h158l135-297H575z"/><glyph unicode="Á" horiz-adv-x="1263" d="m51 0 520 1442h123L1212 0h-114L975 340H289L166 0H51zm275 442h612l-305 842zm266 1108 135 297h158l-191-297H592z"/><glyph unicode="Â" horiz-adv-x="1263" d="m51 0 520 1442h123L1212 0h-114L975 340H289L166 0H51zm275 442h612l-305 842zm94 1108 135 297h158l135-297H745l-112 215-111-215H420z"/><glyph unicode="Ã" horiz-adv-x="1263" d="m51 0 520 1442h123L1212 0h-114L975 340H289L166 0H51zm275 442h612l-305 842zm36 1108v43q0 28 8 55t25 52.5 49.5 41T520 1757q38 0 73.5-16.5t58-35.5 48-35.5T745 1653q68 0 68 104h92v-41q0-38-14-73.5t-52-64-94-28.5q-48 0-91 26t-76.5 51.5T520 1653q-65 0-65-103h-93z"/><glyph unicode="Ä" horiz-adv-x="1263" d="m51 0 520 1442h123L1212 0h-114L975 340H289L166 0H51zm275 442h612l-305 842zm34 1108v154h154v-154H360zm392 0v154h153v-154H752z"/><glyph unicode="Å" horiz-adv-x="1263" d="m51 0 520 1442h123L1212 0h-114L975 340H289L166 0H51zm275 442h612l-305 842zm112 1301q0 78 57.5 135t135.5 57q79 0 135.5-57t56.5-135q0-80-56.5-136.5T631 1550q-78 0-135.5 57T438 1743zm90 0q0-42 30.5-72.5T631 1640q43 0 72.5 30t29.5 73q0 42-30 72t-72 30q-41 0-72-30.5t-31-71.5z"/><glyph unicode="Æ" horiz-adv-x="1892" d="m55 0 791 1442h934v-105h-756V795h676V690h-676V104h756V0H913v338H365L180 0H55zm367 442h491v895z"/><glyph unicode="Ç" horiz-adv-x="1257" d="M92 721q0 218 66.5 384.5T356 1367t310 95q95 0 177.5-31t135-75 94-101 61.5-101 31-83l-110-31q-13 35-30.5 70t-51.5 82.5-74.5 82.5-102 60-130.5 25q-220 0-338.5-168T209 721t118.5-470T666 84q70 0 132.5 24t103 58 74.5 79 51 79 28 67l110-20q-11-39-31-83t-61.5-101-94-101-135-75T666-20q-179 0-310 95T158.5 336.5 92 721zm367-987 63 14q4-46 43.5-76t91.5-30 85.5 29.5T776-254q0 54-39 86.5T657-135q-39 0-65-15l-45 41L698 29h60V0l-92-84q70 0 126-45t56-125q0-78-53.5-125T657-426t-138.5 44.5T459-266z"/><glyph unicode="È" horiz-adv-x="1179" d="M154 0v1442h913v-103H266V795h721V692H266V104h801V0H154zm213 1847h157l135-297H557z"/><glyph unicode="É" horiz-adv-x="1179" d="M154 0v1442h913v-103H266V795h721V692H266V104h801V0H154zm385 1550 135 297h157l-190-297H539z"/><glyph unicode="Ê" horiz-adv-x="1179" d="M154 0v1442h913v-103H266V795h721V692H266V104h801V0H154zm231 1550 135 297h158l135-297H711l-113 215-111-215H385z"/><glyph unicode="Ë" horiz-adv-x="1179" d="M154 0v1442h913v-103H266V795h721V692H266V104h801V0H154zm172 1550v154h153v-154H326zm391 0v154h153v-154H717z"/><glyph unicode="Ì" horiz-adv-x="417" d="M-33 1847h158l135-297H158zM154 0v1442h112V0H154z"/><glyph unicode="Í" horiz-adv-x="417" d="M154 0v1442h112V0H154zm2 1550 135 297h158l-191-297H156z"/><glyph unicode="Î" horiz-adv-x="417" d="m-4 1550 135 297h158l135-297H322l-113 215-111-215H-4zM154 0v1442h112V0H154z"/><glyph unicode="Ï" horiz-adv-x="417" d="M-63 1550v154H90v-154H-63zM154 0v1442h112V0H154zm174 1550v154h153v-154H328z"/><glyph unicode="Ð" horiz-adv-x="1445" d="M37 657v103h242v682h471q140-1 249-55t178-152 104.5-231.5T1317 707q0-333-143.5-520T750 0H279v657H37zm354-553h359q213 0 329.5 154T1196 707q0 293-118 462.5T750 1339H391V760h242V657H391V104z"/><glyph unicode="Ñ" horiz-adv-x="1439" d="M203 0v1442h112l781-1235v1235h112V0h-112L315 1235V0H203zm233 1550v43q0 28 8 55t25 52.5 49.5 41T594 1757q38 0 73.5-16.5t58-35.5 48-35.5T819 1653q68 0 68 104h92v-41q0-38-14-73.5t-52-64-94-28.5q-48 0-91 26t-76.5 51.5T594 1653q-66 0-66-103h-92z"/><glyph unicode="Ò" horiz-adv-x="1333" d="M92 721q0 220 63.5 385t195 260.5T668 1462q140 0 250-54.5t180-153.5 106.5-234 36.5-299-36.5-299T1098 188 918 34.5 668-20q-186 0-317.5 95.5T155.5 336 92 721zm123 0q0-304 116.5-471.5T668 82q219 0 334.5 167.5T1118 721t-115.5 471.5T668 1360q-220 0-336.5-167.5T215 721zm211 1126h158l135-297H616z"/><glyph unicode="Ó" horiz-adv-x="1333" d="M92 721q0 220 63.5 385t195 260.5T668 1462q140 0 250-54.5t180-153.5 106.5-234 36.5-299-36.5-299T1098 188 918 34.5 668-20q-186 0-317.5 95.5T155.5 336 92 721zm123 0q0-304 116.5-471.5T668 82q219 0 334.5 167.5T1118 721t-115.5 471.5T668 1360q-220 0-336.5-167.5T215 721zm383 829 135 297h158l-191-297H598z"/><glyph unicode="Ô" horiz-adv-x="1333" d="M92 721q0 220 63.5 385t195 260.5T668 1462q140 0 250-54.5t180-153.5 106.5-234 36.5-299-36.5-299T1098 188 918 34.5 668-20q-186 0-317.5 95.5T155.5 336 92 721zm123 0q0-304 116.5-471.5T668 82q219 0 334.5 167.5T1118 721t-115.5 471.5T668 1360q-220 0-336.5-167.5T215 721zm223 829 135 297h158l135-297H764l-113 215-110-215H438z"/><glyph unicode="Õ" horiz-adv-x="1333" d="M92 721q0 220 63.5 385t195 260.5T668 1462q140 0 250-54.5t180-153.5 106.5-234 36.5-299-36.5-299T1098 188 918 34.5 668-20q-186 0-317.5 95.5T155.5 336 92 721zm123 0q0-304 116.5-471.5T668 82q219 0 334.5 167.5T1118 721t-115.5 471.5T668 1360q-220 0-336.5-167.5T215 721zm180 829v43q0 28 8 55t25 52.5 49.5 41T553 1757q38 0 73.5-16.5t58-35.5 48-35.5T778 1653q68 0 68 104h92v-41q0-38-14-73.5t-52-64-94-28.5q-48 0-91 26t-76.5 51.5T553 1653q-66 0-66-103h-92z"/><glyph unicode="Ö" horiz-adv-x="1333" d="M92 721q0 220 63.5 385t195 260.5T668 1462q140 0 250-54.5t180-153.5 106.5-234 36.5-299-36.5-299T1098 188 918 34.5 668-20q-186 0-317.5 95.5T155.5 336 92 721zm123 0q0-304 116.5-471.5T668 82q219 0 334.5 167.5T1118 721t-115.5 471.5T668 1360q-220 0-336.5-167.5T215 721zm178 829v154h154v-154H393zm391 0v154h154v-154H784z"/><glyph unicode="×" horiz-adv-x="1181" d="m72 961 78 75 442-442 444 442 74-71-444-445 442-442-78-78-440 442L147 0 74 74l442 442z"/><glyph unicode="Ø" horiz-adv-x="1433" d="M141 721q0 220 63.5 385t195 260.5T717 1462q178 0 309-92l96 166 97-55-107-185q178-199 178-575 0-164-36.5-299T1147 188 967 34.5 717-20q-181 0-314 90L311-90l-96 55 104 180Q141 344 141 721zm121 0q0-308 117-471l594 1026q-108 82-256 82-221 0-338-167T262 721zm197-555q108-82 258-82 220 0 337 167t117 470q0 306-118 471z"/><glyph unicode="Ù" d="M154 465v977h112V465q0-166 115.5-273.5T657 84t275 107.5T1047 465v977h112V465q0-221-141-353T657-20q-144 0-258 58T219.5 207.5 154 465zm264 1382h157l136-297H608z"/><glyph unicode="Ú" d="M154 465v977h112V465q0-166 115.5-273.5T657 84t275 107.5T1047 465v977h112V465q0-221-141-353T657-20q-144 0-258 58T219.5 207.5 154 465zm436 1085 135 297h158l-191-297H590z"/><glyph unicode="Û" d="M154 465v977h112V465q0-166 115.5-273.5T657 84t275 107.5T1047 465v977h112V465q0-221-141-353T657-20q-144 0-258 58T219.5 207.5 154 465zm288 1085 136 297h157l135-297H768l-113 215-110-215H442z"/><glyph unicode="Ü" d="M154 465v977h112V465q0-166 115.5-273.5T657 84t275 107.5T1047 465v977h112V465q0-221-141-353T657-20q-144 0-258 58T219.5 207.5 154 465zm229 1085v154h154v-154H383zm391 0v154h154v-154H774z"/><glyph unicode="Ý" horiz-adv-x="1132" d="M68 1442h125l372-629 375 629h125L623 709V0H510v709zm438 108 135 297h158l-191-297H506z"/><glyph unicode="Þ" horiz-adv-x="1189" d="M154 0v1442h112v-307h436q171 0 273-118t102-300q0-184-101.5-301T702 299H268V0H154zm112 403h436q116 0 190.5 96T967 717t-74.5 217.5T702 1030H266V403z"/><glyph unicode="ß" horiz-adv-x="1191" d="M154 0v1018q0 209 107.5 326T569 1462q114 1 201.5-29.5t140-95.5 52.5-157q0-106-62-174.5T715 920q-87-11-128.5-56.5T545 758q0-146 241-170 344-38 344-297 0-139-99-225T786-20q-88 0-155.5 21t-108 54-66 80-35 92.5T412 324l112 20q0-34 3-61.5t18-67 41-66 77.5-46T786 84q16 0 38.5 3t58.5 15.5 65 33 50.5 61T1020 291q0 43-17 76.5T963.5 420 905 452.5 844.5 471 786 481q-62 8-109 19t-95.5 32-79.5 49.5-50.5 73.5T432 758q0 119 77 190.5t206 85.5q74 8 105.5 49.5T852 1180q0 57-32 95.5t-83 55-90 22-78 5.5q-153 0-229-92t-76-248V0H154z"/><glyph unicode="à" horiz-adv-x="1161" d="M102 291q0 128 104 207.5T500 578h336v114q0 41-4 71.5T810.5 832t-48 63-87 42T541 954q-283 0-283-264l-111 21q0 164 111 255t283 91q192 0 299.5-93T948 692V242q0-77 15-112.5t59-35.5q19 0 57 10V0q-36-10-80-10-81 0-122 49t-41 131q-48-64-88-96-110-90-267-94-178 0-278.5 85T102 291zm119 0q0-85 65.5-147T481 82q89 0 159.5 31T752 194t62.5 107.5T836 418v57H506q-86 0-146.5-18.5t-88.5-49-39-58.5-11-58zm96 1151h158l135-297H508z"/><glyph unicode="á" horiz-adv-x="1161" d="M102 291q0 128 104 207.5T500 578h336v114q0 41-4 71.5T810.5 832t-48 63-87 42T541 954q-283 0-283-264l-111 21q0 164 111 255t283 91q192 0 299.5-93T948 692V242q0-77 15-112.5t59-35.5q19 0 57 10V0q-36-10-80-10-81 0-122 49t-41 131q-48-64-88-96-110-90-267-94-178 0-278.5 85T102 291zm119 0q0-85 65.5-147T481 82q89 0 159.5 31T752 194t62.5 107.5T836 418v57H506q-86 0-146.5-18.5t-88.5-49-39-58.5-11-58zm256 854 135 297h158l-190-297H477z"/><glyph unicode="â" horiz-adv-x="1161" d="M102 291q0 128 104 207.5T500 578h336v114q0 41-4 71.5T810.5 832t-48 63-87 42T541 954q-283 0-283-264l-111 21q0 164 111 255t283 91q192 0 299.5-93T948 692V242q0-77 15-112.5t59-35.5q19 0 57 10V0q-36-10-80-10-81 0-122 49t-41 131q-48-64-88-96-110-90-267-94-178 0-278.5 85T102 291zm119 0q0-85 65.5-147T481 82q89 0 159.5 31T752 194t62.5 107.5T836 418v57H506q-86 0-146.5-18.5t-88.5-49-39-58.5-11-58zm115 854 135 297h158l135-297H662l-113 215-111-215H336z"/><glyph unicode="ã" horiz-adv-x="1161" d="M102 291q0 128 104 207.5T500 578h336v114q0 41-4 71.5T810.5 832t-48 63-87 42T541 954q-283 0-283-264l-111 21q0 164 111 255t283 91q192 0 299.5-93T948 692V242q0-77 15-112.5t59-35.5q19 0 57 10V0q-36-10-80-10-81 0-122 49t-41 131q-48-64-88-96-110-90-267-94-178 0-278.5 85T102 291zm119 0q0-85 65.5-147T481 82q89 0 159.5 31T752 194t62.5 107.5T836 418v57H506q-86 0-146.5-18.5t-88.5-49-39-58.5-11-58zm53 854v43q0 28 8 55t25 52.5 49.5 41T432 1352q38 0 73.5-16.5t58-36 48-36T657 1247q68 0 68 105h92v-41q0-38-14-73.5t-52-64-94-28.5q-38 0-73.5 16t-58 35-48 35-45.5 16q-65 0-65-102h-93z"/><glyph unicode="ä" horiz-adv-x="1161" d="M102 291q0 128 104 207.5T500 578h336v114q0 41-4 71.5T810.5 832t-48 63-87 42T541 954q-283 0-283-264l-111 21q0 164 111 255t283 91q192 0 299.5-93T948 692V242q0-77 15-112.5t59-35.5q19 0 57 10V0q-36-10-80-10-81 0-122 49t-41 131q-48-64-88-96-110-90-267-94-178 0-278.5 85T102 291zm119 0q0-85 65.5-147T481 82q89 0 159.5 31T752 194t62.5 107.5T836 418v57H506q-86 0-146.5-18.5t-88.5-49-39-58.5-11-58zm51 997v154h154v-154H272zm392 0v154h153v-154H664z"/><glyph unicode="å" horiz-adv-x="1161" d="M102 291q0 128 104 207.5T500 578h336v114q0 41-4 71.5T810.5 832t-48 63-87 42T541 954q-283 0-283-264l-111 21q0 164 111 255t283 91q192 0 299.5-93T948 692V242q0-77 15-112.5t59-35.5q19 0 57 10V0q-36-10-80-10-81 0-122 49t-41 131q-48-64-88-96-110-90-267-94-178 0-278.5 85T102 291zm119 0q0-85 65.5-147T481 82q89 0 159.5 31T752 194t62.5 107.5T836 418v57H506q-86 0-146.5-18.5t-88.5-49-39-58.5-11-58zm146 1046q0 78 57 135.5t135 57.5q79 0 136-57.5t57-135.5q0-79-56.5-135.5T559 1145q-78 0-135 56.5T367 1337zm90 0q0-42 30-72t72-30q43 0 73 29.5t30 72.5q0 42-30.5 72.5T559 1440q-41 0-71.5-31t-30.5-72z"/><glyph unicode="æ" horiz-adv-x="1816" d="M92 291q0 129 100 208t289 79h336v114q0 41-4 71.5t-21.5 68-48 62-87 41.5T522 952q-282 0-282-262l-111 21q0 164 111 255t282 91q141 0 238-51.5T899 854q58 98 150.5 151.5T1262 1059q218 0 336.5-153t97.5-431H940q0-95 37.5-183.5t113-148T1262 84q122 0 212 68.5T1593 342l111-20q-6-44-26-89.5t-57-91.5-86.5-81.5T1414 2t-152-22q-123 0-221.5 63T889 215Q821 97 725 40.5T473-20q-179 0-280 85.5T92 291zm119 0q0-84 66-145.5T473 84q72 0 131 20.5t97.5 54T767 236t38.5 89.5T817 418v57H487q-86 0-145-18.5t-85.5-49-36-58T211 291zm729 287h637q0 376-315 376-78 0-141-32.5T1019.5 835t-59-120T940 578z"/><glyph unicode="ç" horiz-adv-x="1056" d="M92 518q0 244 124 391.5T553 1057q101 0 180-33.5T858.5 936 931 825.5 965 711l-111-21q-30 125-106 194.5T553 954q-156 0-249-121t-93-315 93-315T553 82q119 0 195 69t106 195l111-20q-8-58-34-114.5T858.5 101 733 13.5 553-20q-213 0-337 147T92 518zm248-784 63 14q4-46 44-76t92-30 85 29.5 33 74.5q0 54-38.5 86.5T539-135q-40 0-66-15l-45 41L580 29h59V0l-92-84q70 0 126-45t56-125q0-79-53-125.5T539-426t-139 44.5T340-266z"/><glyph unicode="è" horiz-adv-x="1101" d="M92 518q0 242 124 390.5T545 1057q219 0 341-153t99-429H223q0-95 39.5-184T380 142t175-60q123 0 217.5 69.5T897 342l109-20q-6-44-26.5-90t-59-91.5-89.5-81T708 2 555-20q-201 0-332 150T92 518zm131 62h635q0 374-313 374-79 0-142-32.5t-101.5-86-58.5-119T223 580zm74 862h158l135-297H487z"/><glyph unicode="é" horiz-adv-x="1101" d="M92 518q0 242 124 390.5T545 1057q219 0 341-153t99-429H223q0-95 39.5-184T380 142t175-60q123 0 217.5 69.5T897 342l109-20q-6-44-26.5-90t-59-91.5-89.5-81T708 2 555-20q-201 0-332 150T92 518zm131 62h635q0 374-313 374-79 0-142-32.5t-101.5-86-58.5-119T223 580zm275 565 135 297h158l-191-297H498z"/><glyph unicode="ê" horiz-adv-x="1101" d="M92 518q0 242 124 390.5T545 1057q219 0 341-153t99-429H223q0-95 39.5-184T380 142t175-60q123 0 217.5 69.5T897 342l109-20q-6-44-26.5-90t-59-91.5-89.5-81T708 2 555-20q-201 0-332 150T92 518zm131 62h635q0 374-313 374-79 0-142-32.5t-101.5-86-58.5-119T223 580zm121 565 135 297h158l135-297H670l-113 215-111-215H344z"/><glyph unicode="ë" horiz-adv-x="1101" d="M92 518q0 242 124 390.5T545 1057q219 0 341-153t99-429H223q0-95 39.5-184T380 142t175-60q123 0 217.5 69.5T897 342l109-20q-6-44-26.5-90t-59-91.5-89.5-81T708 2 555-20q-201 0-332 150T92 518zm131 62h635q0 374-313 374-79 0-142-32.5t-101.5-86-58.5-119T223 580zm56 708v154h153v-154H279zm391 0v154h153v-154H670z"/><glyph unicode="ì" horiz-adv-x="481" d="M-2 1442h158l135-297H188zM184 0v1036h113V0H184z"/><glyph unicode="í" horiz-adv-x="481" d="M184 0v1036h113V0H184zm4 1145 136 297h157l-190-297H188z"/><glyph unicode="î" horiz-adv-x="481" d="m27 1145 135 297h157l136-297H352l-112 215-111-215H27zM184 0v1036h113V0H184z"/><glyph unicode="ï" horiz-adv-x="481" d="M-31 1288v154h154v-154H-31zM178 0v1036h113V0H178zm182 1288v154h154v-154H360z"/><glyph unicode="ð" horiz-adv-x="1089" d="M92 518q0 245 120.5 392T545 1057q97 0 178-35-52 96-131 207l-242-88-37 96 215 78q-29 37-110 127l100 28q59-59 107-118l247 90 37-96-217-80q133-180 219-378t86-370q0-243-120.5-390.5T545-20q-212 0-332.5 147.5T92 518zm119 0q0-195 89-314.5T545 84q157 0 245.5 119T879 518t-88.5 315T545 952q-156 0-245-119.5T211 518z"/><glyph unicode="ñ" horiz-adv-x="1107" d="M154 0v1036h92l20-135q40 66 118 111t198 45q206-1 299.5-124.5T975 557V0H862v557q0 205-68 299.5T563 952q-157 0-227-98t-70-297V0H154zm131 1145v43q0 28 8 55t25 52.5 49 41 75 15.5q38 0 73.5-16.5t58.5-36 48.5-36T668 1247q67 0 67 105h92v-41q0-38-14-73.5t-51.5-64T668 1145q-38 0-73.5 16t-58.5 35-48.5 35-45.5 16q-65 0-65-102h-92z"/><glyph unicode="ò" horiz-adv-x="1089" d="M92 518q0 245 120.5 392T545 1057q211 0 331.5-148T997 518 876.5 127.5 545-20q-212 0-332.5 147.5T92 518zm119 0q0-196 89-316T545 82q157 0 245.5 120T879 518t-88.5 316T545 954q-156 0-245-120t-89-316zm90 924h158l135-297H492z"/><glyph unicode="ó" horiz-adv-x="1089" d="M92 518q0 245 120.5 392T545 1057q211 0 331.5-148T997 518 876.5 127.5 545-20q-212 0-332.5 147.5T92 518zm119 0q0-196 89-316T545 82q157 0 245.5 120T879 518t-88.5 316T545 954q-156 0-245-120t-89-316zm268 627 135 297h158l-190-297H479z"/><glyph unicode="ô" horiz-adv-x="1089" d="M92 518q0 245 120.5 392T545 1057q211 0 331.5-148T997 518 876.5 127.5 545-20q-212 0-332.5 147.5T92 518zm119 0q0-196 89-316T545 82q157 0 245.5 120T879 518t-88.5 316T545 954q-156 0-245-120t-89-316zm119 627 135 297h158l135-297H655l-112 215-111-215H330z"/><glyph unicode="õ" horiz-adv-x="1089" d="M92 518q0 245 120.5 392T545 1057q211 0 331.5-148T997 518 876.5 127.5 545-20q-212 0-332.5 147.5T92 518zm119 0q0-196 89-316T545 82q157 0 245.5 120T879 518t-88.5 316T545 954q-156 0-245-120t-89-316zm57 627v43q0 28 8 55t25 52.5 49.5 41T426 1352q38 0 73.5-16.5t58-36 48-36T651 1247q68 0 68 105h92v-41q0-38-14-73.5t-52-64-94-28.5q-38 0-73.5 16t-58 35-48 35-45.5 16q-66 0-66-102h-92z"/><glyph unicode="ö" horiz-adv-x="1089" d="M92 518q0 245 120.5 392T545 1057q211 0 331.5-148T997 518 876.5 127.5 545-20q-212 0-332.5 147.5T92 518zm119 0q0-196 89-316T545 82q157 0 245.5 120T879 518t-88.5 316T545 954q-156 0-245-120t-89-316zm57 770v154h154v-154H268zm391 0v154h154v-154H659z"/><glyph unicode="÷" horiz-adv-x="1200" d="M82 475v103h1036V475H82zM504 0v190h190V0H504zm0 846v190h190V846H504z"/><glyph unicode="ø" horiz-adv-x="1116" d="M92 518q0 245 120.5 392T545 1057q126 0 231-62l94 164 95-55-103-178q135-147 135-408 0-243-120.5-390.5T545-20q-113 0-205 45l-94-166-94 55 98 172Q92 232 92 518zm119 0q0-209 98-330l412 711q-74 53-176 53-156 0-245-119.5T211 518zm184-399q65-35 150-35 157 0 245.5 119T879 518q0 182-80 301z"/><glyph unicode="ù" horiz-adv-x="1087" d="M113 479v557h112V479q0-205 68-299.5T524 84q157 0 227 98t70 297v557h113V0h-92l-21 135Q711-20 506-20q-206 1-299.5 123.5T113 479zm184 963h158l135-297H487z"/><glyph unicode="ú" horiz-adv-x="1087" d="M113 479v557h112V479q0-205 68-299.5T524 84q157 0 227 98t70 297v557h113V0h-92l-21 135Q711-20 506-20q-206 1-299.5 123.5T113 479zm356 666 135 297h158l-191-297H469z"/><glyph unicode="û" horiz-adv-x="1087" d="M113 479v557h112V479q0-205 68-299.5T524 84q157 0 227 98t70 297v557h113V0h-92l-21 135Q711-20 506-20q-206 1-299.5 123.5T113 479zm204 666 136 297h157l135-297H643l-113 215-110-215H317z"/><glyph unicode="ü" horiz-adv-x="1087" d="M113 479v557h112V479q0-205 68-299.5T524 84q157 0 227 98t70 297v557h113V0h-92l-21 135Q711-20 506-20q-206 1-299.5 123.5T113 479zm139 809v154h154v-154H252zm391 0v154h154v-154H643z"/><glyph unicode="ý" horiz-adv-x="948" d="M41 1036h115l317-872 320 872h114L389-406H268L416 0zm356 109 135 297h158l-190-297H397z"/><glyph unicode="þ" horiz-adv-x="1191" d="M160-406v1848h114V872q13 20 27.5 38t46 47 66.5 49 88 35.5 112 15.5q203 0 319-148t116-391q0-239-121.5-388.5T614-20q-58 0-110.5 15t-88 35.5-67 48-47 47T274 164v-570H160zm114 924q0-198 82.5-316T596 84q158 0 250 119.5T938 518t-92 314.5T596 952q-157 0-239.5-118T274 518z"/><glyph unicode="ÿ" horiz-adv-x="948" d="M41 1036h115l317-872 320 872h114L389-406H268L416 0zm156 252v154h153v-154H197zm391 0v154h153v-154H588z"/><glyph unicode="Ā" horiz-adv-x="1263" d="m51 0 520 1442h123L1212 0h-114L975 340H289L166 0H51zm275 442h612l-305 842zm8 1108v105h596v-105H334z"/><glyph unicode="ā" horiz-adv-x="1161" d="M102 291q0 128 104 207.5T500 578h336v114q0 41-4 71.5T810.5 832t-48 63-87 42T541 954q-283 0-283-264l-111 21q0 164 111 255t283 91q192 0 299.5-93T948 692V242q0-77 15-112.5t59-35.5q19 0 57 10V0q-36-10-80-10-81 0-122 49t-41 131q-48-64-88-96-110-90-267-94-178 0-278.5 85T102 291zm119 0q0-85 65.5-147T481 82q89 0 159.5 31T752 194t62.5 107.5T836 418v57H506q-86 0-146.5-18.5t-88.5-49-39-58.5-11-58zm25 854v104h596v-104H246z"/><glyph unicode="Ă" horiz-adv-x="1263" d="m51 0 520 1442h123L1212 0h-114L975 340H289L166 0H51zm275 442h612l-305 842zm39 1405h90q0-85 48-145t128-60 128 60 48 145h90q0-134-77-215.5T631 1550t-189 81.5-77 215.5z"/><glyph unicode="ă" horiz-adv-x="1161" d="M102 291q0 128 104 207.5T500 578h336v114q0 41-4 71.5T810.5 832t-48 63-87 42T541 954q-283 0-283-264l-111 21q0 164 111 255t283 91q192 0 299.5-93T948 692V242q0-77 15-112.5t59-35.5q19 0 57 10V0q-36-10-80-10-81 0-122 49t-41 131q-48-64-88-96-110-90-267-94-178 0-278.5 85T102 291zm119 0q0-85 65.5-147T481 82q89 0 159.5 31T752 194t62.5 107.5T836 418v57H506q-86 0-146.5-18.5t-88.5-49-39-58.5-11-58zm92 1151h90q0-85 48.5-145t128.5-60 128 60 48 145h90q0-134-77-215.5T580 1145t-189.5 81.5T313 1442z"/><glyph unicode="Ą" horiz-adv-x="1263" d="m51 0 520 1442h123L1212 0h-114L975 340H289L166 0H51zm275 442h612l-305 842zm608-651q0 98 60 170t177 72V0q-59-5-96-47t-37-105q0-70 41.5-109.5T1186-301h26v-105h-45q-103 0-165.5 54.5T934-209z"/><glyph unicode="ą" horiz-adv-x="1161" d="M102 291q0 128 104 207.5T500 578h336v114q0 41-4 71.5T810.5 832t-48 63-87 42T541 954q-283 0-283-264l-111 21q0 164 111 255t283 91q192 0 299.5-93T948 692V242q0-77 15-112.5t59-35.5q19 0 57 10V0q-36-10-80-10-81 0-122 49t-41 131q-48-64-88-96-110-90-267-94-178 0-278.5 85T102 291zm119 0q0-85 65.5-147T481 82q89 0 159.5 31T752 194t62.5 107.5T836 418v57H506q-86 0-146.5-18.5t-88.5-49-39-58.5-11-58zm580-500q0 98 60 170t177 72V0q-59-5-96-47t-37-105q0-70 41.5-109.5T1053-301h26v-105h-45q-103 0-165.5 54.5T801-209z"/><glyph unicode="Ć" horiz-adv-x="1257" d="M92 721q0 218 66.5 384.5T356 1367t310 95q95 0 177.5-31t135-75 94-101 61.5-101 31-83l-110-31q-13 35-30.5 70t-51.5 82.5-74.5 82.5-102 60-130.5 25q-220 0-338.5-168T209 721t118.5-470T666 84q70 0 132.5 24t103 58 74.5 79 51 79 28 67l110-20q-11-39-31-83t-61.5-101-94-101-135-75T666-20q-179 0-310 95T158.5 336.5 92 721zm553 829 135 297h158l-190-297H645z"/><glyph unicode="ć" horiz-adv-x="1056" d="M92 518q0 244 124 391.5T553 1057q101 0 180-33.5T858.5 936 931 825.5 965 711l-111-21q-30 125-106 194.5T553 954q-156 0-249-121t-93-315 93-315T553 82q119 0 195 69t106 195l111-20q-8-58-34-114.5T858.5 101 733 13.5 553-20q-213 0-337 147T92 518zm432 627 135 297h158l-190-297H524z"/><glyph unicode="Ĉ" horiz-adv-x="1257" d="M92 721q0 218 66.5 384.5T356 1367t310 95q95 0 177.5-31t135-75 94-101 61.5-101 31-83l-110-31q-13 35-30.5 70t-51.5 82.5-74.5 82.5-102 60-130.5 25q-220 0-338.5-168T209 721t118.5-470T666 84q70 0 132.5 24t103 58 74.5 79 51 79 28 67l110-20q-11-39-31-83t-61.5-101-94-101-135-75T666-20q-179 0-310 95T158.5 336.5 92 721zm322 829 135 297h158l135-297H739l-112 215-111-215H414z"/><glyph unicode="ĉ" horiz-adv-x="1056" d="M92 518q0 244 124 391.5T553 1057q101 0 180-33.5T858.5 936 931 825.5 965 711l-111-21q-30 125-106 194.5T553 954q-156 0-249-121t-93-315 93-315T553 82q119 0 195 69t106 195l111-20q-8-58-34-114.5T858.5 101 733 13.5 553-20q-213 0-337 147T92 518zm221 627 136 297h157l135-297H639l-113 215-110-215H313z"/><glyph unicode="Ċ" horiz-adv-x="1257" d="M92 721q0 218 66.5 384.5T356 1367t310 95q95 0 177.5-31t135-75 94-101 61.5-101 31-83l-110-31q-13 35-30.5 70t-51.5 82.5-74.5 82.5-102 60-130.5 25q-220 0-338.5-168T209 721t118.5-470T666 84q70 0 132.5 24t103 58 74.5 79 51 79 28 67l110-20q-11-39-31-83t-61.5-101-94-101-135-75T666-20q-179 0-310 95T158.5 336.5 92 721zm459 973v153h154v-153H551z"/><glyph unicode="ċ" horiz-adv-x="1056" d="M92 518q0 244 124 391.5T553 1057q101 0 180-33.5T858.5 936 931 825.5 965 711l-111-21q-30 125-106 194.5T553 954q-156 0-249-121t-93-315 93-315T553 82q119 0 195 69t106 195l111-20q-8-58-34-114.5T858.5 101 733 13.5 553-20q-213 0-337 147T92 518zm359 770v154h153v-154H451z"/><glyph unicode="Č" horiz-adv-x="1257" d="M92 721q0 218 66.5 384.5T356 1367t310 95q95 0 177.5-31t135-75 94-101 61.5-101 31-83l-110-31q-13 35-30.5 70t-51.5 82.5-74.5 82.5-102 60-130.5 25q-220 0-338.5-168T209 721t118.5-470T666 84q70 0 132.5 24t103 58 74.5 79 51 79 28 67l110-20q-11-39-31-83t-61.5-101-94-101-135-75T666-20q-179 0-310 95T158.5 336.5 92 721zm322 1126h102l111-215 112 215h103l-135-297H549z"/><glyph unicode="č" horiz-adv-x="1056" d="M92 518q0 244 124 391.5T553 1057q101 0 180-33.5T858.5 936 931 825.5 965 711l-111-21q-30 125-106 194.5T553 954q-156 0-249-121t-93-315 93-315T553 82q119 0 195 69t106 195l111-20q-8-58-34-114.5T858.5 101 733 13.5 553-20q-213 0-337 147T92 518zm221 924h103l110-215 113 215h102l-135-297H449z"/><glyph unicode="Ď" horiz-adv-x="1325" d="M154 0v1442h471q140 0 248.5-52t178-147.5 105-227T1192 721q0-220-61.5-380t-190-250.5T625 0H154zm112 104h359q212 0 329 160.5T1071 721q0 292-117.5 455T625 1339H266V104zm101 1743h102l111-215 112 215h103l-136-297H502z"/><glyph unicode="ď" horiz-adv-x="1140" d="M92 518q0 242 120 390.5T535 1057q209 0 339-185v570h113V0h-92l-21 164q-16-25-39-50.5t-64.5-59-103-54T535-20q-193 0-318 150T92 518zm119 0q0-195 91.5-315.5T553 82q155 0 238 119t83 317-83 317-238 119q-159 0-250.5-120.5T211 518zm864 658 66 133h-66v133h133v-133l-80-133h-53z"/><glyph unicode="Đ" horiz-adv-x="1445" d="M37 657v103h242v682h471q140-1 249-55t178-152 104.5-231.5T1317 707q0-333-143.5-520T750 0H279v657H37zm354-553h359q213 0 329.5 154T1196 707q0 293-118 462.5T750 1339H391V760h242V657H391V104z"/><glyph unicode="đ" horiz-adv-x="1267" d="M92 518q0 242 120 390.5T535 1057q209 0 339-185v273H635v104h239v193h113v-193h244v-104H987V0h-92l-21 164q-16-25-39-50.5t-64.5-59-103-54T535-20q-193 0-318 150T92 518zm119 0q0-195 91.5-314.5T553 84q156 0 238.5 118T874 518t-82.5 316T553 952q-159 0-250.5-119.5T211 518z"/><glyph unicode="Ē" horiz-adv-x="1179" d="M154 0v1442h913v-103H266V795h721V692H266V104h801V0H154zm137 1550v105h596v-105H291z"/><glyph unicode="ē" horiz-adv-x="1101" d="M92 518q0 242 124 390.5T545 1057q219 0 341-153t99-429H223q0-95 39.5-184T380 142t175-60q123 0 217.5 69.5T897 342l109-20q-6-44-26.5-90t-59-91.5-89.5-81T708 2 555-20q-201 0-332 150T92 518zm131 62h635q0 374-313 374-79 0-142-32.5t-101.5-86-58.5-119T223 580zm29 565v104h596v-104H252z"/><glyph unicode="Ĕ" horiz-adv-x="1179" d="M154 0v1442h913v-103H266V795h721V692H266V104h801V0H154zm170 1847h90q0-85 48-145t128-60 128 60 48 145h90q0-134-77-215.5T590 1550t-189 81.5-77 215.5z"/><glyph unicode="ĕ" horiz-adv-x="1101" d="M92 518q0 242 124 390.5T545 1057q219 0 341-153t99-429H223q0-95 39.5-184T380 142t175-60q123 0 217.5 69.5T897 342l109-20q-6-44-26.5-90t-59-91.5-89.5-81T708 2 555-20q-201 0-332 150T92 518zm131 62h635q0 374-313 374-79 0-142-32.5t-101.5-86-58.5-119T223 580zm72 862h90q0-85 48-145t128-60 128 60 48 145h90q0-134-77-215.5T561 1145t-189 81.5-77 215.5z"/><glyph unicode="Ė" horiz-adv-x="1179" d="M154 0v1442h913v-103H266V795h721V692H266V104h801V0H154zm399 1550v154h154v-154H553z"/><glyph unicode="ė" horiz-adv-x="1101" d="M92 518q0 242 124 390.5T545 1057q219 0 341-153t99-429H223q0-95 39.5-184T380 142t175-60q123 0 217.5 69.5T897 342l109-20q-6-44-26.5-90t-59-91.5-89.5-81T708 2 555-20q-201 0-332 150T92 518zm131 62h635q0 374-313 374-79 0-142-32.5t-101.5-86-58.5-119T223 580zm250 708v154h154v-154H473z"/><glyph unicode="Ę" horiz-adv-x="1179" d="M154 0v1442h913v-103H266V795h721V692H266V104h801V0H154zm634-209q0 98 60.5 170T1026 33V0q-59-5-96-47t-37-105q0-70 41-109.5t106-39.5h27v-105h-45q-103 0-166 54.5T788-209z"/><glyph unicode="ę" horiz-adv-x="1101" d="M92 518q0 242 124 390.5T545 1057q219 0 341-153t99-429H223q0-95 39.5-184T380 142t175-60q123 0 217.5 69.5T897 342l109-20q-6-44-26.5-90t-59-91.5-89.5-81T708 2 555-20q-201 0-332 150T92 518zm131 62h635q0 374-313 374-79 0-142-32.5t-101.5-86-58.5-119T223 580zm246-789q0 98 60.5 170T707 33V0q-59-5-96.5-47T573-152q0-70 41.5-109.5T721-301h27v-105h-46q-103 0-165.5 54.5T469-209z"/><glyph unicode="Ě" horiz-adv-x="1179" d="M154 0v1442h913v-103H266V795h721V692H266V104h801V0H154zm221 1847h102l111-215 112 215h103l-135-297H510z"/><glyph unicode="ě" horiz-adv-x="1101" d="M92 518q0 242 124 390.5T545 1057q219 0 341-153t99-429H223q0-95 39.5-184T380 142t175-60q123 0 217.5 69.5T897 342l109-20q-6-44-26.5-90t-59-91.5-89.5-81T708 2 555-20q-201 0-332 150T92 518zm131 62h635q0 374-313 374-79 0-142-32.5t-101.5-86-58.5-119T223 580zm113 862h102l111-215 113 215h102l-135-297H471z"/><glyph unicode="Ĝ" horiz-adv-x="1374" d="M92 721q0 218 67 384.5T357.5 1367t310.5 95q411 0 514-391l-103-20q-55 160-158.5 233.5T668 1358q-221 0-338-167T213 721t117-470T668 84q89 0 162.5 28T955 187t86 110.5 51 133.5 16 144v95H668v102h553V0h-93l-24 223q-35-90-155.5-166.5T668-20q-187 0-318.5 95.5T155 336 92 721zm381 829 135 297h158l135-297H799l-113 215-111-215H473z"/><glyph unicode="ĝ" horiz-adv-x="1142" d="M92 518q0 240 122 389.5T535 1057q125 0 215.5-61.5T877 858l20 178h92V33q0-229-114-344T555-426q-167 0-270.5 74T150-154l110 21q17-73 95.5-132T555-324q74 0 130.5 19.5t91.5 52 57.5 80 32 96.5T877 33v135Q842 95 750 37.5T535-20q-193 0-318 150T92 518zm119 0q0-195 92-315.5T553 82q157 0 240.5 119T877 518t-83.5 317T553 954q-158 0-250-120.5T211 518zm145 627 136 297h157l135-297H682l-113 215-110-215H356z"/><glyph unicode="Ğ" horiz-adv-x="1374" d="M92 721q0 218 67 384.5T357.5 1367t310.5 95q411 0 514-391l-103-20q-55 160-158.5 233.5T668 1358q-221 0-338-167T213 721t117-470T668 84q89 0 162.5 28T955 187t86 110.5 51 133.5 16 144v95H668v102h553V0h-93l-24 223q-35-90-155.5-166.5T668-20q-187 0-318.5 95.5T155 336 92 721zm328 1126h90q0-85 48-145t128-60 128 60 48 145h90q0-134-77-215.5T686 1550t-189 81.5-77 215.5z"/><glyph unicode="ğ" horiz-adv-x="1142" d="M92 518q0 240 122 389.5T535 1057q125 0 215.5-61.5T877 858l20 178h92V33q0-229-114-344T555-426q-167 0-270.5 74T150-154l110 21q17-73 95.5-132T555-324q74 0 130.5 19.5t91.5 52 57.5 80 32 96.5T877 33v135Q842 95 750 37.5T535-20q-193 0-318 150T92 518zm119 0q0-195 92-315.5T553 82q157 0 240.5 119T877 518t-83.5 317T553 954q-158 0-250-120.5T211 518zm94 924h90q0-85 48-145t128-60 128.5 60 48.5 145h90q0-134-77.5-215.5T571 1145t-189 81.5-77 215.5z"/><glyph unicode="Ġ" horiz-adv-x="1374" d="M92 721q0 218 67 384.5T357.5 1367t310.5 95q411 0 514-391l-103-20q-55 160-158.5 233.5T668 1358q-221 0-338-167T213 721t117-470T668 84q89 0 162.5 28T955 187t86 110.5 51 133.5 16 144v95H668v102h553V0h-93l-24 223q-35-90-155.5-166.5T668-20q-187 0-318.5 95.5T155 336 92 721zm518 973v153h154v-153H610z"/><glyph unicode="ġ" horiz-adv-x="1142" d="M92 518q0 240 122 389.5T535 1057q125 0 215.5-61.5T877 858l20 178h92V33q0-229-114-344T555-426q-167 0-270.5 74T150-154l110 21q17-73 95.5-132T555-324q74 0 130.5 19.5t91.5 52 57.5 80 32 96.5T877 33v135Q842 95 750 37.5T535-20q-193 0-318 150T92 518zm119 0q0-195 92-315.5T553 82q157 0 240.5 119T877 518t-83.5 317T553 954q-158 0-250-120.5T211 518zm283 770v154h153v-154H494z"/><glyph unicode="Ģ" horiz-adv-x="1374" d="M92 721q0 218 67 384.5T357.5 1367t310.5 95q411 0 514-391l-103-20q-55 160-158.5 233.5T668 1358q-221 0-338-167T213 721t117-470T668 84q89 0 162.5 28T955 187t86 110.5 51 133.5 16 144v95H668v102h553V0h-93l-24 223q-35-90-155.5-166.5T668-20q-187 0-318.5 95.5T155 336 92 721zm510-860h133v-133l-80-134h-53l66 134h-66v133z"/><glyph unicode="ģ" horiz-adv-x="1142" d="M92 518q0 240 122 389.5T535 1057q125 0 215.5-61.5T877 858l20 178h92V33q0-229-114-344T555-426q-167 0-270.5 74T150-154l110 21q17-73 95.5-132T555-324q74 0 130.5 19.5t91.5 52 57.5 80 32 96.5T877 33v135Q842 95 750 37.5T535-20q-193 0-318 150T92 518zm119 0q0-195 92-315.5T553 82q157 0 240.5 119T877 518t-83.5 317T553 954q-158 0-250-120.5T211 518zm256 658v133l80 133h53l-65-133h65v-133H467z"/><glyph unicode="Ĥ" horiz-adv-x="1288" d="M154 0v1442h112V795h756v647h113V0h-113v692H266V0H154zm276 1550 135 297h158l135-297H756l-113 215-111-215H430z"/><glyph unicode="ĥ" horiz-adv-x="1107" d="m-4 1550 135 297h158l135-297H322l-113 215-111-215H-4zM154 0v1442h112V891q25 34 49 58.5t62 51.5 90 41.5 115 14.5q206-1 299.5-124.5T975 557V0H862v557q0 205-68 300.5T563 954q-157 0-227-99t-70-298V0H154z"/><glyph unicode="Ħ" horiz-adv-x="1288" d="M41 1145v102h113v195h112v-195h756v195h113v-195h112v-102h-112V0h-113v692H266V0H154v1145H41zm225-350h756v350H266V795z"/><glyph unicode="ħ" horiz-adv-x="1107" d="M41 1145v102h113v195h112v-195h371v-102H266V891q25 34 49 58.5t62 51.5 90 41.5 115 14.5q206-1 299.5-124.5T975 557V0H862v557q0 205-68 300.5T563 954q-157 0-227-99t-70-298V0H154v1145H41z"/><glyph unicode="Ĩ" horiz-adv-x="417" d="M-61 1550v43q0 28 8 55t25 52.5 49 41 75 15.5q38 0 73.5-16.5T228 1705t48.5-35.5T322 1653q67 0 67 104h92v-41q0-38-14-73.5t-51.5-64T322 1550q-38 0-73.5 16t-58.5 35.5-48.5 35.5-45.5 16q-65 0-65-103h-92zM154 0v1442h112V0H154z"/><glyph unicode="ĩ" horiz-adv-x="440" d="M-51 1145v43q0 28 8 55t25 52.5 49 41 75 15.5q38 0 73.5-16.5t58.5-36 48.5-36T332 1247q67 0 67 105h93v-41q0-38-14-73.5t-52-64-94-28.5q-38 0-73.5 16t-58.5 35-48.5 35-45.5 16q-65 0-65-102h-92zM164 0v1036h112V0H164z"/><glyph unicode="Ī" horiz-adv-x="417" d="M-88 1550v105h596v-105H-88zM154 0v1442h112V0H154z"/><glyph unicode="ī" horiz-adv-x="440" d="M-78 1145v104h596v-104H-78zM164 0v1036h112V0H164z"/><glyph unicode="Į" horiz-adv-x="417" d="M-14-209q0 98 60 170t177 72V0q-59-5-96-47T90-152q0-70 41.5-109.5T238-301h26v-105h-45q-103 0-165.5 54.5T-14-209zM154 0v1442h112V0H154z"/><glyph unicode="į" horiz-adv-x="481" d="M18-209q0 98 60.5 170T256 33V0q-59-5-96-47t-37-105q0-70 41-109.5T270-301h27v-105h-45q-103 0-166 54.5T18-209zm146 1497v154h153v-154H164zM184 0v1036h113V0H184z"/><glyph unicode="İ" horiz-adv-x="417" d="M133 1550v154h154v-154H133zM154 0v1442h112V0H154z"/><glyph unicode="ı" horiz-adv-x="440" d="M164 0v1036h112V0H164z"/><glyph unicode="Ĳ" horiz-adv-x="1306" d="M154 0v1442h112V0H154zm305 371 112 20q0-52 3.5-88.5t16.5-81 36.5-72 68-46.5T801 84q64 0 109.5 19t70 46.5 38.5 71 17.5 80 3.5 86.5v1055h113V387q0-74-7.5-130T1115 146.5 1054 57 952 1 801-20q-98 0-167.5 30.5t-106 87T475 220t-16 151z"/><glyph unicode="ĳ" horiz-adv-x="944" d="M164 1288v154h153v-154H164zM184 0v1036h113V0H184zm236-301h100q64 0 98.5 39.5T653-152v1188h113V-152q0-129-61-191.5T522-406H420v105zm213 1589v154h153v-154H633z"/><glyph unicode="Ĵ" horiz-adv-x="888" d="m41 371 113 20q0-52 3-88.5t16.5-81 37-72T278 103t105-19q64 0 109.5 19t70.5 46.5 39 71 17.5 80T623 387v1055h112V387q0-74-7.5-130T697 146.5 636 57 534 1 383-20q-98 0-167.5 30.5t-106 87T57 220 41 371zm428 1179 135 297h158l135-297H795l-113 215-111-215H469z"/><glyph unicode="ĵ" horiz-adv-x="462" d="M-61-301H39q64 0 98.5 39.5T172-152v1188h113V-152q0-129-61-191.5T41-406H-61v105zm79 1446 136 297h157l135-297H344l-113 215-110-215H18z"/><glyph unicode="Ķ" horiz-adv-x="1228" d="M154 0v1442h112V729l752 713h170L530 819 1188 0h-141L451 741 266 567V0H154zm385-139h133v-133l-80-134h-53l65 134h-65v133z"/><glyph unicode="ķ" horiz-adv-x="1067" d="M154 0v1442h112V526l531 510h159L528 627 1030 0H889L449 549 266 375V0H154zm288-139h133v-133l-79-134h-54l66 134h-66v133z"/><glyph unicode="ĸ" horiz-adv-x="1067" d="M154 0v1036h112V526l531 510h159L528 627 1030 0H891L449 549 266 375V0H154z"/><glyph unicode="Ĺ" horiz-adv-x="997" d="M154 0v1442h112V104h690V0H154zm0 1550 135 297h157l-190-297H154z"/><glyph unicode="ĺ" horiz-adv-x="419" d="m152 1550 135 297h157l-190-297H152zM154 0v1442h112V0H154z"/><glyph unicode="Ļ" horiz-adv-x="997" d="M154 0v1442h112V104h690V0H154zm309-139h133v-133l-80-134h-53l65 134h-65v133z"/><glyph unicode="ļ" horiz-adv-x="419" d="M143-139h133v-133l-79-134h-54l66 134h-66v133zM154 0v1442h112V0H154z"/><glyph unicode="Ľ" horiz-adv-x="997" d="M154 0v1442h112V104h690V0H154zm204 1176 66 133h-66v133h134v-133l-80-133h-54z"/><glyph unicode="ľ" horiz-adv-x="419" d="M154 0v1442h112V0H154zm202 1176 66 133h-66v133h133v-133l-79-133h-54z"/><glyph unicode="Ŀ" horiz-adv-x="997" d="M154 0v1442h112V104h690V0H154zm249 647v191h191V647H403z"/><glyph unicode="ŀ" horiz-adv-x="419" d="M154 0v1442h112V0H154zm172 647v191h190V647H326z"/><glyph unicode="Ł" horiz-adv-x="1001" d="M37 438v156l121 121v727h110V825l211 211V881L268 670V104h693V0H158v559z"/><glyph unicode="ł" horiz-adv-x="516" d="M37 438v156l164 164v684h112V870l166 166V881L313 715V0H201v602z"/><glyph unicode="Ń" d="M154 0v1442h112l781-1235v1235h112V0h-112L266 1235V0H154zm438 1550 135 297h158l-191-297H592z"/><glyph unicode="ń" horiz-adv-x="1107" d="M154 0v1036h92l20-135q40 66 118 111t198 45q206-1 299.5-124.5T975 557V0H862v557q0 205-68 299.5T563 952q-157 0-227-98t-70-297V0H154zm376 1145 136 297h157l-190-297H530z"/><glyph unicode="Ņ" d="M154 0v1442h112l781-1235v1235h112V0h-112L266 1235V0H154zm436-139h133v-133l-80-134h-53l65 134h-65v133z"/><glyph unicode="ņ" horiz-adv-x="1107" d="M154 0v1036h92l20-135q40 66 118 111t198 45q206-1 299.5-124.5T975 557V0H862v557q0 205-68 299.5T563 952q-157 0-227-98t-70-297V0H154zm333-139h134v-133l-80-134h-54l66 134h-66v133z"/><glyph unicode="Ň" d="M154 0v1442h112l781-1235v1235h112V0h-112L266 1235V0H154zm288 1847h103l110-215 113 215h102l-135-297H578z"/><glyph unicode="ň" horiz-adv-x="1107" d="M154 0v1036h92l20-135q40 66 118 111t198 45q206-1 299.5-124.5T975 557V0H862v557q0 205-68 299.5T563 952q-157 0-227-98t-70-297V0H154zm186 1442h102l111-215 113 215h102l-135-297H475z"/><glyph unicode="ŉ" horiz-adv-x="1107" d="m20 1176 66 133H20v133h134v-133l-80-133H20zM154 0v1036h92l20-135q40 66 118 111t198 45q206-1 299.5-124.5T975 557V0H862v557q0 205-68 299.5T563 952q-157 0-227-98t-70-297V0H154z"/><glyph unicode="Ō" horiz-adv-x="1333" d="M92 721q0 220 63.5 385t195 260.5T668 1462q140 0 250-54.5t180-153.5 106.5-234 36.5-299-36.5-299T1098 188 918 34.5 668-20q-186 0-317.5 95.5T155.5 336 92 721zm123 0q0-304 116.5-471.5T668 82q219 0 334.5 167.5T1118 721t-115.5 471.5T668 1360q-220 0-336.5-167.5T215 721zm154 829v105h596v-105H369z"/><glyph unicode="ō" horiz-adv-x="1089" d="M92 518q0 245 120.5 392T545 1057q211 0 331.5-148T997 518 876.5 127.5 545-20q-212 0-332.5 147.5T92 518zm119 0q0-196 89-316T545 82q157 0 245.5 120T879 518t-88.5 316T545 954q-156 0-245-120t-89-316zm35 627v104h596v-104H246z"/><glyph unicode="Ŏ" horiz-adv-x="1333" d="M92 721q0 220 63.5 385t195 260.5T668 1462q140 0 250-54.5t180-153.5 106.5-234 36.5-299-36.5-299T1098 188 918 34.5 668-20q-186 0-317.5 95.5T155.5 336 92 721zm123 0q0-304 116.5-471.5T668 82q219 0 334.5 167.5T1118 721t-115.5 471.5T668 1360q-220 0-336.5-167.5T215 721zm184 1126h90q0-85 48.5-145t128.5-60 128 60 48 145h90q0-134-77-215.5T666 1550t-189.5 81.5T399 1847z"/><glyph unicode="ŏ" horiz-adv-x="1089" d="M92 518q0 245 120.5 392T545 1057q211 0 331.5-148T997 518 876.5 127.5 545-20q-212 0-332.5 147.5T92 518zm119 0q0-196 89-316T545 82q157 0 245.5 120T879 518t-88.5 316T545 954q-156 0-245-120t-89-316zm68 924h90q0-85 48-145t128-60 128 60 48 145h90q0-134-77-215.5T545 1145t-189 81.5-77 215.5z"/><glyph unicode="Ő" horiz-adv-x="1333" d="M92 721q0 220 63.5 385t195 260.5T668 1462q140 0 250-54.5t180-153.5 106.5-234 36.5-299-36.5-299T1098 188 918 34.5 668-20q-186 0-317.5 95.5T155.5 336 92 721zm123 0q0-304 116.5-471.5T668 82q219 0 334.5 167.5T1118 721t-115.5 471.5T668 1360q-220 0-336.5-167.5T215 721zm160 829 55 297h164l-55-297H375zm405 0 56 297h163l-55-297H780z"/><glyph unicode="ő" horiz-adv-x="1089" d="M92 518q0 245 120.5 392T545 1057q211 0 331.5-148T997 518 876.5 127.5 545-20q-212 0-332.5 147.5T92 518zm119 0q0-196 89-316T545 82q157 0 245.5 120T879 518t-88.5 316T545 954q-156 0-245-120t-89-316zm41 627 55 297h164l-55-297H252zm405 0 56 297h164l-56-297H657z"/><glyph unicode="Œ" horiz-adv-x="2101" d="M133 721q0 219 63 384.5t189.5 261T688 1462q157 0 261-67.5t173-198.5v246h867v-105h-756V795h676V690h-676V104h756V0h-867v246q-69-131-173-198.5T688-20q-176 0-302.5 95.5T196 336.5 133 721zm121 0q0-302 114-469.5T688 84q205 0 319.5 168T1122 721t-114.5 469T688 1358q-206 0-320-167.5T254 721z"/><glyph unicode="œ" horiz-adv-x="1894" d="M106 518q0 245 120.5 392T559 1057q139 0 241.5-67T956 801q55 122 155.5 190t236.5 68q218 0 336.5-153.5T1780 475h-754q0-72 21.5-140t62.5-125 110.5-91.5T1378 84q120 0 200.5 67T1690 342l108-20q-6-45-23-90t-51.5-91-80.5-81.5T1528 2t-150-22q-147 0-256 68T958 238Q903 116 801 48T559-20q-212 0-332.5 147.5T106 518zm111 0q0-194 92.5-314T559 84q158 0 250 119.5T901 518t-92 314.5T559 952q-157 0-249.5-120T217 518zm809 62h635q0 374-313 374-79 0-142-32.5t-101.5-86-58.5-119-20-136.5z"/><glyph unicode="Ŕ" horiz-adv-x="1200" d="M154 0v1442h548q172 0 274.5-118t102.5-300q0-186-108-302T668 606L1153 0h-141L526 606H266V0H154zm112 711h436q116 0 190.5 95.5T967 1024t-74.5 218.5T702 1339H266V711zm187 839 135 297h157l-190-297H453z"/><glyph unicode="ŕ" horiz-adv-x="684" d="M154 0v1036h92l20-135q39 54 113.5 105t165.5 51q48 0 78-10V932h-58q-159 0-229-90.5T266 557V0H154zm143 1145 135 297h158l-191-297H297z"/><glyph unicode="Ŗ" horiz-adv-x="1200" d="M154 0v1442h548q172 0 274.5-118t102.5-300q0-186-108-302T668 606L1153 0h-141L526 606H266V0H154zm112 711h436q116 0 190.5 95.5T967 1024t-74.5 218.5T702 1339H266V711zm266-850h134v-133l-80-134h-54l66 134h-66v133z"/><glyph unicode="ŗ" horiz-adv-x="684" d="M143-139h133v-133l-79-134h-54l66 134h-66v133zM154 0v1036h92l20-135q39 54 113.5 105t165.5 51q48 0 78-10V932h-58q-159 0-229-90.5T266 557V0H154z"/><glyph unicode="Ř" horiz-adv-x="1200" d="M154 0v1442h548q172 0 274.5-118t102.5-300q0-186-108-302T668 606L1153 0h-141L526 606H266V0H154zm112 711h436q116 0 190.5 95.5T967 1024t-74.5 218.5T702 1339H266V711zm119 1136h102l111-215 113 215h102l-135-297H520z"/><glyph unicode="ř" horiz-adv-x="684" d="M127 1442h102l111-215 113 215h102l-135-297H262zM154 0v1036h92l20-135q39 54 113.5 105t165.5 51q48 0 78-10V932h-58q-159 0-229-90.5T266 557V0H154z"/><glyph unicode="Ś" horiz-adv-x="1230" d="m92 432 111 21q0-47 14-96t47.5-98.5 81-88 122-62.5T631 84q73 0 141.5 19t126 55.5 92.5 97 35 135.5q0 68-23.5 120t-59 83-91 52T747 676t-116 14q-498 40-498 379 0 81 29 148t76.5 111.5T349 1404t129 44.5 134 13.5q85 0 164-24t144.5-70 108.5-121 50-170l-110-20q-13 147-112 224t-245 77q-68 0-131.5-17t-118-50.5-87.5-91-33-130.5q0-40 10.5-74.5T290 926t69.5-59T471 822.5 631 795q56-5 98-11t98.5-19 97-31 83.5-48.5 69.5-70 44-97T1139 391q0-124-70-219T884 28.5 631-20q-134 0-241 41.5T220 130t-95.5 144.5T92 432zm479 1118 136 297h157l-190-297H571z"/><glyph unicode="ś" horiz-adv-x="1003" d="m92 326 111 20q0-31 6-61.5t25.5-69 51-66.5 88.5-47.5T506 82q34 0 66.5 3.5T649 102t75.5 34.5 54 62T801 293q0 45-19 78.5T737 424t-70.5 32.5T590 475t-82 10q-37 4-57 6.5t-57 9-59.5 13-54 18-51.5 26-42.5 35.5-34.5 46-20.5 58.5T123 770q0 123 104 205t258 82q176 0 290-90t114-256l-115-21q0 129-77 196.5T485 954q-112 0-180.5-54T236 770q0-91 65.5-129T506 590q75-8 129-18t109-31.5 89.5-52.5 56-80T911 293q0-144-110-228.5T506-20q-109 0-192 31T184.5 93.5 115 204 92 326zm365 819 135 297h158l-191-297H457z"/><glyph unicode="Ŝ" horiz-adv-x="1230" d="m92 432 111 21q0-47 14-96t47.5-98.5 81-88 122-62.5T631 84q73 0 141.5 19t126 55.5 92.5 97 35 135.5q0 68-23.5 120t-59 83-91 52T747 676t-116 14q-498 40-498 379 0 81 29 148t76.5 111.5T349 1404t129 44.5 134 13.5q85 0 164-24t144.5-70 108.5-121 50-170l-110-20q-13 147-112 224t-245 77q-68 0-131.5-17t-118-50.5-87.5-91-33-130.5q0-40 10.5-74.5T290 926t69.5-59T471 822.5 631 795q56-5 98-11t98.5-19 97-31 83.5-48.5 69.5-70 44-97T1139 391q0-124-70-219T884 28.5 631-20q-134 0-241 41.5T220 130t-95.5 144.5T92 432zm309 1118 136 297h157l135-297H727l-113 215-110-215H401z"/><glyph unicode="ŝ" horiz-adv-x="1003" d="m92 326 111 20q0-31 6-61.5t25.5-69 51-66.5 88.5-47.5T506 82q34 0 66.5 3.5T649 102t75.5 34.5 54 62T801 293q0 45-19 78.5T737 424t-70.5 32.5T590 475t-82 10q-37 4-57 6.5t-57 9-59.5 13-54 18-51.5 26-42.5 35.5-34.5 46-20.5 58.5T123 770q0 123 104 205t258 82q176 0 290-90t114-256l-115-21q0 129-77 196.5T485 954q-112 0-180.5-54T236 770q0-91 65.5-129T506 590q75-8 129-18t109-31.5 89.5-52.5 56-80T911 293q0-144-110-228.5T506-20q-109 0-192 31T184.5 93.5 115 204 92 326zm195 819 135 297h158l135-297H612l-112 215-111-215H287z"/><glyph unicode="Ş" horiz-adv-x="1230" d="m92 432 111 21q0-47 14-96t47.5-98.5 81-88 122-62.5T631 84q73 0 141.5 19t126 55.5 92.5 97 35 135.5q0 68-23.5 120t-59 83-91 52T747 676t-116 14q-498 40-498 379 0 81 29 148t76.5 111.5T349 1404t129 44.5 134 13.5q85 0 164-24t144.5-70 108.5-121 50-170l-110-20q-13 147-112 224t-245 77q-68 0-131.5-17t-118-50.5-87.5-91-33-130.5q0-40 10.5-74.5T290 926t69.5-59T471 822.5 631 795q56-5 98-11t98.5-19 97-31 83.5-48.5 69.5-70 44-97T1139 391q0-124-70-219T884 28.5 631-20q-134 0-241 41.5T220 130t-95.5 144.5T92 432zm330-698 63 14q4-46 44-76t92-30 85 29.5 33 74.5q0 54-38.5 86.5T621-135q-40 0-66-15l-45 41L662 29h59V0l-92-84q70 0 126-45t56-125q0-79-53-125.5T621-426t-139 44.5T422-266z"/><glyph unicode="ş" horiz-adv-x="1003" d="m92 326 111 20q0-31 6-61.5t25.5-69 51-66.5 88.5-47.5T506 82q34 0 66.5 3.5T649 102t75.5 34.5 54 62T801 293q0 45-19 78.5T737 424t-70.5 32.5T590 475t-82 10q-37 4-57 6.5t-57 9-59.5 13-54 18-51.5 26-42.5 35.5-34.5 46-20.5 58.5T123 770q0 123 104 205t258 82q176 0 290-90t114-256l-115-21q0 129-77 196.5T485 954q-112 0-180.5-54T236 770q0-91 65.5-129T506 590q75-8 129-18t109-31.5 89.5-52.5 56-80T911 293q0-144-110-228.5T506-20q-109 0-192 31T184.5 93.5 115 204 92 326zm201-592 63 14q4-46 44-76t92-30 85 29.5 33 74.5q0 54-38.5 86.5T492-135q-40 0-66-15l-45 41L532 29h60V0l-92-84q70 0 126-45t56-125q0-79-53-125.5T492-426t-139 44.5T293-266z"/><glyph unicode="Š" horiz-adv-x="1230" d="m92 432 111 21q0-47 14-96t47.5-98.5 81-88 122-62.5T631 84q73 0 141.5 19t126 55.5 92.5 97 35 135.5q0 68-23.5 120t-59 83-91 52T747 676t-116 14q-498 40-498 379 0 81 29 148t76.5 111.5T349 1404t129 44.5 134 13.5q85 0 164-24t144.5-70 108.5-121 50-170l-110-20q-13 147-112 224t-245 77q-68 0-131.5-17t-118-50.5-87.5-91-33-130.5q0-40 10.5-74.5T290 926t69.5-59T471 822.5 631 795q56-5 98-11t98.5-19 97-31 83.5-48.5 69.5-70 44-97T1139 391q0-124-70-219T884 28.5 631-20q-134 0-241 41.5T220 130t-95.5 144.5T92 432zm307 1415h103l110-215 113 215h102l-135-297H535z"/><glyph unicode="š" horiz-adv-x="1003" d="m92 326 111 20q0-31 6-61.5t25.5-69 51-66.5 88.5-47.5T506 82q34 0 66.5 3.5T649 102t75.5 34.5 54 62T801 293q0 45-19 78.5T737 424t-70.5 32.5T590 475t-82 10q-37 4-57 6.5t-57 9-59.5 13-54 18-51.5 26-42.5 35.5-34.5 46-20.5 58.5T123 770q0 123 104 205t258 82q176 0 290-90t114-256l-115-21q0 129-77 196.5T485 954q-112 0-180.5-54T236 770q0-91 65.5-129T506 590q75-8 129-18t109-31.5 89.5-52.5 56-80T911 293q0-144-110-228.5T506-20q-109 0-192 31T184.5 93.5 115 204 92 326zm193 1116h102l111-215 112 215h103l-135-297H420z"/><glyph unicode="Ţ" horiz-adv-x="1015" d="M63 1339v103h891v-103H565V0H453v1339H63zM266-266l64 14q4-46 43.5-76t91.5-30 85.5 29.5T584-254q0 54-39 86.5T465-135q-40 0-66-15l-45 41L506 29h59V0l-92-84q70 0 126-45t56-125q0-79-53-125.5T465-426t-139 44.5T266-266z"/><glyph unicode="ţ" horiz-adv-x="704" d="M72 934v102h194v318h113v-318h233V934H379V254q0-84 32.5-117T512 104h100V0H510Q379 0 322.5 60.5T266 254v680H72zM225-266l64 14q4-46 43.5-76t91.5-30 85.5 29.5T543-254q0 54-39 86.5T424-135q-40 0-66-15l-45 41L465 29h59V0l-92-84q70 0 126-45t56-125q0-79-53-125.5T424-426t-139 44.5T225-266z"/><glyph unicode="Ť" horiz-adv-x="1015" d="M63 1339v103h891v-103H565V0H453v1339H63zm230 508h102l111-215 112 215h103l-135-297H428z"/><glyph unicode="ť" horiz-adv-x="704" d="M72 934v102h194v318h113v-318h233V934H379V254q0-84 32.5-117T512 104h100V0H510Q379 0 322.5 60.5T266 254v680H72zm477 242 65 133h-65v133h133v-133l-80-133h-53z"/><glyph unicode="Ŧ" horiz-adv-x="1015" d="M61 1339v103h893v-103H565V795h240V692H565V0H455v692H209v103h246v544H61z"/><glyph unicode="ŧ" horiz-adv-x="704" d="M72 932v104h194v318h113v-318h233V932H379V721h192V616H379V254q0-84 32.5-117T512 104h100V0H510Q379 0 322.5 60.5T266 254v362H92v105h174v211H72z"/><glyph unicode="Ũ" d="M154 465v977h112V465q0-166 115.5-273.5T657 84t275 107.5T1047 465v977h112V465q0-221-141-353T657-20q-144 0-258 58T219.5 207.5 154 465zm231 1085v43q0 28 8 55t25 52.5 49.5 41T543 1757q38 0 73.5-16.5t58-35.5 48-35.5T768 1653q68 0 68 104h92v-41q0-38-14-73.5t-52-64-94-28.5q-48 0-91 26t-76.5 51.5T543 1653q-66 0-66-103h-92z"/><glyph unicode="ũ" horiz-adv-x="1087" d="M113 479v557h112V479q0-205 68-299.5T524 84q157 0 227 98t70 297v557h113V0h-92l-21 135Q711-20 506-20q-206 1-299.5 123.5T113 479zm159 666v43q0 28 8 55t25 52.5 49.5 41T430 1352q38 0 73.5-16.5t58-36 48-36T655 1247q68 0 68 105h92v-41q0-38-14-73.5t-52-64-94-28.5q-38 0-73.5 16t-58 35-48 35-45.5 16q-65 0-65-102h-93z"/><glyph unicode="Ū" d="M154 465v977h112V465q0-166 115.5-273.5T657 84t275 107.5T1047 465v977h112V465q0-221-141-353T657-20q-144 0-258 58T219.5 207.5 154 465zm204 1085v105h596v-105H358z"/><glyph unicode="ū" horiz-adv-x="1087" d="M113 479v557h112V479q0-205 68-299.5T524 84q157 0 227 98t70 297v557h113V0h-92l-21 135Q711-20 506-20q-206 1-299.5 123.5T113 479zm133 666v104h596v-104H246z"/><glyph unicode="Ŭ" d="M154 465v977h112V465q0-166 115.5-273.5T657 84t275 107.5T1047 465v977h112V465q0-221-141-353T657-20q-144 0-258 58T219.5 207.5 154 465zm235 1382h90q0-85 48-145t128-60 128 60 48 145h91q0-134-77.5-215.5T655 1550t-189 81.5-77 215.5z"/><glyph unicode="ŭ" horiz-adv-x="1087" d="M113 479v557h112V479q0-205 68-299.5T524 84q157 0 227 98t70 297v557h113V0h-92l-21 135Q711-20 506-20q-206 1-299.5 123.5T113 479zm163 963h91q0-85 48-145t128-60 128 60 48 145h90q0-134-77-215.5T543 1145t-189.5 81.5T276 1442z"/><glyph unicode="Ů" d="M154 465v977h112V465q0-166 115.5-273.5T657 84t275 107.5T1047 465v977h112V465q0-221-141-353T657-20q-144 0-258 58T219.5 207.5 154 465zm309 1278q0 78 57 135t135 57q79 0 136-57t57-135q0-79-57-136t-136-57q-78 0-135 57t-57 136zm90 0q0-43 30.5-73t71.5-30q43 0 73 30t30 73q0 41-30 71.5t-73 30.5q-41 0-71.5-30.5T553 1743z"/><glyph unicode="ů" horiz-adv-x="1087" d="M113 479v557h112V479q0-205 68-299.5T524 84q157 0 227 98t70 297v557h113V0h-92l-21 135Q711-20 506-20q-206 1-299.5 123.5T113 479zm237 858q0 78 57.5 135.5T543 1530q79 0 135.5-57.5T735 1337q0-79-56.5-135.5T543 1145q-78 0-135.5 56.5T350 1337zm90 0q0-42 30.5-72t72.5-30q43 0 72.5 29.5T645 1337q0 42-30 72.5t-72 30.5q-41 0-72-31t-31-72z"/><glyph unicode="Ű" d="M154 465v977h112V465q0-166 115.5-273.5T657 84t275 107.5T1047 465v977h112V465q0-221-141-353T657-20q-144 0-258 58T219.5 207.5 154 465zm211 1085 55 297h164l-56-297H365zm405 0 55 297h164l-55-297H770z"/><glyph unicode="ű" horiz-adv-x="1087" d="M113 479v557h112V479q0-205 68-299.5T524 84q157 0 227 98t70 297v557h113V0h-92l-21 135Q711-20 506-20q-206 1-299.5 123.5T113 479zm139 666 55 297h164l-55-297H252zm405 0 56 297h164l-56-297H657z"/><glyph unicode="Ų" d="M154 465v977h112V465q0-166 115.5-273.5T657 84t275 107.5T1047 465v977h112V465q0-221-141-353T657-20q-144 0-258 58T219.5 207.5 154 465zm428-674q0 98 60 170t177 72V0q-59-5-96-47t-37-105q0-70 41.5-109.5T834-301h26v-105h-45q-103 0-165.5 54.5T582-209z"/><glyph unicode="ų" horiz-adv-x="1087" d="M113 479v557h112V479q0-205 68-299.5T524 84q157 0 227 98t70 297v557h113V0h-92l-21 135Q711-20 506-20q-206 1-299.5 123.5T113 479zm542-688q0 98 60.5 170T893 33V0q-59-5-96-47t-37-105q0-70 41-109.5T907-301h27v-105h-45q-103 0-166 54.5T655-209z"/><glyph unicode="Ŵ" horiz-adv-x="1665" d="M51 1442h115L414 166l323 1276h168l322-1276 272 1276h115L1309 0h-138L821 1305 471 0H334zm567 108 136 297h157l136-297H944l-113 215-110-215H618z"/><glyph unicode="ŵ" horiz-adv-x="1357" d="M61 1036h109l164-870 258 870h145l279-870 172 870h108L1075 0H958L664 899 391 0H274zm404 109 135 297h158l135-297H791l-113 215-111-215H465z"/><glyph unicode="Ŷ" horiz-adv-x="1079" d="M41 1442h125l373-629 374 629h125L596 709V0H483v709zm285 108 135 297h157l136-297H651l-112 215-111-215H326z"/><glyph unicode="ŷ" horiz-adv-x="948" d="M41 1036h115l317-872 320 872h114L389-406H268L416 0zm219 109 135 297h158l135-297H586l-113 215-111-215H260z"/><glyph unicode="Ÿ" horiz-adv-x="1079" d="M41 1442h125l373-629 374 629h125L596 709V0H483v709zm225 108v154h154v-154H266zm391 0v154h154v-154H657z"/><glyph unicode="Ź" horiz-adv-x="1077" d="M92 0v104l760 1235H92v103h891v-103L225 104h758V0H92zm381 1550 135 297h158l-191-297H473z"/><glyph unicode="ź" horiz-adv-x="925" d="M102 0v104l568 830H123v102h680V934L236 104h587V0H102zm275 1145 135 297h158l-191-297H377z"/><glyph unicode="Ż" horiz-adv-x="1077" d="M92 0v104l760 1235H92v103h891v-103L225 104h758V0H92zm369 1694v153h153v-153H461z"/><glyph unicode="ż" horiz-adv-x="925" d="M102 0v104l568 830H123v102h680V934L236 104h587V0H102zm283 1288v154h154v-154H385z"/><glyph unicode="Ž" horiz-adv-x="1077" d="M92 0v104l760 1235H92v103h891v-103L225 104h758V0H92zm234 1847h102l111-215 112 215h103l-136-297H461z"/><glyph unicode="ž" horiz-adv-x="925" d="M102 0v104l568 830H123v102h680V934L236 104h587V0H102zm158 1442h102l111-215 113 215h102l-135-297H395z"/><glyph unicode="ſ" horiz-adv-x="663" d="M61 932v104h195v152q0 254 244 254h102v-105H502q-64 0-98.5-39.5T369 1188V0H256v932H61z"/><glyph unicode="ƒ" horiz-adv-x="688" d="m-123-406 21 105H-2q62 0 104 39.5T158-152L369 932H174l21 104h194l29 152q26 130 97.5 192t193.5 62h102l-20-105H690q-64 0-105-39.5T530 1188l-28-152h233l-20-104H481L270-152q-26-130-97.5-192T-20-406h-103z"/><glyph unicode="Ș" horiz-adv-x="1230" d="m92 432 111 21q0-47 14-96t47.5-98.5 81-88 122-62.5T631 84q73 0 141.5 19t126 55.5 92.5 97 35 135.5q0 68-23.5 120t-59 83-91 52T747 676t-116 14q-498 40-498 379 0 81 29 148t76.5 111.5T349 1404t129 44.5 134 13.5q85 0 164-24t144.5-70 108.5-121 50-170l-110-20q-13 147-112 224t-245 77q-68 0-131.5-17t-118-50.5-87.5-91-33-130.5q0-40 10.5-74.5T290 926t69.5-59T471 822.5 631 795q56-5 98-11t98.5-19 97-31 83.5-48.5 69.5-70 44-97T1139 391q0-124-70-219T884 28.5 631-20q-134 0-241 41.5T220 130t-95.5 144.5T92 432zm473-571h133v-133l-80-134h-53l66 134h-66v133z"/><glyph unicode="ș" horiz-adv-x="1003" d="m92 326 111 20q0-31 6-61.5t25.5-69 51-66.5 88.5-47.5T506 82q34 0 66.5 3.5T649 102t75.5 34.5 54 62T801 293q0 45-19 78.5T737 424t-70.5 32.5T590 475t-82 10q-37 4-57 6.5t-57 9-59.5 13-54 18-51.5 26-42.5 35.5-34.5 46-20.5 58.5T123 770q0 123 104 205t258 82q176 0 290-90t114-256l-115-21q0 129-77 196.5T485 954q-112 0-180.5-54T236 770q0-91 65.5-129T506 590q75-8 129-18t109-31.5 89.5-52.5 56-80T911 293q0-144-110-228.5T506-20q-109 0-192 31T184.5 93.5 115 204 92 326zm348-465h133v-133l-79-134h-54l66 134h-66v133z"/><glyph unicode="Ț" horiz-adv-x="1015" d="M63 1339v103h891v-103H565V0H453v1339H63zM440-139h133v-133l-79-134h-54l66 134h-66v133z"/><glyph unicode="ț" horiz-adv-x="704" d="M72 934v102h194v318h113v-318h233V934H379V254q0-84 32.5-117T512 104h100V0H510Q379 0 322.5 60.5T266 254v680H72zM379-139h133v-133l-80-134h-53l65 134h-65v133z"/><glyph unicode="ˆ" horiz-adv-x="550" d="m61 1145 136 297h157l135-297H387l-113 215-110-215H61z"/><glyph unicode="ˇ" horiz-adv-x="550" d="M61 1442h103l110-215 113 215h102l-135-297H197z"/><glyph unicode="˘" horiz-adv-x="729" d="M98 1442h90q0-85 48.5-145t128.5-60 128 60 48 145h90q0-134-77-215.5T365 1145t-189.5 81.5T98 1442z"/><glyph unicode="˙" horiz-adv-x="518" d="M182 1288v154h154v-154H182z"/><glyph unicode="˚" horiz-adv-x="526" d="M70 1337q0 78 57 135.5t135 57.5q79 0 136-57.5t57-135.5q0-79-56.5-135.5T262 1145q-78 0-135 56.5T70 1337zm90 0q0-42 30-72t72-30q43 0 73 29.5t30 72.5q0 42-30.5 72.5T262 1440q-41 0-71.5-31t-30.5-72z"/><glyph unicode="˛" horiz-adv-x="561" d="M147-209q0 98 60.5 170T385 33V0q-59-5-96-47t-37-105q0-70 41-109.5T399-301h27v-105h-45q-103 0-166 54.5T147-209z"/><glyph unicode="˜" horiz-adv-x="665" d="M61 1145v43q0 28 8 55t25 52.5 49.5 41T219 1352q38 0 73.5-16.5t58-36 48-36T444 1247q68 0 68 105h92v-41q0-38-14-73.5t-52-64-94-28.5q-38 0-73.5 16t-58 35-48 35-45.5 16q-65 0-65-102H61z"/><glyph unicode="˝" horiz-adv-x="851" d="m115 1145 55 297h164l-55-297H115zm405 0 55 297h164l-55-297H520z"/><glyph unicode="Ω" horiz-adv-x="1431" d="M127 0v104h256Q127 280 127 721q0 220 63.5 385T385 1366.5t317 95.5 317-95.5 194-260.5 63-385q0-441-256-617h256V0H756v104q196 20 298.5 177.5T1157 721q0 303-117.5 470T702 1358q-221 0-337.5-166.5T248 721q0-283 101.5-440T647 104V0H127z"/><glyph unicode="π" horiz-adv-x="1370" d="M123 926v110h1124V926h-172V254q0-70 34.5-110t98.5-40h39V0h-41q-122 0-181.5 62T965 254v672H406V0H295v926H123z"/><glyph horiz-adv-x="967"/><glyph horiz-adv-x="1935"/><glyph horiz-adv-x="967"/><glyph horiz-adv-x="1935"/><glyph horiz-adv-x="645"/><glyph horiz-adv-x="483"/><glyph horiz-adv-x="322"/><glyph horiz-adv-x="322"/><glyph horiz-adv-x="241"/><glyph horiz-adv-x="387"/><glyph horiz-adv-x="107"/><glyph unicode="‐" horiz-adv-x="864" d="M133 475v103h596V475H133z"/><glyph unicode="‑" horiz-adv-x="864" d="M133 475v103h596V475H133z"/><glyph unicode="‒" horiz-adv-x="864" d="M133 475v103h596V475H133z"/><glyph unicode="–" horiz-adv-x="1021" d="M102 463v104h818V463H102z"/><glyph unicode="—" horiz-adv-x="1576" d="M102 463v104h1373V463H102z"/><glyph unicode="‘" horiz-adv-x="491" d="M152 958v191l114 293h76l-94-293h94V958H152z"/><glyph unicode="’" horiz-adv-x="491" d="m152 958 94 293h-94v191h190v-191L227 958h-75z"/><glyph unicode="‚" horiz-adv-x="491" d="M152 0v190h190V0L227-293h-75L246 0h-94z"/><glyph unicode="“" horiz-adv-x="800" d="M152 958v191l114 293h76l-94-293h94V958H152zm307 0v191l114 293h76l-94-293h94V958H459z"/><glyph unicode="”" horiz-adv-x="800" d="m152 958 94 293h-94v191h190v-191L227 958h-75zm307 0 94 293h-94v191h190v-191L535 958h-76z"/><glyph unicode="„" horiz-adv-x="800" d="M152 0v190h190V0L227-293h-75L246 0h-94zm307 0v190h190V0L535-293h-76L553 0h-94z"/><glyph unicode="†" horiz-adv-x="1239" d="M92 932v104h465v406h109v-406h462V932H666V-406H557V932H92z"/><glyph unicode="‡" horiz-adv-x="1239" d="M92 0v104h465v828H92v104h465v406h109v-406h462V932H666V104h462V0H666v-406H557V0H92z"/><glyph unicode="•" horiz-adv-x="1300" d="M113 518q0 146 72 269.5T381 983t270 72 269.5-72T1116 787.5t72-269.5-72-270T920.5 52 651-20 381 52 185 248t-72 270z"/><glyph unicode="…" horiz-adv-x="1585" d="M150 0v190h190V0H150zm548 0v190h191V0H698zm547 0v190h191V0h-191z"/><glyph horiz-adv-x="387"/><glyph unicode="‰" horiz-adv-x="2340" d="M154 1040q0 94 16 169t49 133 88.5 89 130.5 31q76 0 132-31t89.5-88.5 49.5-133 16-169.5q0-194-69.5-306.5T438 621q-147 0-215.5 112.5T154 1040zm116 0q0-157 39-234t129-77 130 77 40 234q0 158-40 235t-130 77-129-77-39-235zM369 0l864 1497 98-55L467-55zm612 397q0 128 27.5 220t93 148 164.5 56q148 0 217-114t69-310q0-193-69-305T1266-20q-99 0-164.5 55t-93 145.5T981 397zm117 0q0-156 39-232.5T1266 88t130 77 40 232q0 159-40 236.5T1266 711t-129-77-39-237zm518 0q0 128 27.5 220t93 148 164.5 56q148 0 217-114t69-310q0-193-69-305T1901-20q-99 0-164.5 55t-93 145.5T1616 397zm117 0q0-156 39-232.5T1901 88t130 77 40 232q0 159-40 236.5T1901 711t-129-77-39-237z"/><glyph unicode="‹" horiz-adv-x="604" d="m61 516 244 315h135L193 516l229-291H289z"/><glyph unicode="›" horiz-adv-x="604" d="M164 831h135l244-315-228-291H182l230 291z"/><glyph unicode="⁄" horiz-adv-x="1212" d="m104 0 865 1497 98-55L203-55z"/><glyph horiz-adv-x="483"/><glyph unicode="₣" horiz-adv-x="1314" d="M102 0v535h535V0H102zm0 575v535h535V575H102zM678 0v535h534V0H678zm0 575v535h534V575H678z"/><glyph unicode="₤" horiz-adv-x="1241" d="M102 0v1036h1037V0H102zm103 102h831v832H205V102z"/><glyph unicode="₧" horiz-adv-x="1241" d="M102 0v1442h1037V0H102zm103 102h831v1237H205V102z"/><glyph unicode="€" horiz-adv-x="1208" d="m92 522 31 115h119q-4 63 0 188H92l31 115h133q19 116 59 209t102 164.5 153 110 204 38.5q99 0 169.5-27t150.5-81l-27-94q-82 54-143 76t-150 22q-170 0-268.5-110T375 940h612l-29-115H362q-4-125 0-188h549l-28-115H373q29-208 127.5-323T774 84q167 0 322 123V76Q961-20 774-20q-116 0-208.5 40.5T410.5 135t-102 170.5T252 522H92z"/><glyph unicode="™" horiz-adv-x="1222" d="M61 1393v49h447v-49H313V721h-55v672H61zm519-672v721h104l186-670 189 670h102V721h-55v670L913 721h-86l-190 670V721h-57z"/><glyph unicode="←" horiz-adv-x="1585" d="M102 467v102l467 467h148L250 569h1233V467H250L717 0H569z"/><glyph unicode="↑" horiz-adv-x="1241" d="M102 827v148l467 467h103l467-467V827l-467 467V0H569v1294z"/><glyph unicode="→" horiz-adv-x="1585" d="M102 467v102h1233l-467 467h148l467-467V467L1016 0H868l467 467H102z"/><glyph unicode="↓" horiz-adv-x="1241" d="M102 467v147l467-467v1295h103V147l467 467V467L672 0H569z"/><glyph unicode="↵" horiz-adv-x="1585" d="M102 467v102l467 467h148L250 569h1130v873h103V467H250L717 0H569z"/><glyph unicode="∂" horiz-adv-x="1146" d="M80 487q0 141 53.5 255t158 182.5T535 993q123 0 233.5-73.5T915 727q0 59-3.5 113t-14 119-27.5 119.5-46.5 107-68 89-95 59T535 1356q-36 0-80.5-7.5T397 1335l-20 107q68 20 158 20 109 0 194-38.5t142-106 94-165 53-209.5 16-245q0-102-14-197.5T970 308t-91-168T735.5 24.5 535-20q-107 0-195 43.5T196.5 139t-86 162T80 487zm117-2q0-74 18.5-142t57-127T379 121.5 537 86q72 0 130.5 23.5T764 172t63 91.5T863 371t11 114-11 114.5T826.5 708 763 800t-97 63-131 24-130.5-24-96.5-63-63.5-92T208 599.5 197 485z"/><glyph unicode="∆" horiz-adv-x="1263" d="m51 0 582 1462L1212 0H51zm152 104h856L633 1174z"/><glyph unicode="∏" horiz-adv-x="1271" d="M154 0v1442h964V0h-112v1337H264V0H154z"/><glyph unicode="∑" horiz-adv-x="1179" d="M154 0v104l495 615-495 618v105h913v-105H305l488-618-488-615h762V0H154z"/><glyph unicode="√" horiz-adv-x="1341" d="M168 911v125h281l208-905 410 1688h133L748 0H573L354 911H168z"/><glyph unicode="∞" horiz-adv-x="1921" d="M92 651q0 165 116.5 285.5T498 1057q167 0 276-121l187-207 184 207q109 121 278 121t287.5-118.5T1829 651q0-107-51.5-199.5t-145.5-149-209-56.5q-168 0-278 121L961 571 774 365Q666 246 498 246q-169 0-287.5 118T92 651zm113 0q0-121 85.5-212T498 348q123 0 202 90l189 213-189 213q-79 90-202 90-119 0-206-89.5T205 651zm825 0 191-213q79-90 202-90 119 0 206 89.5t87 213.5q0 121-85.5 212T1423 954q-123 0-202-90z"/><glyph unicode="∫" horiz-adv-x="688" d="M55-301h101q64 0 98.5 39.5T289-152v1340q0 130 59.5 192t181.5 62h103v-105H532q-64 0-97.5-39.5T401 1188V-152q0-130-60.5-192T158-406H55v105z"/><glyph unicode="≈" horiz-adv-x="1058" d="M102 324q79 89 129 119t119 30q46 0 103.5-21.5t101.5-48 93-48 81-21.5q28 0 54 21.5t89 90.5l84-75q-80-90-129-120t-118-30q-47 0-104 21.5t-99.5 48-92 48T330 360q-28 0-55-22t-89-90zm0 340q79 89 129 119t119 30q46 0 103.5-21.5t101.5-48 93-48 81-21.5q28 0 54 21.5t89 90.5l84-75q-80-90-129-120t-118-30q-47 0-104 21.5t-99.5 48-92 48T330 700q-28 0-55-22t-89-90z"/><glyph unicode="≠" horiz-adv-x="1241" d="M102 231v103h355l211 364H102v105h627l148 256 98-55-117-201h281V698H799L588 334h551V231H528L362-55 264 0l133 231H102z"/><glyph unicode="≤" horiz-adv-x="1241" d="M102 0v102h1037V0H102zm0 872v103l1037 467v-103L215 924l924-416V406z"/><glyph unicode="≥" horiz-adv-x="1241" d="M102 0v102h1037V0H102zm0 406v102l924 416-924 415v103l1037-467V872z"/><glyph unicode="◊" horiz-adv-x="1208" d="m41 719 487 723h152l487-723L680 0H528zm143 0 420-610 420 610-420 612z"/><glyph unicode="◼" horiz-adv-x="1034" d="M0 0v1034h1034V0H0z"/><glyph unicode="" horiz-adv-x="1417" d="M102 674q0 81 27 158.5t76 139 123 99 161 37.5q47 0 140-33 73-28 104-28 28 0 107 28 97 33 133 33 95 0 174-37 74-35 139-106-176-125-176-287 0-97 55-175.5T1315 383q-97-209-178-297-80-86-181-86-41 0-114 33-66 26-109 26-46 0-110-26Q556 0 512 0q-62 0-113 39-133 97-215 276t-82 359zm627 418q0 135 86 231 96 96 203 115 0-84-17-144t-71-114q-86-90-195-90-1 0-2.5 1t-3.5 1z"/><glyph unicode="ﬃ" horiz-adv-x="1570" d="M61 932v104h195v152q0 254 244 254h102v-105H502q-64 0-98.5-39.5T369 1188v-152h430v152q0 254 243 254h103v-105h-101q-64 0-98.5-39.5T911 1188v-152h510V0h-112v932H911V0H799v932H369V0H256v932H61zm1227 356v154h154v-154h-154z"/><glyph unicode="ﬄ" horiz-adv-x="1525" d="M61 932v104h195v152q0 254 244 254h102v-105H502q-64 0-98.5-39.5T369 1188v-152h428v152q0 254 243 254h363V0h-113v1337h-248q-64 0-98.5-39.5T909 1188v-152h234V932H909V0H797v932H369V0H256v932H61z"/></font>
</defs>
</svg>
